M48
;DRILL file {PCBnew (2010-05-05 BZR 2356)-stable} date 12/25/2011 2:44:34 PM
;FORMAT={-.-/ absolute / inch / decimal}
R,T
VER,1
FMAT,2
INCH,TZ
TCST,OFF
ICI,OFF
ATC,ON
T1C0.025
T2C0.032
T3C0.039
T4C0.040
T5C0.045
T6C0.120
%
M47
G05
M72
T1
X2.475Y-6.775
X2.520Y-5.700
X2.640Y-5.155
X2.745Y-5.475
X2.780Y-5.190
X2.875Y-4.555
X2.975Y-4.820
X3.040Y-5.190
X3.049Y-4.374
X3.120Y-4.885
X3.180Y-5.155
X3.180Y-5.465
X3.320Y-4.655
X3.485Y-6.610
X3.530Y-6.690
X3.570Y-6.550
X3.655Y-6.510
X3.655Y-6.610
X3.670Y-7.010
X3.680Y-4.665
X3.690Y-4.820
X3.840Y-6.755
X3.895Y-6.700
X3.920Y-5.560
X3.940Y-4.600
X4.000Y-5.640
X4.080Y-4.970
X4.185Y-4.655
X4.286Y-7.074
X4.290Y-4.970
X4.463Y-6.995
X4.490Y-6.756
X4.545Y-6.880
X4.585Y-5.560
X4.699Y-5.931
X4.711Y-6.482
X4.712Y-5.638
X4.736Y-5.259
X4.763Y-4.866
X4.770Y-6.624
X4.790Y-5.821
X4.810Y-5.560
X4.812Y-6.426
X4.839Y-5.990
X4.873Y-5.136
X4.874Y-6.509
X4.878Y-6.039
X4.890Y-5.640
X4.900Y-6.397
X4.909Y-4.464
X4.940Y-5.985
X4.950Y-5.925
X5.093Y-5.386
X5.094Y-5.985
X5.112Y-6.039
X5.157Y-4.808
X5.160Y-6.605
X5.202Y-5.254
X5.215Y-5.780
X5.249Y-5.194
X5.330Y-5.965
X5.701Y-6.755
X5.783Y-4.693
T2
X2.580Y-4.460
X2.580Y-4.760
X2.580Y-5.860
X2.580Y-6.160
X2.680Y-4.460
X2.680Y-4.760
X2.680Y-5.860
X2.680Y-6.160
X2.780Y-4.460
X2.780Y-4.760
X2.780Y-5.860
X2.780Y-6.160
X2.880Y-4.460
X2.880Y-4.760
X2.880Y-5.860
X2.880Y-6.160
X2.980Y-4.460
X2.980Y-4.760
X2.980Y-5.860
X2.980Y-6.160
X3.080Y-4.460
X3.080Y-4.760
X3.080Y-5.860
X3.080Y-6.160
X3.180Y-4.460
X3.180Y-4.760
X3.180Y-5.860
X3.180Y-6.160
X3.280Y-4.460
X3.280Y-4.760
X3.280Y-5.860
X3.280Y-6.160
X3.380Y-4.460
X3.380Y-4.760
X3.380Y-5.860
X3.380Y-6.160
X3.431Y-6.900
X3.480Y-4.460
X3.480Y-4.760
X3.480Y-5.860
X3.480Y-6.160
X3.529Y-6.900
X3.580Y-4.460
X3.580Y-4.760
X3.580Y-5.860
X3.580Y-6.160
X3.680Y-4.460
X3.680Y-4.760
X3.680Y-5.860
X3.680Y-6.160
X3.681Y-6.900
X3.779Y-6.900
X3.780Y-4.460
X3.780Y-4.760
X3.780Y-5.860
X3.780Y-6.160
X3.880Y-4.460
X3.880Y-4.760
X3.880Y-5.860
X3.880Y-6.160
X3.980Y-4.460
X3.980Y-4.760
X3.980Y-5.860
X3.980Y-6.160
X4.080Y-4.460
X4.080Y-4.760
X4.080Y-5.860
X4.080Y-6.160
X4.180Y-4.460
X4.180Y-4.760
X4.180Y-5.860
X4.180Y-6.160
X4.280Y-4.460
X4.280Y-4.760
X4.280Y-5.860
X4.280Y-6.160
X4.380Y-4.460
X4.380Y-4.760
X4.380Y-5.860
X4.380Y-6.160
X4.480Y-4.460
X4.480Y-4.760
X4.480Y-5.860
X4.480Y-6.160
X5.033Y-5.601
X5.033Y-5.901
X5.043Y-6.221
X5.043Y-6.521
X5.133Y-5.601
X5.133Y-5.901
X5.143Y-6.221
X5.143Y-6.521
X5.233Y-5.601
X5.233Y-5.901
X5.243Y-6.221
X5.243Y-6.521
X5.333Y-5.601
X5.333Y-5.901
X5.343Y-6.221
X5.343Y-6.521
X5.433Y-5.601
X5.433Y-5.901
X5.443Y-6.221
X5.443Y-6.521
X5.533Y-5.601
X5.533Y-5.901
X5.543Y-6.221
X5.543Y-6.521
X5.633Y-5.601
X5.633Y-5.901
X5.643Y-6.221
X5.643Y-6.521
T3
X5.438Y-4.415
X5.438Y-4.627
X5.544Y-4.521
X5.650Y-4.415
X5.650Y-4.627
T4
X2.470Y-6.870
X2.470Y-6.970
X2.570Y-6.870
X2.570Y-6.970
X3.140Y-6.880
X3.140Y-6.980
X4.170Y-6.870
X4.170Y-6.970
X4.270Y-6.870
X4.270Y-6.970
X4.370Y-6.870
X4.370Y-6.970
T5
X3.360Y-6.410
X3.360Y-6.510
X3.360Y-6.610
X3.750Y-6.410
X3.750Y-6.510
X3.750Y-6.610
T6
X2.710Y-6.510
X4.400Y-6.510
T0
M30
