G04 (created by PCBNEW-RS274X (2010-05-05 BZR 2356)-stable) date 12/25/2011 2:18:58 PM*
G01*
G70*
G90*
%MOIN*%
G04 Gerber Fmt 3.4, Leading zero omitted, Abs format*
%FSLAX34Y34*%
G04 APERTURE LIST*
%ADD10C,0.006000*%
%ADD11C,0.015000*%
%ADD12C,0.080000*%
%ADD13R,0.075000X0.075000*%
%ADD14C,0.075000*%
%ADD15R,0.370000X0.370000*%
%ADD16C,0.090000*%
%ADD17R,0.090000X0.090000*%
%ADD18R,0.080000X0.080000*%
%ADD19R,0.110500X0.201100*%
%ADD20R,0.080000X0.100000*%
%ADD21R,0.100000X0.080000*%
%ADD22C,0.098700*%
%ADD23R,0.036500X0.077900*%
G04 APERTURE END LIST*
G54D10*
G54D11*
X23570Y-70490D02*
X23580Y-70490D01*
X23570Y-71130D02*
X23570Y-70490D01*
X58480Y-71130D02*
X23570Y-71130D01*
X58480Y-43050D02*
X58480Y-71130D01*
X23570Y-43050D02*
X58480Y-43050D01*
X23570Y-70590D02*
X23570Y-43050D01*
G54D12*
X37792Y-69000D03*
X36808Y-69000D03*
X34308Y-69000D03*
X35292Y-69000D03*
G54D13*
X56430Y-62210D03*
G54D14*
X55430Y-62210D03*
X54430Y-62210D03*
X53430Y-62210D03*
X52430Y-62210D03*
X51430Y-62210D03*
X50430Y-62210D03*
X50430Y-65210D03*
X51430Y-65210D03*
X52430Y-65210D03*
X53430Y-65210D03*
X54430Y-65210D03*
X55430Y-65210D03*
X56430Y-65210D03*
G54D13*
X50330Y-59010D03*
G54D14*
X51330Y-59010D03*
X52330Y-59010D03*
X53330Y-59010D03*
X54330Y-59010D03*
X55330Y-59010D03*
X56330Y-59010D03*
X56330Y-56010D03*
X55330Y-56010D03*
X54330Y-56010D03*
X53330Y-56010D03*
X52330Y-56010D03*
X51330Y-56010D03*
X50330Y-56010D03*
G54D13*
X25800Y-47600D03*
G54D14*
X26800Y-47600D03*
X27800Y-47600D03*
X28800Y-47600D03*
X29800Y-47600D03*
X30800Y-47600D03*
X31800Y-47600D03*
X32800Y-47600D03*
X33800Y-47600D03*
X34800Y-47600D03*
X34800Y-44600D03*
X33800Y-44600D03*
X32800Y-44600D03*
X31800Y-44600D03*
X30800Y-44600D03*
X29800Y-44600D03*
X28800Y-44600D03*
X27800Y-44600D03*
X26800Y-44600D03*
X25800Y-44600D03*
G54D13*
X35800Y-61600D03*
G54D14*
X36800Y-61600D03*
X37800Y-61600D03*
X38800Y-61600D03*
X39800Y-61600D03*
X40800Y-61600D03*
X41800Y-61600D03*
X42800Y-61600D03*
X43800Y-61600D03*
X44800Y-61600D03*
X44800Y-58600D03*
X43800Y-58600D03*
X42800Y-58600D03*
X41800Y-58600D03*
X40800Y-58600D03*
X39800Y-58600D03*
X38800Y-58600D03*
X37800Y-58600D03*
X36800Y-58600D03*
X35800Y-58600D03*
G54D13*
X44800Y-44600D03*
G54D14*
X43800Y-44600D03*
X42800Y-44600D03*
X41800Y-44600D03*
X40800Y-44600D03*
X39800Y-44600D03*
X38800Y-44600D03*
X37800Y-44600D03*
X36800Y-44600D03*
X35800Y-44600D03*
X35800Y-47600D03*
X36800Y-47600D03*
X37800Y-47600D03*
X38800Y-47600D03*
X39800Y-47600D03*
X40800Y-47600D03*
X41800Y-47600D03*
X42800Y-47600D03*
X43800Y-47600D03*
X44800Y-47600D03*
G54D13*
X25800Y-61600D03*
G54D14*
X26800Y-61600D03*
X27800Y-61600D03*
X28800Y-61600D03*
X29800Y-61600D03*
X30800Y-61600D03*
X31800Y-61600D03*
X32800Y-61600D03*
X33800Y-61600D03*
X34800Y-61600D03*
X34800Y-58600D03*
X33800Y-58600D03*
X32800Y-58600D03*
X31800Y-58600D03*
X30800Y-58600D03*
X29800Y-58600D03*
X28800Y-58600D03*
X27800Y-58600D03*
X26800Y-58600D03*
X25800Y-58600D03*
G54D15*
X27100Y-65100D03*
G54D16*
X33600Y-66100D03*
G54D17*
X33600Y-65100D03*
G54D16*
X33600Y-64100D03*
G54D15*
X44000Y-65100D03*
G54D16*
X37500Y-64100D03*
G54D17*
X37500Y-65100D03*
G54D16*
X37500Y-66100D03*
G54D18*
X31400Y-68800D03*
G54D12*
X31400Y-69800D03*
G54D18*
X24700Y-68700D03*
G54D12*
X25700Y-68700D03*
X24700Y-69700D03*
X25700Y-69700D03*
G54D18*
X41700Y-69700D03*
G54D12*
X41700Y-68700D03*
X42700Y-69700D03*
X42700Y-68700D03*
X43700Y-69700D03*
X43700Y-68700D03*
G54D19*
X51727Y-69560D03*
X55033Y-69560D03*
X57743Y-49090D03*
X54437Y-49090D03*
G54D20*
X52420Y-67320D03*
X53720Y-67320D03*
X37150Y-57100D03*
X35850Y-57100D03*
X25950Y-57100D03*
X27250Y-57100D03*
X31150Y-54000D03*
X32450Y-54000D03*
X31150Y-51900D03*
X32450Y-51900D03*
X27050Y-51900D03*
X25750Y-51900D03*
G54D21*
X56330Y-68210D03*
X56330Y-69510D03*
G54D20*
X37150Y-51900D03*
X35850Y-51900D03*
X34550Y-49700D03*
X35850Y-49700D03*
X31150Y-49700D03*
X32450Y-49700D03*
X46130Y-69490D03*
X47430Y-69490D03*
X44950Y-49700D03*
X43650Y-49700D03*
G54D21*
X57800Y-69510D03*
X57800Y-68210D03*
G54D20*
X41450Y-49700D03*
X40150Y-49700D03*
X37350Y-49700D03*
X38650Y-49700D03*
X41650Y-54000D03*
X42950Y-54000D03*
G54D21*
X35700Y-66150D03*
X35700Y-64850D03*
G54D20*
X41750Y-51900D03*
X43050Y-51900D03*
X27050Y-53900D03*
X25750Y-53900D03*
G54D22*
X55440Y-45210D03*
X56503Y-46273D03*
X56503Y-44147D03*
X54377Y-44147D03*
X54377Y-46273D03*
G54D23*
X51972Y-50972D03*
X52228Y-50972D03*
X52484Y-50972D03*
X52740Y-50972D03*
X51208Y-48770D03*
X51204Y-50972D03*
X51460Y-50972D03*
X51716Y-50972D03*
X52996Y-48768D03*
X52740Y-48768D03*
X52484Y-48768D03*
X52228Y-48768D03*
X51972Y-48768D03*
X51716Y-48768D03*
X52996Y-50972D03*
X51460Y-48770D03*
M02*
