G04 (created by PCBNEW-RS274X (2010-05-05 BZR 2356)-stable) date 12/25/2011 2:18:58 PM*
G01*
G70*
G90*
%MOIN*%
G04 Gerber Fmt 3.4, Leading zero omitted, Abs format*
%FSLAX34Y34*%
G04 APERTURE LIST*
%ADD10C,0.006000*%
%ADD11C,0.012000*%
%ADD12C,0.015000*%
%ADD13C,0.008000*%
%ADD14C,0.003900*%
%ADD15C,0.005000*%
%ADD16C,0.011300*%
%ADD17C,0.010000*%
G04 APERTURE END LIST*
G54D10*
G54D11*
X24145Y-57756D02*
X24183Y-57670D01*
X24221Y-57642D01*
X24297Y-57613D01*
X24411Y-57613D01*
X24488Y-57642D01*
X24526Y-57670D01*
X24564Y-57728D01*
X24564Y-57956D01*
X23764Y-57956D01*
X23764Y-57756D01*
X23802Y-57699D01*
X23840Y-57670D01*
X23916Y-57642D01*
X23992Y-57642D01*
X24069Y-57670D01*
X24107Y-57699D01*
X24145Y-57756D01*
X24145Y-57956D01*
X24564Y-57356D02*
X24030Y-57356D01*
X24183Y-57356D02*
X24107Y-57328D01*
X24069Y-57299D01*
X24030Y-57242D01*
X24030Y-57185D01*
X24564Y-56899D02*
X24526Y-56957D01*
X24488Y-56985D01*
X24411Y-57014D01*
X24183Y-57014D01*
X24107Y-56985D01*
X24069Y-56957D01*
X24030Y-56899D01*
X24030Y-56814D01*
X24069Y-56757D01*
X24107Y-56728D01*
X24183Y-56699D01*
X24411Y-56699D01*
X24488Y-56728D01*
X24526Y-56757D01*
X24564Y-56814D01*
X24564Y-56899D01*
X24526Y-56185D02*
X24564Y-56242D01*
X24564Y-56356D01*
X24526Y-56414D01*
X24488Y-56442D01*
X24411Y-56471D01*
X24183Y-56471D01*
X24107Y-56442D01*
X24069Y-56414D01*
X24030Y-56356D01*
X24030Y-56242D01*
X24069Y-56185D01*
X24564Y-55928D02*
X23764Y-55928D01*
X24259Y-55871D02*
X24564Y-55700D01*
X24030Y-55700D02*
X24335Y-55928D01*
X24335Y-55014D02*
X24335Y-54728D01*
X24564Y-55071D02*
X23764Y-54871D01*
X24564Y-54671D01*
X24030Y-54471D02*
X24564Y-54471D01*
X24107Y-54471D02*
X24069Y-54443D01*
X24030Y-54385D01*
X24030Y-54300D01*
X24069Y-54243D01*
X24145Y-54214D01*
X24564Y-54214D01*
X24564Y-53671D02*
X23764Y-53671D01*
X24526Y-53671D02*
X24564Y-53728D01*
X24564Y-53842D01*
X24526Y-53900D01*
X24488Y-53928D01*
X24411Y-53957D01*
X24183Y-53957D01*
X24107Y-53928D01*
X24069Y-53900D01*
X24030Y-53842D01*
X24030Y-53728D01*
X24069Y-53671D01*
X24526Y-53157D02*
X24564Y-53214D01*
X24564Y-53328D01*
X24526Y-53385D01*
X24450Y-53414D01*
X24145Y-53414D01*
X24069Y-53385D01*
X24030Y-53328D01*
X24030Y-53214D01*
X24069Y-53157D01*
X24145Y-53128D01*
X24221Y-53128D01*
X24297Y-53414D01*
X24564Y-52871D02*
X24030Y-52871D01*
X24183Y-52871D02*
X24107Y-52843D01*
X24069Y-52814D01*
X24030Y-52757D01*
X24030Y-52700D01*
X24526Y-52529D02*
X24564Y-52472D01*
X24564Y-52357D01*
X24526Y-52300D01*
X24450Y-52272D01*
X24411Y-52272D01*
X24335Y-52300D01*
X24297Y-52357D01*
X24297Y-52443D01*
X24259Y-52500D01*
X24183Y-52529D01*
X24145Y-52529D01*
X24069Y-52500D01*
X24030Y-52443D01*
X24030Y-52357D01*
X24069Y-52300D01*
X24564Y-51928D02*
X24526Y-51986D01*
X24488Y-52014D01*
X24411Y-52043D01*
X24183Y-52043D01*
X24107Y-52014D01*
X24069Y-51986D01*
X24030Y-51928D01*
X24030Y-51843D01*
X24069Y-51786D01*
X24107Y-51757D01*
X24183Y-51728D01*
X24411Y-51728D01*
X24488Y-51757D01*
X24526Y-51786D01*
X24564Y-51843D01*
X24564Y-51928D01*
X24030Y-51471D02*
X24564Y-51471D01*
X24107Y-51471D02*
X24069Y-51443D01*
X24030Y-51385D01*
X24030Y-51300D01*
X24069Y-51243D01*
X24145Y-51214D01*
X24564Y-51214D01*
X24564Y-50157D02*
X24564Y-50500D01*
X24564Y-50328D02*
X23764Y-50328D01*
X23878Y-50385D01*
X23954Y-50443D01*
X23992Y-50500D01*
X23840Y-49929D02*
X23802Y-49900D01*
X23764Y-49843D01*
X23764Y-49700D01*
X23802Y-49643D01*
X23840Y-49614D01*
X23916Y-49586D01*
X23992Y-49586D01*
X24107Y-49614D01*
X24564Y-49957D01*
X24564Y-49586D01*
X24259Y-49329D02*
X24259Y-48872D01*
X23840Y-48615D02*
X23802Y-48586D01*
X23764Y-48529D01*
X23764Y-48386D01*
X23802Y-48329D01*
X23840Y-48300D01*
X23916Y-48272D01*
X23992Y-48272D01*
X24107Y-48300D01*
X24564Y-48643D01*
X24564Y-48272D01*
X23764Y-48072D02*
X23764Y-47701D01*
X24069Y-47901D01*
X24069Y-47815D01*
X24107Y-47758D01*
X24145Y-47729D01*
X24221Y-47701D01*
X24411Y-47701D01*
X24488Y-47729D01*
X24526Y-47758D01*
X24564Y-47815D01*
X24564Y-47987D01*
X24526Y-48044D01*
X24488Y-48072D01*
X24259Y-47444D02*
X24259Y-46987D01*
X23840Y-46730D02*
X23802Y-46701D01*
X23764Y-46644D01*
X23764Y-46501D01*
X23802Y-46444D01*
X23840Y-46415D01*
X23916Y-46387D01*
X23992Y-46387D01*
X24107Y-46415D01*
X24564Y-46758D01*
X24564Y-46387D01*
X23764Y-46016D02*
X23764Y-45959D01*
X23802Y-45902D01*
X23840Y-45873D01*
X23916Y-45844D01*
X24069Y-45816D01*
X24259Y-45816D01*
X24411Y-45844D01*
X24488Y-45873D01*
X24526Y-45902D01*
X24564Y-45959D01*
X24564Y-46016D01*
X24526Y-46073D01*
X24488Y-46102D01*
X24411Y-46130D01*
X24259Y-46159D01*
X24069Y-46159D01*
X23916Y-46130D01*
X23840Y-46102D01*
X23802Y-46073D01*
X23764Y-46016D01*
X24564Y-45245D02*
X24564Y-45588D01*
X24564Y-45416D02*
X23764Y-45416D01*
X23878Y-45473D01*
X23954Y-45531D01*
X23992Y-45588D01*
X24564Y-44674D02*
X24564Y-45017D01*
X24564Y-44845D02*
X23764Y-44845D01*
X23878Y-44902D01*
X23954Y-44960D01*
X23992Y-45017D01*
G54D12*
X23570Y-70490D02*
X23580Y-70490D01*
X23570Y-71130D02*
X23570Y-70490D01*
X58480Y-71130D02*
X23570Y-71130D01*
X58480Y-43050D02*
X58480Y-71130D01*
X23570Y-43050D02*
X58480Y-43050D01*
X23570Y-70590D02*
X23570Y-43050D01*
X38284Y-69000D02*
X38265Y-69191D01*
X38209Y-69374D01*
X38119Y-69544D01*
X37998Y-69693D01*
X37850Y-69815D01*
X37681Y-69907D01*
X37497Y-69963D01*
X37306Y-69983D01*
X37116Y-69966D01*
X36932Y-69912D01*
X36762Y-69823D01*
X36612Y-69703D01*
X36489Y-69555D01*
X36396Y-69387D01*
X36338Y-69204D01*
X36317Y-69013D01*
X36333Y-68823D01*
X36386Y-68638D01*
X36473Y-68467D01*
X36593Y-68317D01*
X36739Y-68192D01*
X36907Y-68099D01*
X37089Y-68039D01*
X37280Y-68017D01*
X37470Y-68031D01*
X37655Y-68083D01*
X37827Y-68170D01*
X37978Y-68288D01*
X38104Y-68433D01*
X38198Y-68600D01*
X38259Y-68782D01*
X38283Y-68973D01*
X38284Y-69000D01*
X35784Y-69000D02*
X35765Y-69191D01*
X35709Y-69374D01*
X35619Y-69544D01*
X35498Y-69693D01*
X35350Y-69815D01*
X35181Y-69907D01*
X34997Y-69963D01*
X34806Y-69983D01*
X34616Y-69966D01*
X34432Y-69912D01*
X34262Y-69823D01*
X34112Y-69703D01*
X33989Y-69555D01*
X33896Y-69387D01*
X33838Y-69204D01*
X33817Y-69013D01*
X33833Y-68823D01*
X33886Y-68638D01*
X33973Y-68467D01*
X34093Y-68317D01*
X34239Y-68192D01*
X34407Y-68099D01*
X34589Y-68039D01*
X34780Y-68017D01*
X34970Y-68031D01*
X35155Y-68083D01*
X35327Y-68170D01*
X35478Y-68288D01*
X35604Y-68433D01*
X35698Y-68600D01*
X35759Y-68782D01*
X35783Y-68973D01*
X35784Y-69000D01*
X57430Y-64710D02*
X49430Y-64710D01*
X49430Y-62710D02*
X57430Y-62710D01*
X57430Y-62710D02*
X57430Y-64710D01*
X57430Y-64210D02*
X56930Y-64210D01*
X56930Y-64210D02*
X56930Y-63210D01*
X56930Y-63210D02*
X57430Y-63210D01*
X49430Y-64710D02*
X49430Y-62710D01*
X49330Y-56510D02*
X57330Y-56510D01*
X57330Y-58510D02*
X49330Y-58510D01*
X49330Y-58510D02*
X49330Y-56510D01*
X49330Y-57010D02*
X49830Y-57010D01*
X49830Y-57010D02*
X49830Y-58010D01*
X49830Y-58010D02*
X49330Y-58010D01*
X57330Y-56510D02*
X57330Y-58510D01*
X24800Y-45600D02*
X25300Y-45600D01*
X25300Y-45600D02*
X25300Y-46600D01*
X25300Y-46600D02*
X24800Y-46600D01*
X24800Y-45100D02*
X35800Y-45100D01*
X35800Y-45100D02*
X35800Y-47100D01*
X35800Y-47100D02*
X24800Y-47100D01*
X24800Y-47100D02*
X24800Y-45100D01*
X34800Y-59600D02*
X35300Y-59600D01*
X35300Y-59600D02*
X35300Y-60600D01*
X35300Y-60600D02*
X34800Y-60600D01*
X34800Y-59100D02*
X45800Y-59100D01*
X45800Y-59100D02*
X45800Y-61100D01*
X45800Y-61100D02*
X34800Y-61100D01*
X34800Y-61100D02*
X34800Y-59100D01*
X45800Y-46600D02*
X45300Y-46600D01*
X45300Y-46600D02*
X45300Y-45600D01*
X45300Y-45600D02*
X45800Y-45600D01*
X45800Y-47100D02*
X34800Y-47100D01*
X34800Y-47100D02*
X34800Y-45100D01*
X34800Y-45100D02*
X45800Y-45100D01*
X45800Y-45100D02*
X45800Y-47100D01*
X24800Y-59600D02*
X25300Y-59600D01*
X25300Y-59600D02*
X25300Y-60600D01*
X25300Y-60600D02*
X24800Y-60600D01*
X24800Y-59100D02*
X35800Y-59100D01*
X35800Y-59100D02*
X35800Y-61100D01*
X35800Y-61100D02*
X24800Y-61100D01*
X24800Y-61100D02*
X24800Y-59100D01*
G54D11*
X33600Y-66100D02*
X31600Y-66100D01*
X33600Y-65100D02*
X31600Y-65100D01*
X33600Y-64100D02*
X31600Y-64100D01*
X31600Y-66600D02*
X31600Y-63100D01*
X31600Y-63100D02*
X25600Y-63100D01*
X25600Y-63100D02*
X25600Y-67100D01*
X31600Y-66600D02*
X31600Y-67100D01*
X28600Y-63600D02*
X28600Y-67100D01*
X28600Y-63600D02*
X28600Y-63100D01*
X31600Y-67100D02*
X25600Y-67100D01*
X37500Y-64100D02*
X39500Y-64100D01*
X37500Y-65100D02*
X39500Y-65100D01*
X37500Y-66100D02*
X39500Y-66100D01*
X39500Y-63600D02*
X39500Y-67100D01*
X39500Y-67100D02*
X45500Y-67100D01*
X45500Y-67100D02*
X45500Y-63100D01*
X39500Y-63600D02*
X39500Y-63100D01*
X42500Y-66600D02*
X42500Y-63100D01*
X42500Y-66600D02*
X42500Y-67100D01*
X39500Y-63100D02*
X45500Y-63100D01*
G54D10*
X30900Y-68300D02*
X31900Y-68300D01*
X31900Y-68300D02*
X31900Y-70300D01*
X31900Y-70300D02*
X30900Y-70300D01*
X30900Y-70300D02*
X30900Y-68300D01*
G54D11*
X26200Y-68200D02*
X26200Y-70200D01*
X26200Y-70200D02*
X24200Y-70200D01*
X24200Y-70200D02*
X24200Y-68200D01*
X24200Y-68200D02*
X26200Y-68200D01*
G54D13*
X44200Y-70200D02*
X41200Y-70200D01*
X41200Y-68200D02*
X44200Y-68200D01*
X44200Y-68200D02*
X44200Y-70200D01*
X41200Y-70200D02*
X41200Y-68200D01*
G54D14*
X55230Y-70880D02*
X51530Y-70880D01*
X51530Y-70880D02*
X51530Y-68240D01*
X51530Y-68240D02*
X55230Y-68240D01*
X55230Y-68240D02*
X55230Y-70880D01*
X54240Y-47770D02*
X57940Y-47770D01*
X57940Y-47770D02*
X57940Y-50410D01*
X57940Y-50410D02*
X54240Y-50410D01*
X54240Y-50410D02*
X54240Y-47770D01*
G54D15*
X52070Y-66870D02*
X52070Y-67770D01*
X52070Y-67770D02*
X52720Y-67770D01*
X53420Y-66870D02*
X54070Y-66870D01*
X54070Y-66870D02*
X54070Y-67770D01*
X54070Y-67770D02*
X53420Y-67770D01*
X52720Y-66870D02*
X52070Y-66870D01*
X37500Y-57550D02*
X37500Y-56650D01*
X37500Y-56650D02*
X36850Y-56650D01*
X36150Y-57550D02*
X35500Y-57550D01*
X35500Y-57550D02*
X35500Y-56650D01*
X35500Y-56650D02*
X36150Y-56650D01*
X36850Y-57550D02*
X37500Y-57550D01*
X25600Y-56650D02*
X25600Y-57550D01*
X25600Y-57550D02*
X26250Y-57550D01*
X26950Y-56650D02*
X27600Y-56650D01*
X27600Y-56650D02*
X27600Y-57550D01*
X27600Y-57550D02*
X26950Y-57550D01*
X26250Y-56650D02*
X25600Y-56650D01*
X30800Y-53550D02*
X30800Y-54450D01*
X30800Y-54450D02*
X31450Y-54450D01*
X32150Y-53550D02*
X32800Y-53550D01*
X32800Y-53550D02*
X32800Y-54450D01*
X32800Y-54450D02*
X32150Y-54450D01*
X31450Y-53550D02*
X30800Y-53550D01*
X30800Y-51450D02*
X30800Y-52350D01*
X30800Y-52350D02*
X31450Y-52350D01*
X32150Y-51450D02*
X32800Y-51450D01*
X32800Y-51450D02*
X32800Y-52350D01*
X32800Y-52350D02*
X32150Y-52350D01*
X31450Y-51450D02*
X30800Y-51450D01*
X27400Y-52350D02*
X27400Y-51450D01*
X27400Y-51450D02*
X26750Y-51450D01*
X26050Y-52350D02*
X25400Y-52350D01*
X25400Y-52350D02*
X25400Y-51450D01*
X25400Y-51450D02*
X26050Y-51450D01*
X26750Y-52350D02*
X27400Y-52350D01*
X56780Y-67860D02*
X55880Y-67860D01*
X55880Y-67860D02*
X55880Y-68510D01*
X56780Y-69210D02*
X56780Y-69860D01*
X56780Y-69860D02*
X55880Y-69860D01*
X55880Y-69860D02*
X55880Y-69210D01*
X56780Y-68510D02*
X56780Y-67860D01*
X37500Y-52350D02*
X37500Y-51450D01*
X37500Y-51450D02*
X36850Y-51450D01*
X36150Y-52350D02*
X35500Y-52350D01*
X35500Y-52350D02*
X35500Y-51450D01*
X35500Y-51450D02*
X36150Y-51450D01*
X36850Y-52350D02*
X37500Y-52350D01*
X34200Y-49250D02*
X34200Y-50150D01*
X34200Y-50150D02*
X34850Y-50150D01*
X35550Y-49250D02*
X36200Y-49250D01*
X36200Y-49250D02*
X36200Y-50150D01*
X36200Y-50150D02*
X35550Y-50150D01*
X34850Y-49250D02*
X34200Y-49250D01*
X30800Y-49250D02*
X30800Y-50150D01*
X30800Y-50150D02*
X31450Y-50150D01*
X32150Y-49250D02*
X32800Y-49250D01*
X32800Y-49250D02*
X32800Y-50150D01*
X32800Y-50150D02*
X32150Y-50150D01*
X31450Y-49250D02*
X30800Y-49250D01*
X45780Y-69040D02*
X45780Y-69940D01*
X45780Y-69940D02*
X46430Y-69940D01*
X47130Y-69040D02*
X47780Y-69040D01*
X47780Y-69040D02*
X47780Y-69940D01*
X47780Y-69940D02*
X47130Y-69940D01*
X46430Y-69040D02*
X45780Y-69040D01*
X45300Y-50150D02*
X45300Y-49250D01*
X45300Y-49250D02*
X44650Y-49250D01*
X43950Y-50150D02*
X43300Y-50150D01*
X43300Y-50150D02*
X43300Y-49250D01*
X43300Y-49250D02*
X43950Y-49250D01*
X44650Y-50150D02*
X45300Y-50150D01*
X57350Y-69860D02*
X58250Y-69860D01*
X58250Y-69860D02*
X58250Y-69210D01*
X57350Y-68510D02*
X57350Y-67860D01*
X57350Y-67860D02*
X58250Y-67860D01*
X58250Y-67860D02*
X58250Y-68510D01*
X57350Y-69210D02*
X57350Y-69860D01*
X41800Y-50150D02*
X41800Y-49250D01*
X41800Y-49250D02*
X41150Y-49250D01*
X40450Y-50150D02*
X39800Y-50150D01*
X39800Y-50150D02*
X39800Y-49250D01*
X39800Y-49250D02*
X40450Y-49250D01*
X41150Y-50150D02*
X41800Y-50150D01*
X37000Y-49250D02*
X37000Y-50150D01*
X37000Y-50150D02*
X37650Y-50150D01*
X38350Y-49250D02*
X39000Y-49250D01*
X39000Y-49250D02*
X39000Y-50150D01*
X39000Y-50150D02*
X38350Y-50150D01*
X37650Y-49250D02*
X37000Y-49250D01*
X41300Y-53550D02*
X41300Y-54450D01*
X41300Y-54450D02*
X41950Y-54450D01*
X42650Y-53550D02*
X43300Y-53550D01*
X43300Y-53550D02*
X43300Y-54450D01*
X43300Y-54450D02*
X42650Y-54450D01*
X41950Y-53550D02*
X41300Y-53550D01*
X35250Y-66500D02*
X36150Y-66500D01*
X36150Y-66500D02*
X36150Y-65850D01*
X35250Y-65150D02*
X35250Y-64500D01*
X35250Y-64500D02*
X36150Y-64500D01*
X36150Y-64500D02*
X36150Y-65150D01*
X35250Y-65850D02*
X35250Y-66500D01*
X41400Y-51450D02*
X41400Y-52350D01*
X41400Y-52350D02*
X42050Y-52350D01*
X42750Y-51450D02*
X43400Y-51450D01*
X43400Y-51450D02*
X43400Y-52350D01*
X43400Y-52350D02*
X42750Y-52350D01*
X42050Y-51450D02*
X41400Y-51450D01*
X27400Y-54350D02*
X27400Y-53450D01*
X27400Y-53450D02*
X26750Y-53450D01*
X26050Y-54350D02*
X25400Y-54350D01*
X25400Y-54350D02*
X25400Y-53450D01*
X25400Y-53450D02*
X26050Y-53450D01*
X26750Y-54350D02*
X27400Y-54350D01*
G54D12*
X60029Y-46257D02*
X60401Y-46257D01*
X60029Y-44163D02*
X60401Y-44163D01*
X56680Y-44163D02*
X58168Y-44163D01*
X56680Y-46257D02*
X58168Y-46257D01*
X59905Y-43953D02*
X60029Y-45315D01*
X58416Y-46467D02*
X58168Y-44163D01*
X58416Y-43953D02*
X58664Y-46467D01*
X58664Y-43953D02*
X58912Y-46467D01*
X58912Y-43953D02*
X59160Y-46467D01*
X59160Y-43953D02*
X59409Y-46467D01*
X59409Y-43953D02*
X59657Y-46467D01*
X59657Y-43953D02*
X59905Y-46467D01*
X59905Y-43953D02*
X60029Y-44163D01*
X60029Y-44163D02*
X60029Y-46257D01*
X60029Y-46257D02*
X59905Y-46467D01*
X59905Y-46467D02*
X58292Y-46467D01*
X58292Y-46467D02*
X58168Y-46257D01*
X58168Y-46257D02*
X58168Y-44163D01*
X58168Y-44163D02*
X58292Y-43953D01*
X58292Y-43953D02*
X59905Y-43953D01*
X60401Y-46257D02*
X60401Y-44163D01*
X56680Y-43970D02*
X56680Y-46450D01*
X56680Y-46450D02*
X54200Y-46450D01*
X54200Y-46450D02*
X54200Y-43970D01*
X54200Y-43970D02*
X56680Y-43970D01*
G54D15*
X51461Y-50470D02*
X51458Y-50491D01*
X51452Y-50512D01*
X51442Y-50531D01*
X51428Y-50548D01*
X51412Y-50562D01*
X51393Y-50572D01*
X51372Y-50578D01*
X51350Y-50580D01*
X51330Y-50579D01*
X51309Y-50572D01*
X51290Y-50562D01*
X51273Y-50549D01*
X51259Y-50532D01*
X51248Y-50513D01*
X51242Y-50493D01*
X51240Y-50471D01*
X51241Y-50450D01*
X51247Y-50430D01*
X51257Y-50410D01*
X51271Y-50393D01*
X51287Y-50379D01*
X51306Y-50369D01*
X51327Y-50362D01*
X51348Y-50360D01*
X51369Y-50361D01*
X51390Y-50367D01*
X51409Y-50377D01*
X51426Y-50390D01*
X51440Y-50407D01*
X51451Y-50425D01*
X51458Y-50446D01*
X51460Y-50467D01*
X51461Y-50470D01*
X53100Y-48970D02*
X51100Y-48970D01*
X51100Y-48970D02*
X51100Y-50770D01*
X51100Y-50770D02*
X53100Y-50770D01*
X53100Y-50770D02*
X53100Y-48970D01*
G54D10*
X38062Y-69000D02*
X38056Y-69052D01*
X38041Y-69102D01*
X38016Y-69149D01*
X37983Y-69190D01*
X37942Y-69223D01*
X37896Y-69248D01*
X37846Y-69264D01*
X37793Y-69269D01*
X37742Y-69265D01*
X37691Y-69250D01*
X37645Y-69225D01*
X37604Y-69192D01*
X37570Y-69152D01*
X37544Y-69106D01*
X37528Y-69056D01*
X37523Y-69003D01*
X37527Y-68952D01*
X37541Y-68901D01*
X37566Y-68854D01*
X37598Y-68813D01*
X37638Y-68779D01*
X37684Y-68753D01*
X37735Y-68737D01*
X37787Y-68731D01*
X37838Y-68735D01*
X37889Y-68749D01*
X37936Y-68773D01*
X37978Y-68805D01*
X38012Y-68845D01*
X38038Y-68891D01*
X38055Y-68941D01*
X38061Y-68993D01*
X38062Y-69000D01*
X37078Y-69000D02*
X37072Y-69052D01*
X37057Y-69102D01*
X37032Y-69149D01*
X36999Y-69190D01*
X36958Y-69223D01*
X36912Y-69248D01*
X36862Y-69264D01*
X36809Y-69269D01*
X36758Y-69265D01*
X36707Y-69250D01*
X36661Y-69225D01*
X36620Y-69192D01*
X36586Y-69152D01*
X36560Y-69106D01*
X36544Y-69056D01*
X36539Y-69003D01*
X36543Y-68952D01*
X36557Y-68901D01*
X36582Y-68854D01*
X36614Y-68813D01*
X36654Y-68779D01*
X36700Y-68753D01*
X36751Y-68737D01*
X36803Y-68731D01*
X36854Y-68735D01*
X36905Y-68749D01*
X36952Y-68773D01*
X36994Y-68805D01*
X37028Y-68845D01*
X37054Y-68891D01*
X37071Y-68941D01*
X37077Y-68993D01*
X37078Y-69000D01*
X34578Y-69000D02*
X34572Y-69052D01*
X34557Y-69102D01*
X34532Y-69149D01*
X34499Y-69190D01*
X34458Y-69223D01*
X34412Y-69248D01*
X34362Y-69264D01*
X34309Y-69269D01*
X34258Y-69265D01*
X34207Y-69250D01*
X34161Y-69225D01*
X34120Y-69192D01*
X34086Y-69152D01*
X34060Y-69106D01*
X34044Y-69056D01*
X34039Y-69003D01*
X34043Y-68952D01*
X34057Y-68901D01*
X34082Y-68854D01*
X34114Y-68813D01*
X34154Y-68779D01*
X34200Y-68753D01*
X34251Y-68737D01*
X34303Y-68731D01*
X34354Y-68735D01*
X34405Y-68749D01*
X34452Y-68773D01*
X34494Y-68805D01*
X34528Y-68845D01*
X34554Y-68891D01*
X34571Y-68941D01*
X34577Y-68993D01*
X34578Y-69000D01*
X35562Y-69000D02*
X35556Y-69052D01*
X35541Y-69102D01*
X35516Y-69149D01*
X35483Y-69190D01*
X35442Y-69223D01*
X35396Y-69248D01*
X35346Y-69264D01*
X35293Y-69269D01*
X35242Y-69265D01*
X35191Y-69250D01*
X35145Y-69225D01*
X35104Y-69192D01*
X35070Y-69152D01*
X35044Y-69106D01*
X35028Y-69056D01*
X35023Y-69003D01*
X35027Y-68952D01*
X35041Y-68901D01*
X35066Y-68854D01*
X35098Y-68813D01*
X35138Y-68779D01*
X35184Y-68753D01*
X35235Y-68737D01*
X35287Y-68731D01*
X35338Y-68735D01*
X35389Y-68749D01*
X35436Y-68773D01*
X35478Y-68805D01*
X35512Y-68845D01*
X35538Y-68891D01*
X35555Y-68941D01*
X35561Y-68993D01*
X35562Y-69000D01*
X56185Y-61965D02*
X56185Y-62455D01*
X56675Y-62455D01*
X56675Y-61965D01*
X56185Y-61965D01*
X55675Y-62210D02*
X55670Y-62257D01*
X55656Y-62303D01*
X55634Y-62345D01*
X55603Y-62382D01*
X55567Y-62413D01*
X55524Y-62435D01*
X55479Y-62449D01*
X55431Y-62454D01*
X55385Y-62450D01*
X55339Y-62437D01*
X55296Y-62415D01*
X55259Y-62385D01*
X55228Y-62348D01*
X55205Y-62306D01*
X55191Y-62260D01*
X55186Y-62213D01*
X55190Y-62166D01*
X55203Y-62120D01*
X55225Y-62078D01*
X55254Y-62040D01*
X55291Y-62009D01*
X55332Y-61986D01*
X55378Y-61971D01*
X55425Y-61966D01*
X55472Y-61969D01*
X55518Y-61982D01*
X55561Y-62004D01*
X55598Y-62033D01*
X55630Y-62069D01*
X55653Y-62111D01*
X55668Y-62156D01*
X55674Y-62204D01*
X55675Y-62210D01*
X54675Y-62210D02*
X54670Y-62257D01*
X54656Y-62303D01*
X54634Y-62345D01*
X54603Y-62382D01*
X54567Y-62413D01*
X54524Y-62435D01*
X54479Y-62449D01*
X54431Y-62454D01*
X54385Y-62450D01*
X54339Y-62437D01*
X54296Y-62415D01*
X54259Y-62385D01*
X54228Y-62348D01*
X54205Y-62306D01*
X54191Y-62260D01*
X54186Y-62213D01*
X54190Y-62166D01*
X54203Y-62120D01*
X54225Y-62078D01*
X54254Y-62040D01*
X54291Y-62009D01*
X54332Y-61986D01*
X54378Y-61971D01*
X54425Y-61966D01*
X54472Y-61969D01*
X54518Y-61982D01*
X54561Y-62004D01*
X54598Y-62033D01*
X54630Y-62069D01*
X54653Y-62111D01*
X54668Y-62156D01*
X54674Y-62204D01*
X54675Y-62210D01*
X53675Y-62210D02*
X53670Y-62257D01*
X53656Y-62303D01*
X53634Y-62345D01*
X53603Y-62382D01*
X53567Y-62413D01*
X53524Y-62435D01*
X53479Y-62449D01*
X53431Y-62454D01*
X53385Y-62450D01*
X53339Y-62437D01*
X53296Y-62415D01*
X53259Y-62385D01*
X53228Y-62348D01*
X53205Y-62306D01*
X53191Y-62260D01*
X53186Y-62213D01*
X53190Y-62166D01*
X53203Y-62120D01*
X53225Y-62078D01*
X53254Y-62040D01*
X53291Y-62009D01*
X53332Y-61986D01*
X53378Y-61971D01*
X53425Y-61966D01*
X53472Y-61969D01*
X53518Y-61982D01*
X53561Y-62004D01*
X53598Y-62033D01*
X53630Y-62069D01*
X53653Y-62111D01*
X53668Y-62156D01*
X53674Y-62204D01*
X53675Y-62210D01*
X52675Y-62210D02*
X52670Y-62257D01*
X52656Y-62303D01*
X52634Y-62345D01*
X52603Y-62382D01*
X52567Y-62413D01*
X52524Y-62435D01*
X52479Y-62449D01*
X52431Y-62454D01*
X52385Y-62450D01*
X52339Y-62437D01*
X52296Y-62415D01*
X52259Y-62385D01*
X52228Y-62348D01*
X52205Y-62306D01*
X52191Y-62260D01*
X52186Y-62213D01*
X52190Y-62166D01*
X52203Y-62120D01*
X52225Y-62078D01*
X52254Y-62040D01*
X52291Y-62009D01*
X52332Y-61986D01*
X52378Y-61971D01*
X52425Y-61966D01*
X52472Y-61969D01*
X52518Y-61982D01*
X52561Y-62004D01*
X52598Y-62033D01*
X52630Y-62069D01*
X52653Y-62111D01*
X52668Y-62156D01*
X52674Y-62204D01*
X52675Y-62210D01*
X51675Y-62210D02*
X51670Y-62257D01*
X51656Y-62303D01*
X51634Y-62345D01*
X51603Y-62382D01*
X51567Y-62413D01*
X51524Y-62435D01*
X51479Y-62449D01*
X51431Y-62454D01*
X51385Y-62450D01*
X51339Y-62437D01*
X51296Y-62415D01*
X51259Y-62385D01*
X51228Y-62348D01*
X51205Y-62306D01*
X51191Y-62260D01*
X51186Y-62213D01*
X51190Y-62166D01*
X51203Y-62120D01*
X51225Y-62078D01*
X51254Y-62040D01*
X51291Y-62009D01*
X51332Y-61986D01*
X51378Y-61971D01*
X51425Y-61966D01*
X51472Y-61969D01*
X51518Y-61982D01*
X51561Y-62004D01*
X51598Y-62033D01*
X51630Y-62069D01*
X51653Y-62111D01*
X51668Y-62156D01*
X51674Y-62204D01*
X51675Y-62210D01*
X50675Y-62210D02*
X50670Y-62257D01*
X50656Y-62303D01*
X50634Y-62345D01*
X50603Y-62382D01*
X50567Y-62413D01*
X50524Y-62435D01*
X50479Y-62449D01*
X50431Y-62454D01*
X50385Y-62450D01*
X50339Y-62437D01*
X50296Y-62415D01*
X50259Y-62385D01*
X50228Y-62348D01*
X50205Y-62306D01*
X50191Y-62260D01*
X50186Y-62213D01*
X50190Y-62166D01*
X50203Y-62120D01*
X50225Y-62078D01*
X50254Y-62040D01*
X50291Y-62009D01*
X50332Y-61986D01*
X50378Y-61971D01*
X50425Y-61966D01*
X50472Y-61969D01*
X50518Y-61982D01*
X50561Y-62004D01*
X50598Y-62033D01*
X50630Y-62069D01*
X50653Y-62111D01*
X50668Y-62156D01*
X50674Y-62204D01*
X50675Y-62210D01*
X50675Y-65210D02*
X50670Y-65257D01*
X50656Y-65303D01*
X50634Y-65345D01*
X50603Y-65382D01*
X50567Y-65413D01*
X50524Y-65435D01*
X50479Y-65449D01*
X50431Y-65454D01*
X50385Y-65450D01*
X50339Y-65437D01*
X50296Y-65415D01*
X50259Y-65385D01*
X50228Y-65348D01*
X50205Y-65306D01*
X50191Y-65260D01*
X50186Y-65213D01*
X50190Y-65166D01*
X50203Y-65120D01*
X50225Y-65078D01*
X50254Y-65040D01*
X50291Y-65009D01*
X50332Y-64986D01*
X50378Y-64971D01*
X50425Y-64966D01*
X50472Y-64969D01*
X50518Y-64982D01*
X50561Y-65004D01*
X50598Y-65033D01*
X50630Y-65069D01*
X50653Y-65111D01*
X50668Y-65156D01*
X50674Y-65204D01*
X50675Y-65210D01*
X51675Y-65210D02*
X51670Y-65257D01*
X51656Y-65303D01*
X51634Y-65345D01*
X51603Y-65382D01*
X51567Y-65413D01*
X51524Y-65435D01*
X51479Y-65449D01*
X51431Y-65454D01*
X51385Y-65450D01*
X51339Y-65437D01*
X51296Y-65415D01*
X51259Y-65385D01*
X51228Y-65348D01*
X51205Y-65306D01*
X51191Y-65260D01*
X51186Y-65213D01*
X51190Y-65166D01*
X51203Y-65120D01*
X51225Y-65078D01*
X51254Y-65040D01*
X51291Y-65009D01*
X51332Y-64986D01*
X51378Y-64971D01*
X51425Y-64966D01*
X51472Y-64969D01*
X51518Y-64982D01*
X51561Y-65004D01*
X51598Y-65033D01*
X51630Y-65069D01*
X51653Y-65111D01*
X51668Y-65156D01*
X51674Y-65204D01*
X51675Y-65210D01*
X52675Y-65210D02*
X52670Y-65257D01*
X52656Y-65303D01*
X52634Y-65345D01*
X52603Y-65382D01*
X52567Y-65413D01*
X52524Y-65435D01*
X52479Y-65449D01*
X52431Y-65454D01*
X52385Y-65450D01*
X52339Y-65437D01*
X52296Y-65415D01*
X52259Y-65385D01*
X52228Y-65348D01*
X52205Y-65306D01*
X52191Y-65260D01*
X52186Y-65213D01*
X52190Y-65166D01*
X52203Y-65120D01*
X52225Y-65078D01*
X52254Y-65040D01*
X52291Y-65009D01*
X52332Y-64986D01*
X52378Y-64971D01*
X52425Y-64966D01*
X52472Y-64969D01*
X52518Y-64982D01*
X52561Y-65004D01*
X52598Y-65033D01*
X52630Y-65069D01*
X52653Y-65111D01*
X52668Y-65156D01*
X52674Y-65204D01*
X52675Y-65210D01*
X53675Y-65210D02*
X53670Y-65257D01*
X53656Y-65303D01*
X53634Y-65345D01*
X53603Y-65382D01*
X53567Y-65413D01*
X53524Y-65435D01*
X53479Y-65449D01*
X53431Y-65454D01*
X53385Y-65450D01*
X53339Y-65437D01*
X53296Y-65415D01*
X53259Y-65385D01*
X53228Y-65348D01*
X53205Y-65306D01*
X53191Y-65260D01*
X53186Y-65213D01*
X53190Y-65166D01*
X53203Y-65120D01*
X53225Y-65078D01*
X53254Y-65040D01*
X53291Y-65009D01*
X53332Y-64986D01*
X53378Y-64971D01*
X53425Y-64966D01*
X53472Y-64969D01*
X53518Y-64982D01*
X53561Y-65004D01*
X53598Y-65033D01*
X53630Y-65069D01*
X53653Y-65111D01*
X53668Y-65156D01*
X53674Y-65204D01*
X53675Y-65210D01*
X54675Y-65210D02*
X54670Y-65257D01*
X54656Y-65303D01*
X54634Y-65345D01*
X54603Y-65382D01*
X54567Y-65413D01*
X54524Y-65435D01*
X54479Y-65449D01*
X54431Y-65454D01*
X54385Y-65450D01*
X54339Y-65437D01*
X54296Y-65415D01*
X54259Y-65385D01*
X54228Y-65348D01*
X54205Y-65306D01*
X54191Y-65260D01*
X54186Y-65213D01*
X54190Y-65166D01*
X54203Y-65120D01*
X54225Y-65078D01*
X54254Y-65040D01*
X54291Y-65009D01*
X54332Y-64986D01*
X54378Y-64971D01*
X54425Y-64966D01*
X54472Y-64969D01*
X54518Y-64982D01*
X54561Y-65004D01*
X54598Y-65033D01*
X54630Y-65069D01*
X54653Y-65111D01*
X54668Y-65156D01*
X54674Y-65204D01*
X54675Y-65210D01*
X55675Y-65210D02*
X55670Y-65257D01*
X55656Y-65303D01*
X55634Y-65345D01*
X55603Y-65382D01*
X55567Y-65413D01*
X55524Y-65435D01*
X55479Y-65449D01*
X55431Y-65454D01*
X55385Y-65450D01*
X55339Y-65437D01*
X55296Y-65415D01*
X55259Y-65385D01*
X55228Y-65348D01*
X55205Y-65306D01*
X55191Y-65260D01*
X55186Y-65213D01*
X55190Y-65166D01*
X55203Y-65120D01*
X55225Y-65078D01*
X55254Y-65040D01*
X55291Y-65009D01*
X55332Y-64986D01*
X55378Y-64971D01*
X55425Y-64966D01*
X55472Y-64969D01*
X55518Y-64982D01*
X55561Y-65004D01*
X55598Y-65033D01*
X55630Y-65069D01*
X55653Y-65111D01*
X55668Y-65156D01*
X55674Y-65204D01*
X55675Y-65210D01*
X56675Y-65210D02*
X56670Y-65257D01*
X56656Y-65303D01*
X56634Y-65345D01*
X56603Y-65382D01*
X56567Y-65413D01*
X56524Y-65435D01*
X56479Y-65449D01*
X56431Y-65454D01*
X56385Y-65450D01*
X56339Y-65437D01*
X56296Y-65415D01*
X56259Y-65385D01*
X56228Y-65348D01*
X56205Y-65306D01*
X56191Y-65260D01*
X56186Y-65213D01*
X56190Y-65166D01*
X56203Y-65120D01*
X56225Y-65078D01*
X56254Y-65040D01*
X56291Y-65009D01*
X56332Y-64986D01*
X56378Y-64971D01*
X56425Y-64966D01*
X56472Y-64969D01*
X56518Y-64982D01*
X56561Y-65004D01*
X56598Y-65033D01*
X56630Y-65069D01*
X56653Y-65111D01*
X56668Y-65156D01*
X56674Y-65204D01*
X56675Y-65210D01*
X50085Y-58765D02*
X50085Y-59255D01*
X50575Y-59255D01*
X50575Y-58765D01*
X50085Y-58765D01*
X51575Y-59010D02*
X51570Y-59057D01*
X51556Y-59103D01*
X51534Y-59145D01*
X51503Y-59182D01*
X51467Y-59213D01*
X51424Y-59235D01*
X51379Y-59249D01*
X51331Y-59254D01*
X51285Y-59250D01*
X51239Y-59237D01*
X51196Y-59215D01*
X51159Y-59185D01*
X51128Y-59148D01*
X51105Y-59106D01*
X51091Y-59060D01*
X51086Y-59013D01*
X51090Y-58966D01*
X51103Y-58920D01*
X51125Y-58878D01*
X51154Y-58840D01*
X51191Y-58809D01*
X51232Y-58786D01*
X51278Y-58771D01*
X51325Y-58766D01*
X51372Y-58769D01*
X51418Y-58782D01*
X51461Y-58804D01*
X51498Y-58833D01*
X51530Y-58869D01*
X51553Y-58911D01*
X51568Y-58956D01*
X51574Y-59004D01*
X51575Y-59010D01*
X52575Y-59010D02*
X52570Y-59057D01*
X52556Y-59103D01*
X52534Y-59145D01*
X52503Y-59182D01*
X52467Y-59213D01*
X52424Y-59235D01*
X52379Y-59249D01*
X52331Y-59254D01*
X52285Y-59250D01*
X52239Y-59237D01*
X52196Y-59215D01*
X52159Y-59185D01*
X52128Y-59148D01*
X52105Y-59106D01*
X52091Y-59060D01*
X52086Y-59013D01*
X52090Y-58966D01*
X52103Y-58920D01*
X52125Y-58878D01*
X52154Y-58840D01*
X52191Y-58809D01*
X52232Y-58786D01*
X52278Y-58771D01*
X52325Y-58766D01*
X52372Y-58769D01*
X52418Y-58782D01*
X52461Y-58804D01*
X52498Y-58833D01*
X52530Y-58869D01*
X52553Y-58911D01*
X52568Y-58956D01*
X52574Y-59004D01*
X52575Y-59010D01*
X53575Y-59010D02*
X53570Y-59057D01*
X53556Y-59103D01*
X53534Y-59145D01*
X53503Y-59182D01*
X53467Y-59213D01*
X53424Y-59235D01*
X53379Y-59249D01*
X53331Y-59254D01*
X53285Y-59250D01*
X53239Y-59237D01*
X53196Y-59215D01*
X53159Y-59185D01*
X53128Y-59148D01*
X53105Y-59106D01*
X53091Y-59060D01*
X53086Y-59013D01*
X53090Y-58966D01*
X53103Y-58920D01*
X53125Y-58878D01*
X53154Y-58840D01*
X53191Y-58809D01*
X53232Y-58786D01*
X53278Y-58771D01*
X53325Y-58766D01*
X53372Y-58769D01*
X53418Y-58782D01*
X53461Y-58804D01*
X53498Y-58833D01*
X53530Y-58869D01*
X53553Y-58911D01*
X53568Y-58956D01*
X53574Y-59004D01*
X53575Y-59010D01*
X54575Y-59010D02*
X54570Y-59057D01*
X54556Y-59103D01*
X54534Y-59145D01*
X54503Y-59182D01*
X54467Y-59213D01*
X54424Y-59235D01*
X54379Y-59249D01*
X54331Y-59254D01*
X54285Y-59250D01*
X54239Y-59237D01*
X54196Y-59215D01*
X54159Y-59185D01*
X54128Y-59148D01*
X54105Y-59106D01*
X54091Y-59060D01*
X54086Y-59013D01*
X54090Y-58966D01*
X54103Y-58920D01*
X54125Y-58878D01*
X54154Y-58840D01*
X54191Y-58809D01*
X54232Y-58786D01*
X54278Y-58771D01*
X54325Y-58766D01*
X54372Y-58769D01*
X54418Y-58782D01*
X54461Y-58804D01*
X54498Y-58833D01*
X54530Y-58869D01*
X54553Y-58911D01*
X54568Y-58956D01*
X54574Y-59004D01*
X54575Y-59010D01*
X55575Y-59010D02*
X55570Y-59057D01*
X55556Y-59103D01*
X55534Y-59145D01*
X55503Y-59182D01*
X55467Y-59213D01*
X55424Y-59235D01*
X55379Y-59249D01*
X55331Y-59254D01*
X55285Y-59250D01*
X55239Y-59237D01*
X55196Y-59215D01*
X55159Y-59185D01*
X55128Y-59148D01*
X55105Y-59106D01*
X55091Y-59060D01*
X55086Y-59013D01*
X55090Y-58966D01*
X55103Y-58920D01*
X55125Y-58878D01*
X55154Y-58840D01*
X55191Y-58809D01*
X55232Y-58786D01*
X55278Y-58771D01*
X55325Y-58766D01*
X55372Y-58769D01*
X55418Y-58782D01*
X55461Y-58804D01*
X55498Y-58833D01*
X55530Y-58869D01*
X55553Y-58911D01*
X55568Y-58956D01*
X55574Y-59004D01*
X55575Y-59010D01*
X56575Y-59010D02*
X56570Y-59057D01*
X56556Y-59103D01*
X56534Y-59145D01*
X56503Y-59182D01*
X56467Y-59213D01*
X56424Y-59235D01*
X56379Y-59249D01*
X56331Y-59254D01*
X56285Y-59250D01*
X56239Y-59237D01*
X56196Y-59215D01*
X56159Y-59185D01*
X56128Y-59148D01*
X56105Y-59106D01*
X56091Y-59060D01*
X56086Y-59013D01*
X56090Y-58966D01*
X56103Y-58920D01*
X56125Y-58878D01*
X56154Y-58840D01*
X56191Y-58809D01*
X56232Y-58786D01*
X56278Y-58771D01*
X56325Y-58766D01*
X56372Y-58769D01*
X56418Y-58782D01*
X56461Y-58804D01*
X56498Y-58833D01*
X56530Y-58869D01*
X56553Y-58911D01*
X56568Y-58956D01*
X56574Y-59004D01*
X56575Y-59010D01*
X56575Y-56010D02*
X56570Y-56057D01*
X56556Y-56103D01*
X56534Y-56145D01*
X56503Y-56182D01*
X56467Y-56213D01*
X56424Y-56235D01*
X56379Y-56249D01*
X56331Y-56254D01*
X56285Y-56250D01*
X56239Y-56237D01*
X56196Y-56215D01*
X56159Y-56185D01*
X56128Y-56148D01*
X56105Y-56106D01*
X56091Y-56060D01*
X56086Y-56013D01*
X56090Y-55966D01*
X56103Y-55920D01*
X56125Y-55878D01*
X56154Y-55840D01*
X56191Y-55809D01*
X56232Y-55786D01*
X56278Y-55771D01*
X56325Y-55766D01*
X56372Y-55769D01*
X56418Y-55782D01*
X56461Y-55804D01*
X56498Y-55833D01*
X56530Y-55869D01*
X56553Y-55911D01*
X56568Y-55956D01*
X56574Y-56004D01*
X56575Y-56010D01*
X55575Y-56010D02*
X55570Y-56057D01*
X55556Y-56103D01*
X55534Y-56145D01*
X55503Y-56182D01*
X55467Y-56213D01*
X55424Y-56235D01*
X55379Y-56249D01*
X55331Y-56254D01*
X55285Y-56250D01*
X55239Y-56237D01*
X55196Y-56215D01*
X55159Y-56185D01*
X55128Y-56148D01*
X55105Y-56106D01*
X55091Y-56060D01*
X55086Y-56013D01*
X55090Y-55966D01*
X55103Y-55920D01*
X55125Y-55878D01*
X55154Y-55840D01*
X55191Y-55809D01*
X55232Y-55786D01*
X55278Y-55771D01*
X55325Y-55766D01*
X55372Y-55769D01*
X55418Y-55782D01*
X55461Y-55804D01*
X55498Y-55833D01*
X55530Y-55869D01*
X55553Y-55911D01*
X55568Y-55956D01*
X55574Y-56004D01*
X55575Y-56010D01*
X54575Y-56010D02*
X54570Y-56057D01*
X54556Y-56103D01*
X54534Y-56145D01*
X54503Y-56182D01*
X54467Y-56213D01*
X54424Y-56235D01*
X54379Y-56249D01*
X54331Y-56254D01*
X54285Y-56250D01*
X54239Y-56237D01*
X54196Y-56215D01*
X54159Y-56185D01*
X54128Y-56148D01*
X54105Y-56106D01*
X54091Y-56060D01*
X54086Y-56013D01*
X54090Y-55966D01*
X54103Y-55920D01*
X54125Y-55878D01*
X54154Y-55840D01*
X54191Y-55809D01*
X54232Y-55786D01*
X54278Y-55771D01*
X54325Y-55766D01*
X54372Y-55769D01*
X54418Y-55782D01*
X54461Y-55804D01*
X54498Y-55833D01*
X54530Y-55869D01*
X54553Y-55911D01*
X54568Y-55956D01*
X54574Y-56004D01*
X54575Y-56010D01*
X53575Y-56010D02*
X53570Y-56057D01*
X53556Y-56103D01*
X53534Y-56145D01*
X53503Y-56182D01*
X53467Y-56213D01*
X53424Y-56235D01*
X53379Y-56249D01*
X53331Y-56254D01*
X53285Y-56250D01*
X53239Y-56237D01*
X53196Y-56215D01*
X53159Y-56185D01*
X53128Y-56148D01*
X53105Y-56106D01*
X53091Y-56060D01*
X53086Y-56013D01*
X53090Y-55966D01*
X53103Y-55920D01*
X53125Y-55878D01*
X53154Y-55840D01*
X53191Y-55809D01*
X53232Y-55786D01*
X53278Y-55771D01*
X53325Y-55766D01*
X53372Y-55769D01*
X53418Y-55782D01*
X53461Y-55804D01*
X53498Y-55833D01*
X53530Y-55869D01*
X53553Y-55911D01*
X53568Y-55956D01*
X53574Y-56004D01*
X53575Y-56010D01*
X52575Y-56010D02*
X52570Y-56057D01*
X52556Y-56103D01*
X52534Y-56145D01*
X52503Y-56182D01*
X52467Y-56213D01*
X52424Y-56235D01*
X52379Y-56249D01*
X52331Y-56254D01*
X52285Y-56250D01*
X52239Y-56237D01*
X52196Y-56215D01*
X52159Y-56185D01*
X52128Y-56148D01*
X52105Y-56106D01*
X52091Y-56060D01*
X52086Y-56013D01*
X52090Y-55966D01*
X52103Y-55920D01*
X52125Y-55878D01*
X52154Y-55840D01*
X52191Y-55809D01*
X52232Y-55786D01*
X52278Y-55771D01*
X52325Y-55766D01*
X52372Y-55769D01*
X52418Y-55782D01*
X52461Y-55804D01*
X52498Y-55833D01*
X52530Y-55869D01*
X52553Y-55911D01*
X52568Y-55956D01*
X52574Y-56004D01*
X52575Y-56010D01*
X51575Y-56010D02*
X51570Y-56057D01*
X51556Y-56103D01*
X51534Y-56145D01*
X51503Y-56182D01*
X51467Y-56213D01*
X51424Y-56235D01*
X51379Y-56249D01*
X51331Y-56254D01*
X51285Y-56250D01*
X51239Y-56237D01*
X51196Y-56215D01*
X51159Y-56185D01*
X51128Y-56148D01*
X51105Y-56106D01*
X51091Y-56060D01*
X51086Y-56013D01*
X51090Y-55966D01*
X51103Y-55920D01*
X51125Y-55878D01*
X51154Y-55840D01*
X51191Y-55809D01*
X51232Y-55786D01*
X51278Y-55771D01*
X51325Y-55766D01*
X51372Y-55769D01*
X51418Y-55782D01*
X51461Y-55804D01*
X51498Y-55833D01*
X51530Y-55869D01*
X51553Y-55911D01*
X51568Y-55956D01*
X51574Y-56004D01*
X51575Y-56010D01*
X50575Y-56010D02*
X50570Y-56057D01*
X50556Y-56103D01*
X50534Y-56145D01*
X50503Y-56182D01*
X50467Y-56213D01*
X50424Y-56235D01*
X50379Y-56249D01*
X50331Y-56254D01*
X50285Y-56250D01*
X50239Y-56237D01*
X50196Y-56215D01*
X50159Y-56185D01*
X50128Y-56148D01*
X50105Y-56106D01*
X50091Y-56060D01*
X50086Y-56013D01*
X50090Y-55966D01*
X50103Y-55920D01*
X50125Y-55878D01*
X50154Y-55840D01*
X50191Y-55809D01*
X50232Y-55786D01*
X50278Y-55771D01*
X50325Y-55766D01*
X50372Y-55769D01*
X50418Y-55782D01*
X50461Y-55804D01*
X50498Y-55833D01*
X50530Y-55869D01*
X50553Y-55911D01*
X50568Y-55956D01*
X50574Y-56004D01*
X50575Y-56010D01*
X25555Y-47355D02*
X25555Y-47845D01*
X26045Y-47845D01*
X26045Y-47355D01*
X25555Y-47355D01*
X27045Y-47600D02*
X27040Y-47647D01*
X27026Y-47693D01*
X27004Y-47735D01*
X26973Y-47772D01*
X26937Y-47803D01*
X26894Y-47825D01*
X26849Y-47839D01*
X26801Y-47844D01*
X26755Y-47840D01*
X26709Y-47827D01*
X26666Y-47805D01*
X26629Y-47775D01*
X26598Y-47738D01*
X26575Y-47696D01*
X26561Y-47650D01*
X26556Y-47603D01*
X26560Y-47556D01*
X26573Y-47510D01*
X26595Y-47468D01*
X26624Y-47430D01*
X26661Y-47399D01*
X26702Y-47376D01*
X26748Y-47361D01*
X26795Y-47356D01*
X26842Y-47359D01*
X26888Y-47372D01*
X26931Y-47394D01*
X26968Y-47423D01*
X27000Y-47459D01*
X27023Y-47501D01*
X27038Y-47546D01*
X27044Y-47594D01*
X27045Y-47600D01*
X28045Y-47600D02*
X28040Y-47647D01*
X28026Y-47693D01*
X28004Y-47735D01*
X27973Y-47772D01*
X27937Y-47803D01*
X27894Y-47825D01*
X27849Y-47839D01*
X27801Y-47844D01*
X27755Y-47840D01*
X27709Y-47827D01*
X27666Y-47805D01*
X27629Y-47775D01*
X27598Y-47738D01*
X27575Y-47696D01*
X27561Y-47650D01*
X27556Y-47603D01*
X27560Y-47556D01*
X27573Y-47510D01*
X27595Y-47468D01*
X27624Y-47430D01*
X27661Y-47399D01*
X27702Y-47376D01*
X27748Y-47361D01*
X27795Y-47356D01*
X27842Y-47359D01*
X27888Y-47372D01*
X27931Y-47394D01*
X27968Y-47423D01*
X28000Y-47459D01*
X28023Y-47501D01*
X28038Y-47546D01*
X28044Y-47594D01*
X28045Y-47600D01*
X29045Y-47600D02*
X29040Y-47647D01*
X29026Y-47693D01*
X29004Y-47735D01*
X28973Y-47772D01*
X28937Y-47803D01*
X28894Y-47825D01*
X28849Y-47839D01*
X28801Y-47844D01*
X28755Y-47840D01*
X28709Y-47827D01*
X28666Y-47805D01*
X28629Y-47775D01*
X28598Y-47738D01*
X28575Y-47696D01*
X28561Y-47650D01*
X28556Y-47603D01*
X28560Y-47556D01*
X28573Y-47510D01*
X28595Y-47468D01*
X28624Y-47430D01*
X28661Y-47399D01*
X28702Y-47376D01*
X28748Y-47361D01*
X28795Y-47356D01*
X28842Y-47359D01*
X28888Y-47372D01*
X28931Y-47394D01*
X28968Y-47423D01*
X29000Y-47459D01*
X29023Y-47501D01*
X29038Y-47546D01*
X29044Y-47594D01*
X29045Y-47600D01*
X30045Y-47600D02*
X30040Y-47647D01*
X30026Y-47693D01*
X30004Y-47735D01*
X29973Y-47772D01*
X29937Y-47803D01*
X29894Y-47825D01*
X29849Y-47839D01*
X29801Y-47844D01*
X29755Y-47840D01*
X29709Y-47827D01*
X29666Y-47805D01*
X29629Y-47775D01*
X29598Y-47738D01*
X29575Y-47696D01*
X29561Y-47650D01*
X29556Y-47603D01*
X29560Y-47556D01*
X29573Y-47510D01*
X29595Y-47468D01*
X29624Y-47430D01*
X29661Y-47399D01*
X29702Y-47376D01*
X29748Y-47361D01*
X29795Y-47356D01*
X29842Y-47359D01*
X29888Y-47372D01*
X29931Y-47394D01*
X29968Y-47423D01*
X30000Y-47459D01*
X30023Y-47501D01*
X30038Y-47546D01*
X30044Y-47594D01*
X30045Y-47600D01*
X31045Y-47600D02*
X31040Y-47647D01*
X31026Y-47693D01*
X31004Y-47735D01*
X30973Y-47772D01*
X30937Y-47803D01*
X30894Y-47825D01*
X30849Y-47839D01*
X30801Y-47844D01*
X30755Y-47840D01*
X30709Y-47827D01*
X30666Y-47805D01*
X30629Y-47775D01*
X30598Y-47738D01*
X30575Y-47696D01*
X30561Y-47650D01*
X30556Y-47603D01*
X30560Y-47556D01*
X30573Y-47510D01*
X30595Y-47468D01*
X30624Y-47430D01*
X30661Y-47399D01*
X30702Y-47376D01*
X30748Y-47361D01*
X30795Y-47356D01*
X30842Y-47359D01*
X30888Y-47372D01*
X30931Y-47394D01*
X30968Y-47423D01*
X31000Y-47459D01*
X31023Y-47501D01*
X31038Y-47546D01*
X31044Y-47594D01*
X31045Y-47600D01*
X32045Y-47600D02*
X32040Y-47647D01*
X32026Y-47693D01*
X32004Y-47735D01*
X31973Y-47772D01*
X31937Y-47803D01*
X31894Y-47825D01*
X31849Y-47839D01*
X31801Y-47844D01*
X31755Y-47840D01*
X31709Y-47827D01*
X31666Y-47805D01*
X31629Y-47775D01*
X31598Y-47738D01*
X31575Y-47696D01*
X31561Y-47650D01*
X31556Y-47603D01*
X31560Y-47556D01*
X31573Y-47510D01*
X31595Y-47468D01*
X31624Y-47430D01*
X31661Y-47399D01*
X31702Y-47376D01*
X31748Y-47361D01*
X31795Y-47356D01*
X31842Y-47359D01*
X31888Y-47372D01*
X31931Y-47394D01*
X31968Y-47423D01*
X32000Y-47459D01*
X32023Y-47501D01*
X32038Y-47546D01*
X32044Y-47594D01*
X32045Y-47600D01*
X33045Y-47600D02*
X33040Y-47647D01*
X33026Y-47693D01*
X33004Y-47735D01*
X32973Y-47772D01*
X32937Y-47803D01*
X32894Y-47825D01*
X32849Y-47839D01*
X32801Y-47844D01*
X32755Y-47840D01*
X32709Y-47827D01*
X32666Y-47805D01*
X32629Y-47775D01*
X32598Y-47738D01*
X32575Y-47696D01*
X32561Y-47650D01*
X32556Y-47603D01*
X32560Y-47556D01*
X32573Y-47510D01*
X32595Y-47468D01*
X32624Y-47430D01*
X32661Y-47399D01*
X32702Y-47376D01*
X32748Y-47361D01*
X32795Y-47356D01*
X32842Y-47359D01*
X32888Y-47372D01*
X32931Y-47394D01*
X32968Y-47423D01*
X33000Y-47459D01*
X33023Y-47501D01*
X33038Y-47546D01*
X33044Y-47594D01*
X33045Y-47600D01*
X34045Y-47600D02*
X34040Y-47647D01*
X34026Y-47693D01*
X34004Y-47735D01*
X33973Y-47772D01*
X33937Y-47803D01*
X33894Y-47825D01*
X33849Y-47839D01*
X33801Y-47844D01*
X33755Y-47840D01*
X33709Y-47827D01*
X33666Y-47805D01*
X33629Y-47775D01*
X33598Y-47738D01*
X33575Y-47696D01*
X33561Y-47650D01*
X33556Y-47603D01*
X33560Y-47556D01*
X33573Y-47510D01*
X33595Y-47468D01*
X33624Y-47430D01*
X33661Y-47399D01*
X33702Y-47376D01*
X33748Y-47361D01*
X33795Y-47356D01*
X33842Y-47359D01*
X33888Y-47372D01*
X33931Y-47394D01*
X33968Y-47423D01*
X34000Y-47459D01*
X34023Y-47501D01*
X34038Y-47546D01*
X34044Y-47594D01*
X34045Y-47600D01*
X35045Y-47600D02*
X35040Y-47647D01*
X35026Y-47693D01*
X35004Y-47735D01*
X34973Y-47772D01*
X34937Y-47803D01*
X34894Y-47825D01*
X34849Y-47839D01*
X34801Y-47844D01*
X34755Y-47840D01*
X34709Y-47827D01*
X34666Y-47805D01*
X34629Y-47775D01*
X34598Y-47738D01*
X34575Y-47696D01*
X34561Y-47650D01*
X34556Y-47603D01*
X34560Y-47556D01*
X34573Y-47510D01*
X34595Y-47468D01*
X34624Y-47430D01*
X34661Y-47399D01*
X34702Y-47376D01*
X34748Y-47361D01*
X34795Y-47356D01*
X34842Y-47359D01*
X34888Y-47372D01*
X34931Y-47394D01*
X34968Y-47423D01*
X35000Y-47459D01*
X35023Y-47501D01*
X35038Y-47546D01*
X35044Y-47594D01*
X35045Y-47600D01*
X35045Y-44600D02*
X35040Y-44647D01*
X35026Y-44693D01*
X35004Y-44735D01*
X34973Y-44772D01*
X34937Y-44803D01*
X34894Y-44825D01*
X34849Y-44839D01*
X34801Y-44844D01*
X34755Y-44840D01*
X34709Y-44827D01*
X34666Y-44805D01*
X34629Y-44775D01*
X34598Y-44738D01*
X34575Y-44696D01*
X34561Y-44650D01*
X34556Y-44603D01*
X34560Y-44556D01*
X34573Y-44510D01*
X34595Y-44468D01*
X34624Y-44430D01*
X34661Y-44399D01*
X34702Y-44376D01*
X34748Y-44361D01*
X34795Y-44356D01*
X34842Y-44359D01*
X34888Y-44372D01*
X34931Y-44394D01*
X34968Y-44423D01*
X35000Y-44459D01*
X35023Y-44501D01*
X35038Y-44546D01*
X35044Y-44594D01*
X35045Y-44600D01*
X34045Y-44600D02*
X34040Y-44647D01*
X34026Y-44693D01*
X34004Y-44735D01*
X33973Y-44772D01*
X33937Y-44803D01*
X33894Y-44825D01*
X33849Y-44839D01*
X33801Y-44844D01*
X33755Y-44840D01*
X33709Y-44827D01*
X33666Y-44805D01*
X33629Y-44775D01*
X33598Y-44738D01*
X33575Y-44696D01*
X33561Y-44650D01*
X33556Y-44603D01*
X33560Y-44556D01*
X33573Y-44510D01*
X33595Y-44468D01*
X33624Y-44430D01*
X33661Y-44399D01*
X33702Y-44376D01*
X33748Y-44361D01*
X33795Y-44356D01*
X33842Y-44359D01*
X33888Y-44372D01*
X33931Y-44394D01*
X33968Y-44423D01*
X34000Y-44459D01*
X34023Y-44501D01*
X34038Y-44546D01*
X34044Y-44594D01*
X34045Y-44600D01*
X33045Y-44600D02*
X33040Y-44647D01*
X33026Y-44693D01*
X33004Y-44735D01*
X32973Y-44772D01*
X32937Y-44803D01*
X32894Y-44825D01*
X32849Y-44839D01*
X32801Y-44844D01*
X32755Y-44840D01*
X32709Y-44827D01*
X32666Y-44805D01*
X32629Y-44775D01*
X32598Y-44738D01*
X32575Y-44696D01*
X32561Y-44650D01*
X32556Y-44603D01*
X32560Y-44556D01*
X32573Y-44510D01*
X32595Y-44468D01*
X32624Y-44430D01*
X32661Y-44399D01*
X32702Y-44376D01*
X32748Y-44361D01*
X32795Y-44356D01*
X32842Y-44359D01*
X32888Y-44372D01*
X32931Y-44394D01*
X32968Y-44423D01*
X33000Y-44459D01*
X33023Y-44501D01*
X33038Y-44546D01*
X33044Y-44594D01*
X33045Y-44600D01*
X32045Y-44600D02*
X32040Y-44647D01*
X32026Y-44693D01*
X32004Y-44735D01*
X31973Y-44772D01*
X31937Y-44803D01*
X31894Y-44825D01*
X31849Y-44839D01*
X31801Y-44844D01*
X31755Y-44840D01*
X31709Y-44827D01*
X31666Y-44805D01*
X31629Y-44775D01*
X31598Y-44738D01*
X31575Y-44696D01*
X31561Y-44650D01*
X31556Y-44603D01*
X31560Y-44556D01*
X31573Y-44510D01*
X31595Y-44468D01*
X31624Y-44430D01*
X31661Y-44399D01*
X31702Y-44376D01*
X31748Y-44361D01*
X31795Y-44356D01*
X31842Y-44359D01*
X31888Y-44372D01*
X31931Y-44394D01*
X31968Y-44423D01*
X32000Y-44459D01*
X32023Y-44501D01*
X32038Y-44546D01*
X32044Y-44594D01*
X32045Y-44600D01*
X31045Y-44600D02*
X31040Y-44647D01*
X31026Y-44693D01*
X31004Y-44735D01*
X30973Y-44772D01*
X30937Y-44803D01*
X30894Y-44825D01*
X30849Y-44839D01*
X30801Y-44844D01*
X30755Y-44840D01*
X30709Y-44827D01*
X30666Y-44805D01*
X30629Y-44775D01*
X30598Y-44738D01*
X30575Y-44696D01*
X30561Y-44650D01*
X30556Y-44603D01*
X30560Y-44556D01*
X30573Y-44510D01*
X30595Y-44468D01*
X30624Y-44430D01*
X30661Y-44399D01*
X30702Y-44376D01*
X30748Y-44361D01*
X30795Y-44356D01*
X30842Y-44359D01*
X30888Y-44372D01*
X30931Y-44394D01*
X30968Y-44423D01*
X31000Y-44459D01*
X31023Y-44501D01*
X31038Y-44546D01*
X31044Y-44594D01*
X31045Y-44600D01*
X30045Y-44600D02*
X30040Y-44647D01*
X30026Y-44693D01*
X30004Y-44735D01*
X29973Y-44772D01*
X29937Y-44803D01*
X29894Y-44825D01*
X29849Y-44839D01*
X29801Y-44844D01*
X29755Y-44840D01*
X29709Y-44827D01*
X29666Y-44805D01*
X29629Y-44775D01*
X29598Y-44738D01*
X29575Y-44696D01*
X29561Y-44650D01*
X29556Y-44603D01*
X29560Y-44556D01*
X29573Y-44510D01*
X29595Y-44468D01*
X29624Y-44430D01*
X29661Y-44399D01*
X29702Y-44376D01*
X29748Y-44361D01*
X29795Y-44356D01*
X29842Y-44359D01*
X29888Y-44372D01*
X29931Y-44394D01*
X29968Y-44423D01*
X30000Y-44459D01*
X30023Y-44501D01*
X30038Y-44546D01*
X30044Y-44594D01*
X30045Y-44600D01*
X29045Y-44600D02*
X29040Y-44647D01*
X29026Y-44693D01*
X29004Y-44735D01*
X28973Y-44772D01*
X28937Y-44803D01*
X28894Y-44825D01*
X28849Y-44839D01*
X28801Y-44844D01*
X28755Y-44840D01*
X28709Y-44827D01*
X28666Y-44805D01*
X28629Y-44775D01*
X28598Y-44738D01*
X28575Y-44696D01*
X28561Y-44650D01*
X28556Y-44603D01*
X28560Y-44556D01*
X28573Y-44510D01*
X28595Y-44468D01*
X28624Y-44430D01*
X28661Y-44399D01*
X28702Y-44376D01*
X28748Y-44361D01*
X28795Y-44356D01*
X28842Y-44359D01*
X28888Y-44372D01*
X28931Y-44394D01*
X28968Y-44423D01*
X29000Y-44459D01*
X29023Y-44501D01*
X29038Y-44546D01*
X29044Y-44594D01*
X29045Y-44600D01*
X28045Y-44600D02*
X28040Y-44647D01*
X28026Y-44693D01*
X28004Y-44735D01*
X27973Y-44772D01*
X27937Y-44803D01*
X27894Y-44825D01*
X27849Y-44839D01*
X27801Y-44844D01*
X27755Y-44840D01*
X27709Y-44827D01*
X27666Y-44805D01*
X27629Y-44775D01*
X27598Y-44738D01*
X27575Y-44696D01*
X27561Y-44650D01*
X27556Y-44603D01*
X27560Y-44556D01*
X27573Y-44510D01*
X27595Y-44468D01*
X27624Y-44430D01*
X27661Y-44399D01*
X27702Y-44376D01*
X27748Y-44361D01*
X27795Y-44356D01*
X27842Y-44359D01*
X27888Y-44372D01*
X27931Y-44394D01*
X27968Y-44423D01*
X28000Y-44459D01*
X28023Y-44501D01*
X28038Y-44546D01*
X28044Y-44594D01*
X28045Y-44600D01*
X27045Y-44600D02*
X27040Y-44647D01*
X27026Y-44693D01*
X27004Y-44735D01*
X26973Y-44772D01*
X26937Y-44803D01*
X26894Y-44825D01*
X26849Y-44839D01*
X26801Y-44844D01*
X26755Y-44840D01*
X26709Y-44827D01*
X26666Y-44805D01*
X26629Y-44775D01*
X26598Y-44738D01*
X26575Y-44696D01*
X26561Y-44650D01*
X26556Y-44603D01*
X26560Y-44556D01*
X26573Y-44510D01*
X26595Y-44468D01*
X26624Y-44430D01*
X26661Y-44399D01*
X26702Y-44376D01*
X26748Y-44361D01*
X26795Y-44356D01*
X26842Y-44359D01*
X26888Y-44372D01*
X26931Y-44394D01*
X26968Y-44423D01*
X27000Y-44459D01*
X27023Y-44501D01*
X27038Y-44546D01*
X27044Y-44594D01*
X27045Y-44600D01*
X26045Y-44600D02*
X26040Y-44647D01*
X26026Y-44693D01*
X26004Y-44735D01*
X25973Y-44772D01*
X25937Y-44803D01*
X25894Y-44825D01*
X25849Y-44839D01*
X25801Y-44844D01*
X25755Y-44840D01*
X25709Y-44827D01*
X25666Y-44805D01*
X25629Y-44775D01*
X25598Y-44738D01*
X25575Y-44696D01*
X25561Y-44650D01*
X25556Y-44603D01*
X25560Y-44556D01*
X25573Y-44510D01*
X25595Y-44468D01*
X25624Y-44430D01*
X25661Y-44399D01*
X25702Y-44376D01*
X25748Y-44361D01*
X25795Y-44356D01*
X25842Y-44359D01*
X25888Y-44372D01*
X25931Y-44394D01*
X25968Y-44423D01*
X26000Y-44459D01*
X26023Y-44501D01*
X26038Y-44546D01*
X26044Y-44594D01*
X26045Y-44600D01*
X35555Y-61355D02*
X35555Y-61845D01*
X36045Y-61845D01*
X36045Y-61355D01*
X35555Y-61355D01*
X37045Y-61600D02*
X37040Y-61647D01*
X37026Y-61693D01*
X37004Y-61735D01*
X36973Y-61772D01*
X36937Y-61803D01*
X36894Y-61825D01*
X36849Y-61839D01*
X36801Y-61844D01*
X36755Y-61840D01*
X36709Y-61827D01*
X36666Y-61805D01*
X36629Y-61775D01*
X36598Y-61738D01*
X36575Y-61696D01*
X36561Y-61650D01*
X36556Y-61603D01*
X36560Y-61556D01*
X36573Y-61510D01*
X36595Y-61468D01*
X36624Y-61430D01*
X36661Y-61399D01*
X36702Y-61376D01*
X36748Y-61361D01*
X36795Y-61356D01*
X36842Y-61359D01*
X36888Y-61372D01*
X36931Y-61394D01*
X36968Y-61423D01*
X37000Y-61459D01*
X37023Y-61501D01*
X37038Y-61546D01*
X37044Y-61594D01*
X37045Y-61600D01*
X38045Y-61600D02*
X38040Y-61647D01*
X38026Y-61693D01*
X38004Y-61735D01*
X37973Y-61772D01*
X37937Y-61803D01*
X37894Y-61825D01*
X37849Y-61839D01*
X37801Y-61844D01*
X37755Y-61840D01*
X37709Y-61827D01*
X37666Y-61805D01*
X37629Y-61775D01*
X37598Y-61738D01*
X37575Y-61696D01*
X37561Y-61650D01*
X37556Y-61603D01*
X37560Y-61556D01*
X37573Y-61510D01*
X37595Y-61468D01*
X37624Y-61430D01*
X37661Y-61399D01*
X37702Y-61376D01*
X37748Y-61361D01*
X37795Y-61356D01*
X37842Y-61359D01*
X37888Y-61372D01*
X37931Y-61394D01*
X37968Y-61423D01*
X38000Y-61459D01*
X38023Y-61501D01*
X38038Y-61546D01*
X38044Y-61594D01*
X38045Y-61600D01*
X39045Y-61600D02*
X39040Y-61647D01*
X39026Y-61693D01*
X39004Y-61735D01*
X38973Y-61772D01*
X38937Y-61803D01*
X38894Y-61825D01*
X38849Y-61839D01*
X38801Y-61844D01*
X38755Y-61840D01*
X38709Y-61827D01*
X38666Y-61805D01*
X38629Y-61775D01*
X38598Y-61738D01*
X38575Y-61696D01*
X38561Y-61650D01*
X38556Y-61603D01*
X38560Y-61556D01*
X38573Y-61510D01*
X38595Y-61468D01*
X38624Y-61430D01*
X38661Y-61399D01*
X38702Y-61376D01*
X38748Y-61361D01*
X38795Y-61356D01*
X38842Y-61359D01*
X38888Y-61372D01*
X38931Y-61394D01*
X38968Y-61423D01*
X39000Y-61459D01*
X39023Y-61501D01*
X39038Y-61546D01*
X39044Y-61594D01*
X39045Y-61600D01*
X40045Y-61600D02*
X40040Y-61647D01*
X40026Y-61693D01*
X40004Y-61735D01*
X39973Y-61772D01*
X39937Y-61803D01*
X39894Y-61825D01*
X39849Y-61839D01*
X39801Y-61844D01*
X39755Y-61840D01*
X39709Y-61827D01*
X39666Y-61805D01*
X39629Y-61775D01*
X39598Y-61738D01*
X39575Y-61696D01*
X39561Y-61650D01*
X39556Y-61603D01*
X39560Y-61556D01*
X39573Y-61510D01*
X39595Y-61468D01*
X39624Y-61430D01*
X39661Y-61399D01*
X39702Y-61376D01*
X39748Y-61361D01*
X39795Y-61356D01*
X39842Y-61359D01*
X39888Y-61372D01*
X39931Y-61394D01*
X39968Y-61423D01*
X40000Y-61459D01*
X40023Y-61501D01*
X40038Y-61546D01*
X40044Y-61594D01*
X40045Y-61600D01*
X41045Y-61600D02*
X41040Y-61647D01*
X41026Y-61693D01*
X41004Y-61735D01*
X40973Y-61772D01*
X40937Y-61803D01*
X40894Y-61825D01*
X40849Y-61839D01*
X40801Y-61844D01*
X40755Y-61840D01*
X40709Y-61827D01*
X40666Y-61805D01*
X40629Y-61775D01*
X40598Y-61738D01*
X40575Y-61696D01*
X40561Y-61650D01*
X40556Y-61603D01*
X40560Y-61556D01*
X40573Y-61510D01*
X40595Y-61468D01*
X40624Y-61430D01*
X40661Y-61399D01*
X40702Y-61376D01*
X40748Y-61361D01*
X40795Y-61356D01*
X40842Y-61359D01*
X40888Y-61372D01*
X40931Y-61394D01*
X40968Y-61423D01*
X41000Y-61459D01*
X41023Y-61501D01*
X41038Y-61546D01*
X41044Y-61594D01*
X41045Y-61600D01*
X42045Y-61600D02*
X42040Y-61647D01*
X42026Y-61693D01*
X42004Y-61735D01*
X41973Y-61772D01*
X41937Y-61803D01*
X41894Y-61825D01*
X41849Y-61839D01*
X41801Y-61844D01*
X41755Y-61840D01*
X41709Y-61827D01*
X41666Y-61805D01*
X41629Y-61775D01*
X41598Y-61738D01*
X41575Y-61696D01*
X41561Y-61650D01*
X41556Y-61603D01*
X41560Y-61556D01*
X41573Y-61510D01*
X41595Y-61468D01*
X41624Y-61430D01*
X41661Y-61399D01*
X41702Y-61376D01*
X41748Y-61361D01*
X41795Y-61356D01*
X41842Y-61359D01*
X41888Y-61372D01*
X41931Y-61394D01*
X41968Y-61423D01*
X42000Y-61459D01*
X42023Y-61501D01*
X42038Y-61546D01*
X42044Y-61594D01*
X42045Y-61600D01*
X43045Y-61600D02*
X43040Y-61647D01*
X43026Y-61693D01*
X43004Y-61735D01*
X42973Y-61772D01*
X42937Y-61803D01*
X42894Y-61825D01*
X42849Y-61839D01*
X42801Y-61844D01*
X42755Y-61840D01*
X42709Y-61827D01*
X42666Y-61805D01*
X42629Y-61775D01*
X42598Y-61738D01*
X42575Y-61696D01*
X42561Y-61650D01*
X42556Y-61603D01*
X42560Y-61556D01*
X42573Y-61510D01*
X42595Y-61468D01*
X42624Y-61430D01*
X42661Y-61399D01*
X42702Y-61376D01*
X42748Y-61361D01*
X42795Y-61356D01*
X42842Y-61359D01*
X42888Y-61372D01*
X42931Y-61394D01*
X42968Y-61423D01*
X43000Y-61459D01*
X43023Y-61501D01*
X43038Y-61546D01*
X43044Y-61594D01*
X43045Y-61600D01*
X44045Y-61600D02*
X44040Y-61647D01*
X44026Y-61693D01*
X44004Y-61735D01*
X43973Y-61772D01*
X43937Y-61803D01*
X43894Y-61825D01*
X43849Y-61839D01*
X43801Y-61844D01*
X43755Y-61840D01*
X43709Y-61827D01*
X43666Y-61805D01*
X43629Y-61775D01*
X43598Y-61738D01*
X43575Y-61696D01*
X43561Y-61650D01*
X43556Y-61603D01*
X43560Y-61556D01*
X43573Y-61510D01*
X43595Y-61468D01*
X43624Y-61430D01*
X43661Y-61399D01*
X43702Y-61376D01*
X43748Y-61361D01*
X43795Y-61356D01*
X43842Y-61359D01*
X43888Y-61372D01*
X43931Y-61394D01*
X43968Y-61423D01*
X44000Y-61459D01*
X44023Y-61501D01*
X44038Y-61546D01*
X44044Y-61594D01*
X44045Y-61600D01*
X45045Y-61600D02*
X45040Y-61647D01*
X45026Y-61693D01*
X45004Y-61735D01*
X44973Y-61772D01*
X44937Y-61803D01*
X44894Y-61825D01*
X44849Y-61839D01*
X44801Y-61844D01*
X44755Y-61840D01*
X44709Y-61827D01*
X44666Y-61805D01*
X44629Y-61775D01*
X44598Y-61738D01*
X44575Y-61696D01*
X44561Y-61650D01*
X44556Y-61603D01*
X44560Y-61556D01*
X44573Y-61510D01*
X44595Y-61468D01*
X44624Y-61430D01*
X44661Y-61399D01*
X44702Y-61376D01*
X44748Y-61361D01*
X44795Y-61356D01*
X44842Y-61359D01*
X44888Y-61372D01*
X44931Y-61394D01*
X44968Y-61423D01*
X45000Y-61459D01*
X45023Y-61501D01*
X45038Y-61546D01*
X45044Y-61594D01*
X45045Y-61600D01*
X45045Y-58600D02*
X45040Y-58647D01*
X45026Y-58693D01*
X45004Y-58735D01*
X44973Y-58772D01*
X44937Y-58803D01*
X44894Y-58825D01*
X44849Y-58839D01*
X44801Y-58844D01*
X44755Y-58840D01*
X44709Y-58827D01*
X44666Y-58805D01*
X44629Y-58775D01*
X44598Y-58738D01*
X44575Y-58696D01*
X44561Y-58650D01*
X44556Y-58603D01*
X44560Y-58556D01*
X44573Y-58510D01*
X44595Y-58468D01*
X44624Y-58430D01*
X44661Y-58399D01*
X44702Y-58376D01*
X44748Y-58361D01*
X44795Y-58356D01*
X44842Y-58359D01*
X44888Y-58372D01*
X44931Y-58394D01*
X44968Y-58423D01*
X45000Y-58459D01*
X45023Y-58501D01*
X45038Y-58546D01*
X45044Y-58594D01*
X45045Y-58600D01*
X44045Y-58600D02*
X44040Y-58647D01*
X44026Y-58693D01*
X44004Y-58735D01*
X43973Y-58772D01*
X43937Y-58803D01*
X43894Y-58825D01*
X43849Y-58839D01*
X43801Y-58844D01*
X43755Y-58840D01*
X43709Y-58827D01*
X43666Y-58805D01*
X43629Y-58775D01*
X43598Y-58738D01*
X43575Y-58696D01*
X43561Y-58650D01*
X43556Y-58603D01*
X43560Y-58556D01*
X43573Y-58510D01*
X43595Y-58468D01*
X43624Y-58430D01*
X43661Y-58399D01*
X43702Y-58376D01*
X43748Y-58361D01*
X43795Y-58356D01*
X43842Y-58359D01*
X43888Y-58372D01*
X43931Y-58394D01*
X43968Y-58423D01*
X44000Y-58459D01*
X44023Y-58501D01*
X44038Y-58546D01*
X44044Y-58594D01*
X44045Y-58600D01*
X43045Y-58600D02*
X43040Y-58647D01*
X43026Y-58693D01*
X43004Y-58735D01*
X42973Y-58772D01*
X42937Y-58803D01*
X42894Y-58825D01*
X42849Y-58839D01*
X42801Y-58844D01*
X42755Y-58840D01*
X42709Y-58827D01*
X42666Y-58805D01*
X42629Y-58775D01*
X42598Y-58738D01*
X42575Y-58696D01*
X42561Y-58650D01*
X42556Y-58603D01*
X42560Y-58556D01*
X42573Y-58510D01*
X42595Y-58468D01*
X42624Y-58430D01*
X42661Y-58399D01*
X42702Y-58376D01*
X42748Y-58361D01*
X42795Y-58356D01*
X42842Y-58359D01*
X42888Y-58372D01*
X42931Y-58394D01*
X42968Y-58423D01*
X43000Y-58459D01*
X43023Y-58501D01*
X43038Y-58546D01*
X43044Y-58594D01*
X43045Y-58600D01*
X42045Y-58600D02*
X42040Y-58647D01*
X42026Y-58693D01*
X42004Y-58735D01*
X41973Y-58772D01*
X41937Y-58803D01*
X41894Y-58825D01*
X41849Y-58839D01*
X41801Y-58844D01*
X41755Y-58840D01*
X41709Y-58827D01*
X41666Y-58805D01*
X41629Y-58775D01*
X41598Y-58738D01*
X41575Y-58696D01*
X41561Y-58650D01*
X41556Y-58603D01*
X41560Y-58556D01*
X41573Y-58510D01*
X41595Y-58468D01*
X41624Y-58430D01*
X41661Y-58399D01*
X41702Y-58376D01*
X41748Y-58361D01*
X41795Y-58356D01*
X41842Y-58359D01*
X41888Y-58372D01*
X41931Y-58394D01*
X41968Y-58423D01*
X42000Y-58459D01*
X42023Y-58501D01*
X42038Y-58546D01*
X42044Y-58594D01*
X42045Y-58600D01*
X41045Y-58600D02*
X41040Y-58647D01*
X41026Y-58693D01*
X41004Y-58735D01*
X40973Y-58772D01*
X40937Y-58803D01*
X40894Y-58825D01*
X40849Y-58839D01*
X40801Y-58844D01*
X40755Y-58840D01*
X40709Y-58827D01*
X40666Y-58805D01*
X40629Y-58775D01*
X40598Y-58738D01*
X40575Y-58696D01*
X40561Y-58650D01*
X40556Y-58603D01*
X40560Y-58556D01*
X40573Y-58510D01*
X40595Y-58468D01*
X40624Y-58430D01*
X40661Y-58399D01*
X40702Y-58376D01*
X40748Y-58361D01*
X40795Y-58356D01*
X40842Y-58359D01*
X40888Y-58372D01*
X40931Y-58394D01*
X40968Y-58423D01*
X41000Y-58459D01*
X41023Y-58501D01*
X41038Y-58546D01*
X41044Y-58594D01*
X41045Y-58600D01*
X40045Y-58600D02*
X40040Y-58647D01*
X40026Y-58693D01*
X40004Y-58735D01*
X39973Y-58772D01*
X39937Y-58803D01*
X39894Y-58825D01*
X39849Y-58839D01*
X39801Y-58844D01*
X39755Y-58840D01*
X39709Y-58827D01*
X39666Y-58805D01*
X39629Y-58775D01*
X39598Y-58738D01*
X39575Y-58696D01*
X39561Y-58650D01*
X39556Y-58603D01*
X39560Y-58556D01*
X39573Y-58510D01*
X39595Y-58468D01*
X39624Y-58430D01*
X39661Y-58399D01*
X39702Y-58376D01*
X39748Y-58361D01*
X39795Y-58356D01*
X39842Y-58359D01*
X39888Y-58372D01*
X39931Y-58394D01*
X39968Y-58423D01*
X40000Y-58459D01*
X40023Y-58501D01*
X40038Y-58546D01*
X40044Y-58594D01*
X40045Y-58600D01*
X39045Y-58600D02*
X39040Y-58647D01*
X39026Y-58693D01*
X39004Y-58735D01*
X38973Y-58772D01*
X38937Y-58803D01*
X38894Y-58825D01*
X38849Y-58839D01*
X38801Y-58844D01*
X38755Y-58840D01*
X38709Y-58827D01*
X38666Y-58805D01*
X38629Y-58775D01*
X38598Y-58738D01*
X38575Y-58696D01*
X38561Y-58650D01*
X38556Y-58603D01*
X38560Y-58556D01*
X38573Y-58510D01*
X38595Y-58468D01*
X38624Y-58430D01*
X38661Y-58399D01*
X38702Y-58376D01*
X38748Y-58361D01*
X38795Y-58356D01*
X38842Y-58359D01*
X38888Y-58372D01*
X38931Y-58394D01*
X38968Y-58423D01*
X39000Y-58459D01*
X39023Y-58501D01*
X39038Y-58546D01*
X39044Y-58594D01*
X39045Y-58600D01*
X38045Y-58600D02*
X38040Y-58647D01*
X38026Y-58693D01*
X38004Y-58735D01*
X37973Y-58772D01*
X37937Y-58803D01*
X37894Y-58825D01*
X37849Y-58839D01*
X37801Y-58844D01*
X37755Y-58840D01*
X37709Y-58827D01*
X37666Y-58805D01*
X37629Y-58775D01*
X37598Y-58738D01*
X37575Y-58696D01*
X37561Y-58650D01*
X37556Y-58603D01*
X37560Y-58556D01*
X37573Y-58510D01*
X37595Y-58468D01*
X37624Y-58430D01*
X37661Y-58399D01*
X37702Y-58376D01*
X37748Y-58361D01*
X37795Y-58356D01*
X37842Y-58359D01*
X37888Y-58372D01*
X37931Y-58394D01*
X37968Y-58423D01*
X38000Y-58459D01*
X38023Y-58501D01*
X38038Y-58546D01*
X38044Y-58594D01*
X38045Y-58600D01*
X37045Y-58600D02*
X37040Y-58647D01*
X37026Y-58693D01*
X37004Y-58735D01*
X36973Y-58772D01*
X36937Y-58803D01*
X36894Y-58825D01*
X36849Y-58839D01*
X36801Y-58844D01*
X36755Y-58840D01*
X36709Y-58827D01*
X36666Y-58805D01*
X36629Y-58775D01*
X36598Y-58738D01*
X36575Y-58696D01*
X36561Y-58650D01*
X36556Y-58603D01*
X36560Y-58556D01*
X36573Y-58510D01*
X36595Y-58468D01*
X36624Y-58430D01*
X36661Y-58399D01*
X36702Y-58376D01*
X36748Y-58361D01*
X36795Y-58356D01*
X36842Y-58359D01*
X36888Y-58372D01*
X36931Y-58394D01*
X36968Y-58423D01*
X37000Y-58459D01*
X37023Y-58501D01*
X37038Y-58546D01*
X37044Y-58594D01*
X37045Y-58600D01*
X36045Y-58600D02*
X36040Y-58647D01*
X36026Y-58693D01*
X36004Y-58735D01*
X35973Y-58772D01*
X35937Y-58803D01*
X35894Y-58825D01*
X35849Y-58839D01*
X35801Y-58844D01*
X35755Y-58840D01*
X35709Y-58827D01*
X35666Y-58805D01*
X35629Y-58775D01*
X35598Y-58738D01*
X35575Y-58696D01*
X35561Y-58650D01*
X35556Y-58603D01*
X35560Y-58556D01*
X35573Y-58510D01*
X35595Y-58468D01*
X35624Y-58430D01*
X35661Y-58399D01*
X35702Y-58376D01*
X35748Y-58361D01*
X35795Y-58356D01*
X35842Y-58359D01*
X35888Y-58372D01*
X35931Y-58394D01*
X35968Y-58423D01*
X36000Y-58459D01*
X36023Y-58501D01*
X36038Y-58546D01*
X36044Y-58594D01*
X36045Y-58600D01*
X44555Y-44355D02*
X44555Y-44845D01*
X45045Y-44845D01*
X45045Y-44355D01*
X44555Y-44355D01*
X44045Y-44600D02*
X44040Y-44647D01*
X44026Y-44693D01*
X44004Y-44735D01*
X43973Y-44772D01*
X43937Y-44803D01*
X43894Y-44825D01*
X43849Y-44839D01*
X43801Y-44844D01*
X43755Y-44840D01*
X43709Y-44827D01*
X43666Y-44805D01*
X43629Y-44775D01*
X43598Y-44738D01*
X43575Y-44696D01*
X43561Y-44650D01*
X43556Y-44603D01*
X43560Y-44556D01*
X43573Y-44510D01*
X43595Y-44468D01*
X43624Y-44430D01*
X43661Y-44399D01*
X43702Y-44376D01*
X43748Y-44361D01*
X43795Y-44356D01*
X43842Y-44359D01*
X43888Y-44372D01*
X43931Y-44394D01*
X43968Y-44423D01*
X44000Y-44459D01*
X44023Y-44501D01*
X44038Y-44546D01*
X44044Y-44594D01*
X44045Y-44600D01*
X43045Y-44600D02*
X43040Y-44647D01*
X43026Y-44693D01*
X43004Y-44735D01*
X42973Y-44772D01*
X42937Y-44803D01*
X42894Y-44825D01*
X42849Y-44839D01*
X42801Y-44844D01*
X42755Y-44840D01*
X42709Y-44827D01*
X42666Y-44805D01*
X42629Y-44775D01*
X42598Y-44738D01*
X42575Y-44696D01*
X42561Y-44650D01*
X42556Y-44603D01*
X42560Y-44556D01*
X42573Y-44510D01*
X42595Y-44468D01*
X42624Y-44430D01*
X42661Y-44399D01*
X42702Y-44376D01*
X42748Y-44361D01*
X42795Y-44356D01*
X42842Y-44359D01*
X42888Y-44372D01*
X42931Y-44394D01*
X42968Y-44423D01*
X43000Y-44459D01*
X43023Y-44501D01*
X43038Y-44546D01*
X43044Y-44594D01*
X43045Y-44600D01*
X42045Y-44600D02*
X42040Y-44647D01*
X42026Y-44693D01*
X42004Y-44735D01*
X41973Y-44772D01*
X41937Y-44803D01*
X41894Y-44825D01*
X41849Y-44839D01*
X41801Y-44844D01*
X41755Y-44840D01*
X41709Y-44827D01*
X41666Y-44805D01*
X41629Y-44775D01*
X41598Y-44738D01*
X41575Y-44696D01*
X41561Y-44650D01*
X41556Y-44603D01*
X41560Y-44556D01*
X41573Y-44510D01*
X41595Y-44468D01*
X41624Y-44430D01*
X41661Y-44399D01*
X41702Y-44376D01*
X41748Y-44361D01*
X41795Y-44356D01*
X41842Y-44359D01*
X41888Y-44372D01*
X41931Y-44394D01*
X41968Y-44423D01*
X42000Y-44459D01*
X42023Y-44501D01*
X42038Y-44546D01*
X42044Y-44594D01*
X42045Y-44600D01*
X41045Y-44600D02*
X41040Y-44647D01*
X41026Y-44693D01*
X41004Y-44735D01*
X40973Y-44772D01*
X40937Y-44803D01*
X40894Y-44825D01*
X40849Y-44839D01*
X40801Y-44844D01*
X40755Y-44840D01*
X40709Y-44827D01*
X40666Y-44805D01*
X40629Y-44775D01*
X40598Y-44738D01*
X40575Y-44696D01*
X40561Y-44650D01*
X40556Y-44603D01*
X40560Y-44556D01*
X40573Y-44510D01*
X40595Y-44468D01*
X40624Y-44430D01*
X40661Y-44399D01*
X40702Y-44376D01*
X40748Y-44361D01*
X40795Y-44356D01*
X40842Y-44359D01*
X40888Y-44372D01*
X40931Y-44394D01*
X40968Y-44423D01*
X41000Y-44459D01*
X41023Y-44501D01*
X41038Y-44546D01*
X41044Y-44594D01*
X41045Y-44600D01*
X40045Y-44600D02*
X40040Y-44647D01*
X40026Y-44693D01*
X40004Y-44735D01*
X39973Y-44772D01*
X39937Y-44803D01*
X39894Y-44825D01*
X39849Y-44839D01*
X39801Y-44844D01*
X39755Y-44840D01*
X39709Y-44827D01*
X39666Y-44805D01*
X39629Y-44775D01*
X39598Y-44738D01*
X39575Y-44696D01*
X39561Y-44650D01*
X39556Y-44603D01*
X39560Y-44556D01*
X39573Y-44510D01*
X39595Y-44468D01*
X39624Y-44430D01*
X39661Y-44399D01*
X39702Y-44376D01*
X39748Y-44361D01*
X39795Y-44356D01*
X39842Y-44359D01*
X39888Y-44372D01*
X39931Y-44394D01*
X39968Y-44423D01*
X40000Y-44459D01*
X40023Y-44501D01*
X40038Y-44546D01*
X40044Y-44594D01*
X40045Y-44600D01*
X39045Y-44600D02*
X39040Y-44647D01*
X39026Y-44693D01*
X39004Y-44735D01*
X38973Y-44772D01*
X38937Y-44803D01*
X38894Y-44825D01*
X38849Y-44839D01*
X38801Y-44844D01*
X38755Y-44840D01*
X38709Y-44827D01*
X38666Y-44805D01*
X38629Y-44775D01*
X38598Y-44738D01*
X38575Y-44696D01*
X38561Y-44650D01*
X38556Y-44603D01*
X38560Y-44556D01*
X38573Y-44510D01*
X38595Y-44468D01*
X38624Y-44430D01*
X38661Y-44399D01*
X38702Y-44376D01*
X38748Y-44361D01*
X38795Y-44356D01*
X38842Y-44359D01*
X38888Y-44372D01*
X38931Y-44394D01*
X38968Y-44423D01*
X39000Y-44459D01*
X39023Y-44501D01*
X39038Y-44546D01*
X39044Y-44594D01*
X39045Y-44600D01*
X38045Y-44600D02*
X38040Y-44647D01*
X38026Y-44693D01*
X38004Y-44735D01*
X37973Y-44772D01*
X37937Y-44803D01*
X37894Y-44825D01*
X37849Y-44839D01*
X37801Y-44844D01*
X37755Y-44840D01*
X37709Y-44827D01*
X37666Y-44805D01*
X37629Y-44775D01*
X37598Y-44738D01*
X37575Y-44696D01*
X37561Y-44650D01*
X37556Y-44603D01*
X37560Y-44556D01*
X37573Y-44510D01*
X37595Y-44468D01*
X37624Y-44430D01*
X37661Y-44399D01*
X37702Y-44376D01*
X37748Y-44361D01*
X37795Y-44356D01*
X37842Y-44359D01*
X37888Y-44372D01*
X37931Y-44394D01*
X37968Y-44423D01*
X38000Y-44459D01*
X38023Y-44501D01*
X38038Y-44546D01*
X38044Y-44594D01*
X38045Y-44600D01*
X37045Y-44600D02*
X37040Y-44647D01*
X37026Y-44693D01*
X37004Y-44735D01*
X36973Y-44772D01*
X36937Y-44803D01*
X36894Y-44825D01*
X36849Y-44839D01*
X36801Y-44844D01*
X36755Y-44840D01*
X36709Y-44827D01*
X36666Y-44805D01*
X36629Y-44775D01*
X36598Y-44738D01*
X36575Y-44696D01*
X36561Y-44650D01*
X36556Y-44603D01*
X36560Y-44556D01*
X36573Y-44510D01*
X36595Y-44468D01*
X36624Y-44430D01*
X36661Y-44399D01*
X36702Y-44376D01*
X36748Y-44361D01*
X36795Y-44356D01*
X36842Y-44359D01*
X36888Y-44372D01*
X36931Y-44394D01*
X36968Y-44423D01*
X37000Y-44459D01*
X37023Y-44501D01*
X37038Y-44546D01*
X37044Y-44594D01*
X37045Y-44600D01*
X36045Y-44600D02*
X36040Y-44647D01*
X36026Y-44693D01*
X36004Y-44735D01*
X35973Y-44772D01*
X35937Y-44803D01*
X35894Y-44825D01*
X35849Y-44839D01*
X35801Y-44844D01*
X35755Y-44840D01*
X35709Y-44827D01*
X35666Y-44805D01*
X35629Y-44775D01*
X35598Y-44738D01*
X35575Y-44696D01*
X35561Y-44650D01*
X35556Y-44603D01*
X35560Y-44556D01*
X35573Y-44510D01*
X35595Y-44468D01*
X35624Y-44430D01*
X35661Y-44399D01*
X35702Y-44376D01*
X35748Y-44361D01*
X35795Y-44356D01*
X35842Y-44359D01*
X35888Y-44372D01*
X35931Y-44394D01*
X35968Y-44423D01*
X36000Y-44459D01*
X36023Y-44501D01*
X36038Y-44546D01*
X36044Y-44594D01*
X36045Y-44600D01*
X36045Y-47600D02*
X36040Y-47647D01*
X36026Y-47693D01*
X36004Y-47735D01*
X35973Y-47772D01*
X35937Y-47803D01*
X35894Y-47825D01*
X35849Y-47839D01*
X35801Y-47844D01*
X35755Y-47840D01*
X35709Y-47827D01*
X35666Y-47805D01*
X35629Y-47775D01*
X35598Y-47738D01*
X35575Y-47696D01*
X35561Y-47650D01*
X35556Y-47603D01*
X35560Y-47556D01*
X35573Y-47510D01*
X35595Y-47468D01*
X35624Y-47430D01*
X35661Y-47399D01*
X35702Y-47376D01*
X35748Y-47361D01*
X35795Y-47356D01*
X35842Y-47359D01*
X35888Y-47372D01*
X35931Y-47394D01*
X35968Y-47423D01*
X36000Y-47459D01*
X36023Y-47501D01*
X36038Y-47546D01*
X36044Y-47594D01*
X36045Y-47600D01*
X37045Y-47600D02*
X37040Y-47647D01*
X37026Y-47693D01*
X37004Y-47735D01*
X36973Y-47772D01*
X36937Y-47803D01*
X36894Y-47825D01*
X36849Y-47839D01*
X36801Y-47844D01*
X36755Y-47840D01*
X36709Y-47827D01*
X36666Y-47805D01*
X36629Y-47775D01*
X36598Y-47738D01*
X36575Y-47696D01*
X36561Y-47650D01*
X36556Y-47603D01*
X36560Y-47556D01*
X36573Y-47510D01*
X36595Y-47468D01*
X36624Y-47430D01*
X36661Y-47399D01*
X36702Y-47376D01*
X36748Y-47361D01*
X36795Y-47356D01*
X36842Y-47359D01*
X36888Y-47372D01*
X36931Y-47394D01*
X36968Y-47423D01*
X37000Y-47459D01*
X37023Y-47501D01*
X37038Y-47546D01*
X37044Y-47594D01*
X37045Y-47600D01*
X38045Y-47600D02*
X38040Y-47647D01*
X38026Y-47693D01*
X38004Y-47735D01*
X37973Y-47772D01*
X37937Y-47803D01*
X37894Y-47825D01*
X37849Y-47839D01*
X37801Y-47844D01*
X37755Y-47840D01*
X37709Y-47827D01*
X37666Y-47805D01*
X37629Y-47775D01*
X37598Y-47738D01*
X37575Y-47696D01*
X37561Y-47650D01*
X37556Y-47603D01*
X37560Y-47556D01*
X37573Y-47510D01*
X37595Y-47468D01*
X37624Y-47430D01*
X37661Y-47399D01*
X37702Y-47376D01*
X37748Y-47361D01*
X37795Y-47356D01*
X37842Y-47359D01*
X37888Y-47372D01*
X37931Y-47394D01*
X37968Y-47423D01*
X38000Y-47459D01*
X38023Y-47501D01*
X38038Y-47546D01*
X38044Y-47594D01*
X38045Y-47600D01*
X39045Y-47600D02*
X39040Y-47647D01*
X39026Y-47693D01*
X39004Y-47735D01*
X38973Y-47772D01*
X38937Y-47803D01*
X38894Y-47825D01*
X38849Y-47839D01*
X38801Y-47844D01*
X38755Y-47840D01*
X38709Y-47827D01*
X38666Y-47805D01*
X38629Y-47775D01*
X38598Y-47738D01*
X38575Y-47696D01*
X38561Y-47650D01*
X38556Y-47603D01*
X38560Y-47556D01*
X38573Y-47510D01*
X38595Y-47468D01*
X38624Y-47430D01*
X38661Y-47399D01*
X38702Y-47376D01*
X38748Y-47361D01*
X38795Y-47356D01*
X38842Y-47359D01*
X38888Y-47372D01*
X38931Y-47394D01*
X38968Y-47423D01*
X39000Y-47459D01*
X39023Y-47501D01*
X39038Y-47546D01*
X39044Y-47594D01*
X39045Y-47600D01*
X40045Y-47600D02*
X40040Y-47647D01*
X40026Y-47693D01*
X40004Y-47735D01*
X39973Y-47772D01*
X39937Y-47803D01*
X39894Y-47825D01*
X39849Y-47839D01*
X39801Y-47844D01*
X39755Y-47840D01*
X39709Y-47827D01*
X39666Y-47805D01*
X39629Y-47775D01*
X39598Y-47738D01*
X39575Y-47696D01*
X39561Y-47650D01*
X39556Y-47603D01*
X39560Y-47556D01*
X39573Y-47510D01*
X39595Y-47468D01*
X39624Y-47430D01*
X39661Y-47399D01*
X39702Y-47376D01*
X39748Y-47361D01*
X39795Y-47356D01*
X39842Y-47359D01*
X39888Y-47372D01*
X39931Y-47394D01*
X39968Y-47423D01*
X40000Y-47459D01*
X40023Y-47501D01*
X40038Y-47546D01*
X40044Y-47594D01*
X40045Y-47600D01*
X41045Y-47600D02*
X41040Y-47647D01*
X41026Y-47693D01*
X41004Y-47735D01*
X40973Y-47772D01*
X40937Y-47803D01*
X40894Y-47825D01*
X40849Y-47839D01*
X40801Y-47844D01*
X40755Y-47840D01*
X40709Y-47827D01*
X40666Y-47805D01*
X40629Y-47775D01*
X40598Y-47738D01*
X40575Y-47696D01*
X40561Y-47650D01*
X40556Y-47603D01*
X40560Y-47556D01*
X40573Y-47510D01*
X40595Y-47468D01*
X40624Y-47430D01*
X40661Y-47399D01*
X40702Y-47376D01*
X40748Y-47361D01*
X40795Y-47356D01*
X40842Y-47359D01*
X40888Y-47372D01*
X40931Y-47394D01*
X40968Y-47423D01*
X41000Y-47459D01*
X41023Y-47501D01*
X41038Y-47546D01*
X41044Y-47594D01*
X41045Y-47600D01*
X42045Y-47600D02*
X42040Y-47647D01*
X42026Y-47693D01*
X42004Y-47735D01*
X41973Y-47772D01*
X41937Y-47803D01*
X41894Y-47825D01*
X41849Y-47839D01*
X41801Y-47844D01*
X41755Y-47840D01*
X41709Y-47827D01*
X41666Y-47805D01*
X41629Y-47775D01*
X41598Y-47738D01*
X41575Y-47696D01*
X41561Y-47650D01*
X41556Y-47603D01*
X41560Y-47556D01*
X41573Y-47510D01*
X41595Y-47468D01*
X41624Y-47430D01*
X41661Y-47399D01*
X41702Y-47376D01*
X41748Y-47361D01*
X41795Y-47356D01*
X41842Y-47359D01*
X41888Y-47372D01*
X41931Y-47394D01*
X41968Y-47423D01*
X42000Y-47459D01*
X42023Y-47501D01*
X42038Y-47546D01*
X42044Y-47594D01*
X42045Y-47600D01*
X43045Y-47600D02*
X43040Y-47647D01*
X43026Y-47693D01*
X43004Y-47735D01*
X42973Y-47772D01*
X42937Y-47803D01*
X42894Y-47825D01*
X42849Y-47839D01*
X42801Y-47844D01*
X42755Y-47840D01*
X42709Y-47827D01*
X42666Y-47805D01*
X42629Y-47775D01*
X42598Y-47738D01*
X42575Y-47696D01*
X42561Y-47650D01*
X42556Y-47603D01*
X42560Y-47556D01*
X42573Y-47510D01*
X42595Y-47468D01*
X42624Y-47430D01*
X42661Y-47399D01*
X42702Y-47376D01*
X42748Y-47361D01*
X42795Y-47356D01*
X42842Y-47359D01*
X42888Y-47372D01*
X42931Y-47394D01*
X42968Y-47423D01*
X43000Y-47459D01*
X43023Y-47501D01*
X43038Y-47546D01*
X43044Y-47594D01*
X43045Y-47600D01*
X44045Y-47600D02*
X44040Y-47647D01*
X44026Y-47693D01*
X44004Y-47735D01*
X43973Y-47772D01*
X43937Y-47803D01*
X43894Y-47825D01*
X43849Y-47839D01*
X43801Y-47844D01*
X43755Y-47840D01*
X43709Y-47827D01*
X43666Y-47805D01*
X43629Y-47775D01*
X43598Y-47738D01*
X43575Y-47696D01*
X43561Y-47650D01*
X43556Y-47603D01*
X43560Y-47556D01*
X43573Y-47510D01*
X43595Y-47468D01*
X43624Y-47430D01*
X43661Y-47399D01*
X43702Y-47376D01*
X43748Y-47361D01*
X43795Y-47356D01*
X43842Y-47359D01*
X43888Y-47372D01*
X43931Y-47394D01*
X43968Y-47423D01*
X44000Y-47459D01*
X44023Y-47501D01*
X44038Y-47546D01*
X44044Y-47594D01*
X44045Y-47600D01*
X45045Y-47600D02*
X45040Y-47647D01*
X45026Y-47693D01*
X45004Y-47735D01*
X44973Y-47772D01*
X44937Y-47803D01*
X44894Y-47825D01*
X44849Y-47839D01*
X44801Y-47844D01*
X44755Y-47840D01*
X44709Y-47827D01*
X44666Y-47805D01*
X44629Y-47775D01*
X44598Y-47738D01*
X44575Y-47696D01*
X44561Y-47650D01*
X44556Y-47603D01*
X44560Y-47556D01*
X44573Y-47510D01*
X44595Y-47468D01*
X44624Y-47430D01*
X44661Y-47399D01*
X44702Y-47376D01*
X44748Y-47361D01*
X44795Y-47356D01*
X44842Y-47359D01*
X44888Y-47372D01*
X44931Y-47394D01*
X44968Y-47423D01*
X45000Y-47459D01*
X45023Y-47501D01*
X45038Y-47546D01*
X45044Y-47594D01*
X45045Y-47600D01*
X25555Y-61355D02*
X25555Y-61845D01*
X26045Y-61845D01*
X26045Y-61355D01*
X25555Y-61355D01*
X27045Y-61600D02*
X27040Y-61647D01*
X27026Y-61693D01*
X27004Y-61735D01*
X26973Y-61772D01*
X26937Y-61803D01*
X26894Y-61825D01*
X26849Y-61839D01*
X26801Y-61844D01*
X26755Y-61840D01*
X26709Y-61827D01*
X26666Y-61805D01*
X26629Y-61775D01*
X26598Y-61738D01*
X26575Y-61696D01*
X26561Y-61650D01*
X26556Y-61603D01*
X26560Y-61556D01*
X26573Y-61510D01*
X26595Y-61468D01*
X26624Y-61430D01*
X26661Y-61399D01*
X26702Y-61376D01*
X26748Y-61361D01*
X26795Y-61356D01*
X26842Y-61359D01*
X26888Y-61372D01*
X26931Y-61394D01*
X26968Y-61423D01*
X27000Y-61459D01*
X27023Y-61501D01*
X27038Y-61546D01*
X27044Y-61594D01*
X27045Y-61600D01*
X28045Y-61600D02*
X28040Y-61647D01*
X28026Y-61693D01*
X28004Y-61735D01*
X27973Y-61772D01*
X27937Y-61803D01*
X27894Y-61825D01*
X27849Y-61839D01*
X27801Y-61844D01*
X27755Y-61840D01*
X27709Y-61827D01*
X27666Y-61805D01*
X27629Y-61775D01*
X27598Y-61738D01*
X27575Y-61696D01*
X27561Y-61650D01*
X27556Y-61603D01*
X27560Y-61556D01*
X27573Y-61510D01*
X27595Y-61468D01*
X27624Y-61430D01*
X27661Y-61399D01*
X27702Y-61376D01*
X27748Y-61361D01*
X27795Y-61356D01*
X27842Y-61359D01*
X27888Y-61372D01*
X27931Y-61394D01*
X27968Y-61423D01*
X28000Y-61459D01*
X28023Y-61501D01*
X28038Y-61546D01*
X28044Y-61594D01*
X28045Y-61600D01*
X29045Y-61600D02*
X29040Y-61647D01*
X29026Y-61693D01*
X29004Y-61735D01*
X28973Y-61772D01*
X28937Y-61803D01*
X28894Y-61825D01*
X28849Y-61839D01*
X28801Y-61844D01*
X28755Y-61840D01*
X28709Y-61827D01*
X28666Y-61805D01*
X28629Y-61775D01*
X28598Y-61738D01*
X28575Y-61696D01*
X28561Y-61650D01*
X28556Y-61603D01*
X28560Y-61556D01*
X28573Y-61510D01*
X28595Y-61468D01*
X28624Y-61430D01*
X28661Y-61399D01*
X28702Y-61376D01*
X28748Y-61361D01*
X28795Y-61356D01*
X28842Y-61359D01*
X28888Y-61372D01*
X28931Y-61394D01*
X28968Y-61423D01*
X29000Y-61459D01*
X29023Y-61501D01*
X29038Y-61546D01*
X29044Y-61594D01*
X29045Y-61600D01*
X30045Y-61600D02*
X30040Y-61647D01*
X30026Y-61693D01*
X30004Y-61735D01*
X29973Y-61772D01*
X29937Y-61803D01*
X29894Y-61825D01*
X29849Y-61839D01*
X29801Y-61844D01*
X29755Y-61840D01*
X29709Y-61827D01*
X29666Y-61805D01*
X29629Y-61775D01*
X29598Y-61738D01*
X29575Y-61696D01*
X29561Y-61650D01*
X29556Y-61603D01*
X29560Y-61556D01*
X29573Y-61510D01*
X29595Y-61468D01*
X29624Y-61430D01*
X29661Y-61399D01*
X29702Y-61376D01*
X29748Y-61361D01*
X29795Y-61356D01*
X29842Y-61359D01*
X29888Y-61372D01*
X29931Y-61394D01*
X29968Y-61423D01*
X30000Y-61459D01*
X30023Y-61501D01*
X30038Y-61546D01*
X30044Y-61594D01*
X30045Y-61600D01*
X31045Y-61600D02*
X31040Y-61647D01*
X31026Y-61693D01*
X31004Y-61735D01*
X30973Y-61772D01*
X30937Y-61803D01*
X30894Y-61825D01*
X30849Y-61839D01*
X30801Y-61844D01*
X30755Y-61840D01*
X30709Y-61827D01*
X30666Y-61805D01*
X30629Y-61775D01*
X30598Y-61738D01*
X30575Y-61696D01*
X30561Y-61650D01*
X30556Y-61603D01*
X30560Y-61556D01*
X30573Y-61510D01*
X30595Y-61468D01*
X30624Y-61430D01*
X30661Y-61399D01*
X30702Y-61376D01*
X30748Y-61361D01*
X30795Y-61356D01*
X30842Y-61359D01*
X30888Y-61372D01*
X30931Y-61394D01*
X30968Y-61423D01*
X31000Y-61459D01*
X31023Y-61501D01*
X31038Y-61546D01*
X31044Y-61594D01*
X31045Y-61600D01*
X32045Y-61600D02*
X32040Y-61647D01*
X32026Y-61693D01*
X32004Y-61735D01*
X31973Y-61772D01*
X31937Y-61803D01*
X31894Y-61825D01*
X31849Y-61839D01*
X31801Y-61844D01*
X31755Y-61840D01*
X31709Y-61827D01*
X31666Y-61805D01*
X31629Y-61775D01*
X31598Y-61738D01*
X31575Y-61696D01*
X31561Y-61650D01*
X31556Y-61603D01*
X31560Y-61556D01*
X31573Y-61510D01*
X31595Y-61468D01*
X31624Y-61430D01*
X31661Y-61399D01*
X31702Y-61376D01*
X31748Y-61361D01*
X31795Y-61356D01*
X31842Y-61359D01*
X31888Y-61372D01*
X31931Y-61394D01*
X31968Y-61423D01*
X32000Y-61459D01*
X32023Y-61501D01*
X32038Y-61546D01*
X32044Y-61594D01*
X32045Y-61600D01*
X33045Y-61600D02*
X33040Y-61647D01*
X33026Y-61693D01*
X33004Y-61735D01*
X32973Y-61772D01*
X32937Y-61803D01*
X32894Y-61825D01*
X32849Y-61839D01*
X32801Y-61844D01*
X32755Y-61840D01*
X32709Y-61827D01*
X32666Y-61805D01*
X32629Y-61775D01*
X32598Y-61738D01*
X32575Y-61696D01*
X32561Y-61650D01*
X32556Y-61603D01*
X32560Y-61556D01*
X32573Y-61510D01*
X32595Y-61468D01*
X32624Y-61430D01*
X32661Y-61399D01*
X32702Y-61376D01*
X32748Y-61361D01*
X32795Y-61356D01*
X32842Y-61359D01*
X32888Y-61372D01*
X32931Y-61394D01*
X32968Y-61423D01*
X33000Y-61459D01*
X33023Y-61501D01*
X33038Y-61546D01*
X33044Y-61594D01*
X33045Y-61600D01*
X34045Y-61600D02*
X34040Y-61647D01*
X34026Y-61693D01*
X34004Y-61735D01*
X33973Y-61772D01*
X33937Y-61803D01*
X33894Y-61825D01*
X33849Y-61839D01*
X33801Y-61844D01*
X33755Y-61840D01*
X33709Y-61827D01*
X33666Y-61805D01*
X33629Y-61775D01*
X33598Y-61738D01*
X33575Y-61696D01*
X33561Y-61650D01*
X33556Y-61603D01*
X33560Y-61556D01*
X33573Y-61510D01*
X33595Y-61468D01*
X33624Y-61430D01*
X33661Y-61399D01*
X33702Y-61376D01*
X33748Y-61361D01*
X33795Y-61356D01*
X33842Y-61359D01*
X33888Y-61372D01*
X33931Y-61394D01*
X33968Y-61423D01*
X34000Y-61459D01*
X34023Y-61501D01*
X34038Y-61546D01*
X34044Y-61594D01*
X34045Y-61600D01*
X35045Y-61600D02*
X35040Y-61647D01*
X35026Y-61693D01*
X35004Y-61735D01*
X34973Y-61772D01*
X34937Y-61803D01*
X34894Y-61825D01*
X34849Y-61839D01*
X34801Y-61844D01*
X34755Y-61840D01*
X34709Y-61827D01*
X34666Y-61805D01*
X34629Y-61775D01*
X34598Y-61738D01*
X34575Y-61696D01*
X34561Y-61650D01*
X34556Y-61603D01*
X34560Y-61556D01*
X34573Y-61510D01*
X34595Y-61468D01*
X34624Y-61430D01*
X34661Y-61399D01*
X34702Y-61376D01*
X34748Y-61361D01*
X34795Y-61356D01*
X34842Y-61359D01*
X34888Y-61372D01*
X34931Y-61394D01*
X34968Y-61423D01*
X35000Y-61459D01*
X35023Y-61501D01*
X35038Y-61546D01*
X35044Y-61594D01*
X35045Y-61600D01*
X35045Y-58600D02*
X35040Y-58647D01*
X35026Y-58693D01*
X35004Y-58735D01*
X34973Y-58772D01*
X34937Y-58803D01*
X34894Y-58825D01*
X34849Y-58839D01*
X34801Y-58844D01*
X34755Y-58840D01*
X34709Y-58827D01*
X34666Y-58805D01*
X34629Y-58775D01*
X34598Y-58738D01*
X34575Y-58696D01*
X34561Y-58650D01*
X34556Y-58603D01*
X34560Y-58556D01*
X34573Y-58510D01*
X34595Y-58468D01*
X34624Y-58430D01*
X34661Y-58399D01*
X34702Y-58376D01*
X34748Y-58361D01*
X34795Y-58356D01*
X34842Y-58359D01*
X34888Y-58372D01*
X34931Y-58394D01*
X34968Y-58423D01*
X35000Y-58459D01*
X35023Y-58501D01*
X35038Y-58546D01*
X35044Y-58594D01*
X35045Y-58600D01*
X34045Y-58600D02*
X34040Y-58647D01*
X34026Y-58693D01*
X34004Y-58735D01*
X33973Y-58772D01*
X33937Y-58803D01*
X33894Y-58825D01*
X33849Y-58839D01*
X33801Y-58844D01*
X33755Y-58840D01*
X33709Y-58827D01*
X33666Y-58805D01*
X33629Y-58775D01*
X33598Y-58738D01*
X33575Y-58696D01*
X33561Y-58650D01*
X33556Y-58603D01*
X33560Y-58556D01*
X33573Y-58510D01*
X33595Y-58468D01*
X33624Y-58430D01*
X33661Y-58399D01*
X33702Y-58376D01*
X33748Y-58361D01*
X33795Y-58356D01*
X33842Y-58359D01*
X33888Y-58372D01*
X33931Y-58394D01*
X33968Y-58423D01*
X34000Y-58459D01*
X34023Y-58501D01*
X34038Y-58546D01*
X34044Y-58594D01*
X34045Y-58600D01*
X33045Y-58600D02*
X33040Y-58647D01*
X33026Y-58693D01*
X33004Y-58735D01*
X32973Y-58772D01*
X32937Y-58803D01*
X32894Y-58825D01*
X32849Y-58839D01*
X32801Y-58844D01*
X32755Y-58840D01*
X32709Y-58827D01*
X32666Y-58805D01*
X32629Y-58775D01*
X32598Y-58738D01*
X32575Y-58696D01*
X32561Y-58650D01*
X32556Y-58603D01*
X32560Y-58556D01*
X32573Y-58510D01*
X32595Y-58468D01*
X32624Y-58430D01*
X32661Y-58399D01*
X32702Y-58376D01*
X32748Y-58361D01*
X32795Y-58356D01*
X32842Y-58359D01*
X32888Y-58372D01*
X32931Y-58394D01*
X32968Y-58423D01*
X33000Y-58459D01*
X33023Y-58501D01*
X33038Y-58546D01*
X33044Y-58594D01*
X33045Y-58600D01*
X32045Y-58600D02*
X32040Y-58647D01*
X32026Y-58693D01*
X32004Y-58735D01*
X31973Y-58772D01*
X31937Y-58803D01*
X31894Y-58825D01*
X31849Y-58839D01*
X31801Y-58844D01*
X31755Y-58840D01*
X31709Y-58827D01*
X31666Y-58805D01*
X31629Y-58775D01*
X31598Y-58738D01*
X31575Y-58696D01*
X31561Y-58650D01*
X31556Y-58603D01*
X31560Y-58556D01*
X31573Y-58510D01*
X31595Y-58468D01*
X31624Y-58430D01*
X31661Y-58399D01*
X31702Y-58376D01*
X31748Y-58361D01*
X31795Y-58356D01*
X31842Y-58359D01*
X31888Y-58372D01*
X31931Y-58394D01*
X31968Y-58423D01*
X32000Y-58459D01*
X32023Y-58501D01*
X32038Y-58546D01*
X32044Y-58594D01*
X32045Y-58600D01*
X31045Y-58600D02*
X31040Y-58647D01*
X31026Y-58693D01*
X31004Y-58735D01*
X30973Y-58772D01*
X30937Y-58803D01*
X30894Y-58825D01*
X30849Y-58839D01*
X30801Y-58844D01*
X30755Y-58840D01*
X30709Y-58827D01*
X30666Y-58805D01*
X30629Y-58775D01*
X30598Y-58738D01*
X30575Y-58696D01*
X30561Y-58650D01*
X30556Y-58603D01*
X30560Y-58556D01*
X30573Y-58510D01*
X30595Y-58468D01*
X30624Y-58430D01*
X30661Y-58399D01*
X30702Y-58376D01*
X30748Y-58361D01*
X30795Y-58356D01*
X30842Y-58359D01*
X30888Y-58372D01*
X30931Y-58394D01*
X30968Y-58423D01*
X31000Y-58459D01*
X31023Y-58501D01*
X31038Y-58546D01*
X31044Y-58594D01*
X31045Y-58600D01*
X30045Y-58600D02*
X30040Y-58647D01*
X30026Y-58693D01*
X30004Y-58735D01*
X29973Y-58772D01*
X29937Y-58803D01*
X29894Y-58825D01*
X29849Y-58839D01*
X29801Y-58844D01*
X29755Y-58840D01*
X29709Y-58827D01*
X29666Y-58805D01*
X29629Y-58775D01*
X29598Y-58738D01*
X29575Y-58696D01*
X29561Y-58650D01*
X29556Y-58603D01*
X29560Y-58556D01*
X29573Y-58510D01*
X29595Y-58468D01*
X29624Y-58430D01*
X29661Y-58399D01*
X29702Y-58376D01*
X29748Y-58361D01*
X29795Y-58356D01*
X29842Y-58359D01*
X29888Y-58372D01*
X29931Y-58394D01*
X29968Y-58423D01*
X30000Y-58459D01*
X30023Y-58501D01*
X30038Y-58546D01*
X30044Y-58594D01*
X30045Y-58600D01*
X29045Y-58600D02*
X29040Y-58647D01*
X29026Y-58693D01*
X29004Y-58735D01*
X28973Y-58772D01*
X28937Y-58803D01*
X28894Y-58825D01*
X28849Y-58839D01*
X28801Y-58844D01*
X28755Y-58840D01*
X28709Y-58827D01*
X28666Y-58805D01*
X28629Y-58775D01*
X28598Y-58738D01*
X28575Y-58696D01*
X28561Y-58650D01*
X28556Y-58603D01*
X28560Y-58556D01*
X28573Y-58510D01*
X28595Y-58468D01*
X28624Y-58430D01*
X28661Y-58399D01*
X28702Y-58376D01*
X28748Y-58361D01*
X28795Y-58356D01*
X28842Y-58359D01*
X28888Y-58372D01*
X28931Y-58394D01*
X28968Y-58423D01*
X29000Y-58459D01*
X29023Y-58501D01*
X29038Y-58546D01*
X29044Y-58594D01*
X29045Y-58600D01*
X28045Y-58600D02*
X28040Y-58647D01*
X28026Y-58693D01*
X28004Y-58735D01*
X27973Y-58772D01*
X27937Y-58803D01*
X27894Y-58825D01*
X27849Y-58839D01*
X27801Y-58844D01*
X27755Y-58840D01*
X27709Y-58827D01*
X27666Y-58805D01*
X27629Y-58775D01*
X27598Y-58738D01*
X27575Y-58696D01*
X27561Y-58650D01*
X27556Y-58603D01*
X27560Y-58556D01*
X27573Y-58510D01*
X27595Y-58468D01*
X27624Y-58430D01*
X27661Y-58399D01*
X27702Y-58376D01*
X27748Y-58361D01*
X27795Y-58356D01*
X27842Y-58359D01*
X27888Y-58372D01*
X27931Y-58394D01*
X27968Y-58423D01*
X28000Y-58459D01*
X28023Y-58501D01*
X28038Y-58546D01*
X28044Y-58594D01*
X28045Y-58600D01*
X27045Y-58600D02*
X27040Y-58647D01*
X27026Y-58693D01*
X27004Y-58735D01*
X26973Y-58772D01*
X26937Y-58803D01*
X26894Y-58825D01*
X26849Y-58839D01*
X26801Y-58844D01*
X26755Y-58840D01*
X26709Y-58827D01*
X26666Y-58805D01*
X26629Y-58775D01*
X26598Y-58738D01*
X26575Y-58696D01*
X26561Y-58650D01*
X26556Y-58603D01*
X26560Y-58556D01*
X26573Y-58510D01*
X26595Y-58468D01*
X26624Y-58430D01*
X26661Y-58399D01*
X26702Y-58376D01*
X26748Y-58361D01*
X26795Y-58356D01*
X26842Y-58359D01*
X26888Y-58372D01*
X26931Y-58394D01*
X26968Y-58423D01*
X27000Y-58459D01*
X27023Y-58501D01*
X27038Y-58546D01*
X27044Y-58594D01*
X27045Y-58600D01*
X26045Y-58600D02*
X26040Y-58647D01*
X26026Y-58693D01*
X26004Y-58735D01*
X25973Y-58772D01*
X25937Y-58803D01*
X25894Y-58825D01*
X25849Y-58839D01*
X25801Y-58844D01*
X25755Y-58840D01*
X25709Y-58827D01*
X25666Y-58805D01*
X25629Y-58775D01*
X25598Y-58738D01*
X25575Y-58696D01*
X25561Y-58650D01*
X25556Y-58603D01*
X25560Y-58556D01*
X25573Y-58510D01*
X25595Y-58468D01*
X25624Y-58430D01*
X25661Y-58399D01*
X25702Y-58376D01*
X25748Y-58361D01*
X25795Y-58356D01*
X25842Y-58359D01*
X25888Y-58372D01*
X25931Y-58394D01*
X25968Y-58423D01*
X26000Y-58459D01*
X26023Y-58501D01*
X26038Y-58546D01*
X26044Y-58594D01*
X26045Y-58600D01*
X25380Y-63380D02*
X25380Y-66820D01*
X28820Y-66820D01*
X28820Y-63380D01*
X25380Y-63380D01*
X33920Y-66100D02*
X33913Y-66162D01*
X33895Y-66221D01*
X33866Y-66277D01*
X33827Y-66325D01*
X33778Y-66365D01*
X33724Y-66394D01*
X33664Y-66413D01*
X33602Y-66419D01*
X33541Y-66414D01*
X33481Y-66396D01*
X33425Y-66367D01*
X33377Y-66328D01*
X33336Y-66280D01*
X33306Y-66226D01*
X33287Y-66166D01*
X33281Y-66104D01*
X33286Y-66043D01*
X33303Y-65983D01*
X33332Y-65927D01*
X33370Y-65878D01*
X33418Y-65838D01*
X33472Y-65807D01*
X33532Y-65788D01*
X33594Y-65781D01*
X33655Y-65785D01*
X33715Y-65802D01*
X33771Y-65830D01*
X33820Y-65869D01*
X33861Y-65916D01*
X33892Y-65970D01*
X33912Y-66030D01*
X33919Y-66092D01*
X33920Y-66100D01*
X33280Y-64780D02*
X33280Y-65420D01*
X33920Y-65420D01*
X33920Y-64780D01*
X33280Y-64780D01*
X33920Y-64100D02*
X33913Y-64162D01*
X33895Y-64221D01*
X33866Y-64277D01*
X33827Y-64325D01*
X33778Y-64365D01*
X33724Y-64394D01*
X33664Y-64413D01*
X33602Y-64419D01*
X33541Y-64414D01*
X33481Y-64396D01*
X33425Y-64367D01*
X33377Y-64328D01*
X33336Y-64280D01*
X33306Y-64226D01*
X33287Y-64166D01*
X33281Y-64104D01*
X33286Y-64043D01*
X33303Y-63983D01*
X33332Y-63927D01*
X33370Y-63878D01*
X33418Y-63838D01*
X33472Y-63807D01*
X33532Y-63788D01*
X33594Y-63781D01*
X33655Y-63785D01*
X33715Y-63802D01*
X33771Y-63830D01*
X33820Y-63869D01*
X33861Y-63916D01*
X33892Y-63970D01*
X33912Y-64030D01*
X33919Y-64092D01*
X33920Y-64100D01*
X42280Y-63380D02*
X42280Y-66820D01*
X45720Y-66820D01*
X45720Y-63380D01*
X42280Y-63380D01*
X37820Y-64100D02*
X37813Y-64162D01*
X37795Y-64221D01*
X37766Y-64277D01*
X37727Y-64325D01*
X37678Y-64365D01*
X37624Y-64394D01*
X37564Y-64413D01*
X37502Y-64419D01*
X37441Y-64414D01*
X37381Y-64396D01*
X37325Y-64367D01*
X37277Y-64328D01*
X37236Y-64280D01*
X37206Y-64226D01*
X37187Y-64166D01*
X37181Y-64104D01*
X37186Y-64043D01*
X37203Y-63983D01*
X37232Y-63927D01*
X37270Y-63878D01*
X37318Y-63838D01*
X37372Y-63807D01*
X37432Y-63788D01*
X37494Y-63781D01*
X37555Y-63785D01*
X37615Y-63802D01*
X37671Y-63830D01*
X37720Y-63869D01*
X37761Y-63916D01*
X37792Y-63970D01*
X37812Y-64030D01*
X37819Y-64092D01*
X37820Y-64100D01*
X37180Y-64780D02*
X37180Y-65420D01*
X37820Y-65420D01*
X37820Y-64780D01*
X37180Y-64780D01*
X37820Y-66100D02*
X37813Y-66162D01*
X37795Y-66221D01*
X37766Y-66277D01*
X37727Y-66325D01*
X37678Y-66365D01*
X37624Y-66394D01*
X37564Y-66413D01*
X37502Y-66419D01*
X37441Y-66414D01*
X37381Y-66396D01*
X37325Y-66367D01*
X37277Y-66328D01*
X37236Y-66280D01*
X37206Y-66226D01*
X37187Y-66166D01*
X37181Y-66104D01*
X37186Y-66043D01*
X37203Y-65983D01*
X37232Y-65927D01*
X37270Y-65878D01*
X37318Y-65838D01*
X37372Y-65807D01*
X37432Y-65788D01*
X37494Y-65781D01*
X37555Y-65785D01*
X37615Y-65802D01*
X37671Y-65830D01*
X37720Y-65869D01*
X37761Y-65916D01*
X37792Y-65970D01*
X37812Y-66030D01*
X37819Y-66092D01*
X37820Y-66100D01*
X31130Y-68530D02*
X31130Y-69070D01*
X31670Y-69070D01*
X31670Y-68530D01*
X31130Y-68530D01*
X31670Y-69800D02*
X31664Y-69852D01*
X31649Y-69902D01*
X31624Y-69949D01*
X31591Y-69990D01*
X31550Y-70023D01*
X31504Y-70048D01*
X31454Y-70064D01*
X31401Y-70069D01*
X31350Y-70065D01*
X31299Y-70050D01*
X31253Y-70025D01*
X31212Y-69992D01*
X31178Y-69952D01*
X31152Y-69906D01*
X31136Y-69856D01*
X31131Y-69803D01*
X31135Y-69752D01*
X31149Y-69701D01*
X31174Y-69654D01*
X31206Y-69613D01*
X31246Y-69579D01*
X31292Y-69553D01*
X31343Y-69537D01*
X31395Y-69531D01*
X31446Y-69535D01*
X31497Y-69549D01*
X31544Y-69573D01*
X31586Y-69605D01*
X31620Y-69645D01*
X31646Y-69691D01*
X31663Y-69741D01*
X31669Y-69793D01*
X31670Y-69800D01*
X24430Y-68430D02*
X24430Y-68970D01*
X24970Y-68970D01*
X24970Y-68430D01*
X24430Y-68430D01*
X25970Y-68700D02*
X25964Y-68752D01*
X25949Y-68802D01*
X25924Y-68849D01*
X25891Y-68890D01*
X25850Y-68923D01*
X25804Y-68948D01*
X25754Y-68964D01*
X25701Y-68969D01*
X25650Y-68965D01*
X25599Y-68950D01*
X25553Y-68925D01*
X25512Y-68892D01*
X25478Y-68852D01*
X25452Y-68806D01*
X25436Y-68756D01*
X25431Y-68703D01*
X25435Y-68652D01*
X25449Y-68601D01*
X25474Y-68554D01*
X25506Y-68513D01*
X25546Y-68479D01*
X25592Y-68453D01*
X25643Y-68437D01*
X25695Y-68431D01*
X25746Y-68435D01*
X25797Y-68449D01*
X25844Y-68473D01*
X25886Y-68505D01*
X25920Y-68545D01*
X25946Y-68591D01*
X25963Y-68641D01*
X25969Y-68693D01*
X25970Y-68700D01*
X24970Y-69700D02*
X24964Y-69752D01*
X24949Y-69802D01*
X24924Y-69849D01*
X24891Y-69890D01*
X24850Y-69923D01*
X24804Y-69948D01*
X24754Y-69964D01*
X24701Y-69969D01*
X24650Y-69965D01*
X24599Y-69950D01*
X24553Y-69925D01*
X24512Y-69892D01*
X24478Y-69852D01*
X24452Y-69806D01*
X24436Y-69756D01*
X24431Y-69703D01*
X24435Y-69652D01*
X24449Y-69601D01*
X24474Y-69554D01*
X24506Y-69513D01*
X24546Y-69479D01*
X24592Y-69453D01*
X24643Y-69437D01*
X24695Y-69431D01*
X24746Y-69435D01*
X24797Y-69449D01*
X24844Y-69473D01*
X24886Y-69505D01*
X24920Y-69545D01*
X24946Y-69591D01*
X24963Y-69641D01*
X24969Y-69693D01*
X24970Y-69700D01*
X25970Y-69700D02*
X25964Y-69752D01*
X25949Y-69802D01*
X25924Y-69849D01*
X25891Y-69890D01*
X25850Y-69923D01*
X25804Y-69948D01*
X25754Y-69964D01*
X25701Y-69969D01*
X25650Y-69965D01*
X25599Y-69950D01*
X25553Y-69925D01*
X25512Y-69892D01*
X25478Y-69852D01*
X25452Y-69806D01*
X25436Y-69756D01*
X25431Y-69703D01*
X25435Y-69652D01*
X25449Y-69601D01*
X25474Y-69554D01*
X25506Y-69513D01*
X25546Y-69479D01*
X25592Y-69453D01*
X25643Y-69437D01*
X25695Y-69431D01*
X25746Y-69435D01*
X25797Y-69449D01*
X25844Y-69473D01*
X25886Y-69505D01*
X25920Y-69545D01*
X25946Y-69591D01*
X25963Y-69641D01*
X25969Y-69693D01*
X25970Y-69700D01*
X41430Y-69430D02*
X41430Y-69970D01*
X41970Y-69970D01*
X41970Y-69430D01*
X41430Y-69430D01*
X41970Y-68700D02*
X41964Y-68752D01*
X41949Y-68802D01*
X41924Y-68849D01*
X41891Y-68890D01*
X41850Y-68923D01*
X41804Y-68948D01*
X41754Y-68964D01*
X41701Y-68969D01*
X41650Y-68965D01*
X41599Y-68950D01*
X41553Y-68925D01*
X41512Y-68892D01*
X41478Y-68852D01*
X41452Y-68806D01*
X41436Y-68756D01*
X41431Y-68703D01*
X41435Y-68652D01*
X41449Y-68601D01*
X41474Y-68554D01*
X41506Y-68513D01*
X41546Y-68479D01*
X41592Y-68453D01*
X41643Y-68437D01*
X41695Y-68431D01*
X41746Y-68435D01*
X41797Y-68449D01*
X41844Y-68473D01*
X41886Y-68505D01*
X41920Y-68545D01*
X41946Y-68591D01*
X41963Y-68641D01*
X41969Y-68693D01*
X41970Y-68700D01*
X42970Y-69700D02*
X42964Y-69752D01*
X42949Y-69802D01*
X42924Y-69849D01*
X42891Y-69890D01*
X42850Y-69923D01*
X42804Y-69948D01*
X42754Y-69964D01*
X42701Y-69969D01*
X42650Y-69965D01*
X42599Y-69950D01*
X42553Y-69925D01*
X42512Y-69892D01*
X42478Y-69852D01*
X42452Y-69806D01*
X42436Y-69756D01*
X42431Y-69703D01*
X42435Y-69652D01*
X42449Y-69601D01*
X42474Y-69554D01*
X42506Y-69513D01*
X42546Y-69479D01*
X42592Y-69453D01*
X42643Y-69437D01*
X42695Y-69431D01*
X42746Y-69435D01*
X42797Y-69449D01*
X42844Y-69473D01*
X42886Y-69505D01*
X42920Y-69545D01*
X42946Y-69591D01*
X42963Y-69641D01*
X42969Y-69693D01*
X42970Y-69700D01*
X42970Y-68700D02*
X42964Y-68752D01*
X42949Y-68802D01*
X42924Y-68849D01*
X42891Y-68890D01*
X42850Y-68923D01*
X42804Y-68948D01*
X42754Y-68964D01*
X42701Y-68969D01*
X42650Y-68965D01*
X42599Y-68950D01*
X42553Y-68925D01*
X42512Y-68892D01*
X42478Y-68852D01*
X42452Y-68806D01*
X42436Y-68756D01*
X42431Y-68703D01*
X42435Y-68652D01*
X42449Y-68601D01*
X42474Y-68554D01*
X42506Y-68513D01*
X42546Y-68479D01*
X42592Y-68453D01*
X42643Y-68437D01*
X42695Y-68431D01*
X42746Y-68435D01*
X42797Y-68449D01*
X42844Y-68473D01*
X42886Y-68505D01*
X42920Y-68545D01*
X42946Y-68591D01*
X42963Y-68641D01*
X42969Y-68693D01*
X42970Y-68700D01*
X43970Y-69700D02*
X43964Y-69752D01*
X43949Y-69802D01*
X43924Y-69849D01*
X43891Y-69890D01*
X43850Y-69923D01*
X43804Y-69948D01*
X43754Y-69964D01*
X43701Y-69969D01*
X43650Y-69965D01*
X43599Y-69950D01*
X43553Y-69925D01*
X43512Y-69892D01*
X43478Y-69852D01*
X43452Y-69806D01*
X43436Y-69756D01*
X43431Y-69703D01*
X43435Y-69652D01*
X43449Y-69601D01*
X43474Y-69554D01*
X43506Y-69513D01*
X43546Y-69479D01*
X43592Y-69453D01*
X43643Y-69437D01*
X43695Y-69431D01*
X43746Y-69435D01*
X43797Y-69449D01*
X43844Y-69473D01*
X43886Y-69505D01*
X43920Y-69545D01*
X43946Y-69591D01*
X43963Y-69641D01*
X43969Y-69693D01*
X43970Y-69700D01*
X43970Y-68700D02*
X43964Y-68752D01*
X43949Y-68802D01*
X43924Y-68849D01*
X43891Y-68890D01*
X43850Y-68923D01*
X43804Y-68948D01*
X43754Y-68964D01*
X43701Y-68969D01*
X43650Y-68965D01*
X43599Y-68950D01*
X43553Y-68925D01*
X43512Y-68892D01*
X43478Y-68852D01*
X43452Y-68806D01*
X43436Y-68756D01*
X43431Y-68703D01*
X43435Y-68652D01*
X43449Y-68601D01*
X43474Y-68554D01*
X43506Y-68513D01*
X43546Y-68479D01*
X43592Y-68453D01*
X43643Y-68437D01*
X43695Y-68431D01*
X43746Y-68435D01*
X43797Y-68449D01*
X43844Y-68473D01*
X43886Y-68505D01*
X43920Y-68545D01*
X43946Y-68591D01*
X43963Y-68641D01*
X43969Y-68693D01*
X43970Y-68700D01*
X55803Y-45210D02*
X55796Y-45280D01*
X55775Y-45348D01*
X55742Y-45410D01*
X55697Y-45465D01*
X55642Y-45510D01*
X55580Y-45544D01*
X55512Y-45565D01*
X55442Y-45572D01*
X55372Y-45566D01*
X55305Y-45546D01*
X55242Y-45513D01*
X55187Y-45469D01*
X55141Y-45415D01*
X55107Y-45353D01*
X55085Y-45285D01*
X55078Y-45215D01*
X55083Y-45145D01*
X55103Y-45077D01*
X55135Y-45014D01*
X55179Y-44958D01*
X55233Y-44912D01*
X55295Y-44878D01*
X55363Y-44856D01*
X55433Y-44848D01*
X55503Y-44853D01*
X55571Y-44872D01*
X55634Y-44904D01*
X55690Y-44948D01*
X55736Y-45001D01*
X55771Y-45063D01*
X55793Y-45130D01*
X55802Y-45200D01*
X55803Y-45210D01*
X56866Y-46273D02*
X56859Y-46343D01*
X56838Y-46411D01*
X56805Y-46473D01*
X56760Y-46528D01*
X56705Y-46573D01*
X56643Y-46607D01*
X56575Y-46628D01*
X56505Y-46635D01*
X56435Y-46629D01*
X56368Y-46609D01*
X56305Y-46576D01*
X56250Y-46532D01*
X56204Y-46478D01*
X56170Y-46416D01*
X56148Y-46348D01*
X56141Y-46278D01*
X56146Y-46208D01*
X56166Y-46140D01*
X56198Y-46077D01*
X56242Y-46021D01*
X56296Y-45975D01*
X56358Y-45941D01*
X56426Y-45919D01*
X56496Y-45911D01*
X56566Y-45916D01*
X56634Y-45935D01*
X56697Y-45967D01*
X56753Y-46011D01*
X56799Y-46064D01*
X56834Y-46126D01*
X56856Y-46193D01*
X56865Y-46263D01*
X56866Y-46273D01*
X56866Y-44147D02*
X56859Y-44217D01*
X56838Y-44285D01*
X56805Y-44347D01*
X56760Y-44402D01*
X56705Y-44447D01*
X56643Y-44481D01*
X56575Y-44502D01*
X56505Y-44509D01*
X56435Y-44503D01*
X56368Y-44483D01*
X56305Y-44450D01*
X56250Y-44406D01*
X56204Y-44352D01*
X56170Y-44290D01*
X56148Y-44222D01*
X56141Y-44152D01*
X56146Y-44082D01*
X56166Y-44014D01*
X56198Y-43951D01*
X56242Y-43895D01*
X56296Y-43849D01*
X56358Y-43815D01*
X56426Y-43793D01*
X56496Y-43785D01*
X56566Y-43790D01*
X56634Y-43809D01*
X56697Y-43841D01*
X56753Y-43885D01*
X56799Y-43938D01*
X56834Y-44000D01*
X56856Y-44067D01*
X56865Y-44137D01*
X56866Y-44147D01*
X54740Y-44147D02*
X54733Y-44217D01*
X54712Y-44285D01*
X54679Y-44347D01*
X54634Y-44402D01*
X54579Y-44447D01*
X54517Y-44481D01*
X54449Y-44502D01*
X54379Y-44509D01*
X54309Y-44503D01*
X54242Y-44483D01*
X54179Y-44450D01*
X54124Y-44406D01*
X54078Y-44352D01*
X54044Y-44290D01*
X54022Y-44222D01*
X54015Y-44152D01*
X54020Y-44082D01*
X54040Y-44014D01*
X54072Y-43951D01*
X54116Y-43895D01*
X54170Y-43849D01*
X54232Y-43815D01*
X54300Y-43793D01*
X54370Y-43785D01*
X54440Y-43790D01*
X54508Y-43809D01*
X54571Y-43841D01*
X54627Y-43885D01*
X54673Y-43938D01*
X54708Y-44000D01*
X54730Y-44067D01*
X54739Y-44137D01*
X54740Y-44147D01*
X54740Y-46273D02*
X54733Y-46343D01*
X54712Y-46411D01*
X54679Y-46473D01*
X54634Y-46528D01*
X54579Y-46573D01*
X54517Y-46607D01*
X54449Y-46628D01*
X54379Y-46635D01*
X54309Y-46629D01*
X54242Y-46609D01*
X54179Y-46576D01*
X54124Y-46532D01*
X54078Y-46478D01*
X54044Y-46416D01*
X54022Y-46348D01*
X54015Y-46278D01*
X54020Y-46208D01*
X54040Y-46140D01*
X54072Y-46077D01*
X54116Y-46021D01*
X54170Y-45975D01*
X54232Y-45941D01*
X54300Y-45919D01*
X54370Y-45911D01*
X54440Y-45916D01*
X54508Y-45935D01*
X54571Y-45967D01*
X54627Y-46011D01*
X54673Y-46064D01*
X54708Y-46126D01*
X54730Y-46193D01*
X54739Y-46263D01*
X54740Y-46273D01*
G54D11*
X37201Y-69186D02*
X37172Y-69214D01*
X37086Y-69243D01*
X37029Y-69243D01*
X36944Y-69214D01*
X36886Y-69157D01*
X36858Y-69100D01*
X36829Y-68986D01*
X36829Y-68900D01*
X36858Y-68786D01*
X36886Y-68729D01*
X36944Y-68671D01*
X37029Y-68643D01*
X37086Y-68643D01*
X37172Y-68671D01*
X37201Y-68700D01*
X37715Y-68843D02*
X37715Y-69243D01*
X37572Y-68614D02*
X37429Y-69043D01*
X37801Y-69043D01*
X36658Y-69243D02*
X36315Y-69243D01*
X36487Y-69243D02*
X36487Y-68643D01*
X36430Y-68729D01*
X36372Y-68786D01*
X36315Y-68814D01*
X37029Y-68643D02*
X37086Y-68643D01*
X37143Y-68671D01*
X37172Y-68700D01*
X37201Y-68757D01*
X37229Y-68871D01*
X37229Y-69014D01*
X37201Y-69129D01*
X37172Y-69186D01*
X37143Y-69214D01*
X37086Y-69243D01*
X37029Y-69243D01*
X36972Y-69214D01*
X36943Y-69186D01*
X36915Y-69129D01*
X36886Y-69014D01*
X36886Y-68871D01*
X36915Y-68757D01*
X36943Y-68700D01*
X36972Y-68671D01*
X37029Y-68643D01*
X37743Y-68843D02*
X37743Y-69243D01*
X37486Y-68843D02*
X37486Y-69157D01*
X37514Y-69214D01*
X37572Y-69243D01*
X37657Y-69243D01*
X37714Y-69214D01*
X37743Y-69186D01*
X38229Y-68929D02*
X38029Y-68929D01*
X38029Y-69243D02*
X38029Y-68643D01*
X38315Y-68643D01*
X34701Y-69186D02*
X34672Y-69214D01*
X34586Y-69243D01*
X34529Y-69243D01*
X34444Y-69214D01*
X34386Y-69157D01*
X34358Y-69100D01*
X34329Y-68986D01*
X34329Y-68900D01*
X34358Y-68786D01*
X34386Y-68729D01*
X34444Y-68671D01*
X34529Y-68643D01*
X34586Y-68643D01*
X34672Y-68671D01*
X34701Y-68700D01*
X34929Y-68700D02*
X34958Y-68671D01*
X35015Y-68643D01*
X35158Y-68643D01*
X35215Y-68671D01*
X35244Y-68700D01*
X35272Y-68757D01*
X35272Y-68814D01*
X35244Y-68900D01*
X34901Y-69243D01*
X35272Y-69243D01*
X33787Y-68643D02*
X34158Y-68643D01*
X33958Y-68871D01*
X34044Y-68871D01*
X34101Y-68900D01*
X34130Y-68929D01*
X34158Y-68986D01*
X34158Y-69129D01*
X34130Y-69186D01*
X34101Y-69214D01*
X34044Y-69243D01*
X33872Y-69243D01*
X33815Y-69214D01*
X33787Y-69186D01*
X34358Y-68643D02*
X34729Y-68643D01*
X34529Y-68871D01*
X34615Y-68871D01*
X34672Y-68900D01*
X34701Y-68929D01*
X34729Y-68986D01*
X34729Y-69129D01*
X34701Y-69186D01*
X34672Y-69214D01*
X34615Y-69243D01*
X34443Y-69243D01*
X34386Y-69214D01*
X34358Y-69186D01*
X35243Y-68843D02*
X35243Y-69243D01*
X34986Y-68843D02*
X34986Y-69157D01*
X35014Y-69214D01*
X35072Y-69243D01*
X35157Y-69243D01*
X35214Y-69214D01*
X35243Y-69186D01*
X35729Y-68929D02*
X35529Y-68929D01*
X35529Y-69243D02*
X35529Y-68643D01*
X35815Y-68643D01*
G54D16*
X55087Y-63853D02*
X55087Y-64339D01*
X55109Y-64396D01*
X55130Y-64424D01*
X55173Y-64453D01*
X55259Y-64453D01*
X55301Y-64424D01*
X55323Y-64396D01*
X55344Y-64339D01*
X55344Y-63853D01*
X55794Y-64453D02*
X55537Y-64453D01*
X55665Y-64453D02*
X55665Y-63853D01*
X55622Y-63939D01*
X55580Y-63996D01*
X55537Y-64024D01*
X50614Y-63453D02*
X50614Y-62853D01*
X50764Y-63281D01*
X50914Y-62853D01*
X50914Y-63453D01*
X51107Y-63424D02*
X51171Y-63453D01*
X51278Y-63453D01*
X51321Y-63424D01*
X51342Y-63396D01*
X51364Y-63339D01*
X51364Y-63281D01*
X51342Y-63224D01*
X51321Y-63196D01*
X51278Y-63167D01*
X51192Y-63139D01*
X51150Y-63110D01*
X51128Y-63081D01*
X51107Y-63024D01*
X51107Y-62967D01*
X51128Y-62910D01*
X51150Y-62881D01*
X51192Y-62853D01*
X51300Y-62853D01*
X51364Y-62881D01*
X51557Y-63453D02*
X51557Y-62853D01*
X51729Y-62853D01*
X51771Y-62881D01*
X51793Y-62910D01*
X51814Y-62967D01*
X51814Y-63053D01*
X51793Y-63110D01*
X51771Y-63139D01*
X51729Y-63167D01*
X51557Y-63167D01*
X52200Y-63053D02*
X52200Y-63453D01*
X52093Y-62824D02*
X51986Y-63253D01*
X52264Y-63253D01*
X52393Y-62853D02*
X52672Y-62853D01*
X52522Y-63081D01*
X52586Y-63081D01*
X52629Y-63110D01*
X52650Y-63139D01*
X52672Y-63196D01*
X52672Y-63339D01*
X52650Y-63396D01*
X52629Y-63424D01*
X52586Y-63453D01*
X52458Y-63453D01*
X52415Y-63424D01*
X52393Y-63396D01*
X52951Y-62853D02*
X52994Y-62853D01*
X53037Y-62881D01*
X53058Y-62910D01*
X53079Y-62967D01*
X53101Y-63081D01*
X53101Y-63224D01*
X53079Y-63339D01*
X53058Y-63396D01*
X53037Y-63424D01*
X52994Y-63453D01*
X52951Y-63453D01*
X52908Y-63424D01*
X52887Y-63396D01*
X52865Y-63339D01*
X52844Y-63224D01*
X52844Y-63081D01*
X52865Y-62967D01*
X52887Y-62910D01*
X52908Y-62881D01*
X52951Y-62853D01*
X53530Y-62881D02*
X53487Y-62853D01*
X53423Y-62853D01*
X53358Y-62881D01*
X53316Y-62939D01*
X53294Y-62996D01*
X53273Y-63110D01*
X53273Y-63196D01*
X53294Y-63310D01*
X53316Y-63367D01*
X53358Y-63424D01*
X53423Y-63453D01*
X53466Y-63453D01*
X53530Y-63424D01*
X53551Y-63396D01*
X53551Y-63196D01*
X53466Y-63196D01*
X53723Y-62910D02*
X53744Y-62881D01*
X53787Y-62853D01*
X53894Y-62853D01*
X53937Y-62881D01*
X53958Y-62910D01*
X53980Y-62967D01*
X53980Y-63024D01*
X53958Y-63110D01*
X53701Y-63453D01*
X53980Y-63453D01*
X54152Y-62910D02*
X54173Y-62881D01*
X54216Y-62853D01*
X54323Y-62853D01*
X54366Y-62881D01*
X54387Y-62910D01*
X54409Y-62967D01*
X54409Y-63024D01*
X54387Y-63110D01*
X54130Y-63453D01*
X54409Y-63453D01*
X54559Y-62853D02*
X54838Y-62853D01*
X54688Y-63081D01*
X54752Y-63081D01*
X54795Y-63110D01*
X54816Y-63139D01*
X54838Y-63196D01*
X54838Y-63339D01*
X54816Y-63396D01*
X54795Y-63424D01*
X54752Y-63453D01*
X54624Y-63453D01*
X54581Y-63424D01*
X54559Y-63396D01*
X55267Y-63453D02*
X55010Y-63453D01*
X55138Y-63453D02*
X55138Y-62853D01*
X55095Y-62939D01*
X55053Y-62996D01*
X55010Y-63024D01*
X50987Y-56653D02*
X50987Y-57139D01*
X51009Y-57196D01*
X51030Y-57224D01*
X51073Y-57253D01*
X51159Y-57253D01*
X51201Y-57224D01*
X51223Y-57196D01*
X51244Y-57139D01*
X51244Y-56653D01*
X51651Y-56853D02*
X51651Y-57253D01*
X51544Y-56624D02*
X51437Y-57053D01*
X51715Y-57053D01*
X52661Y-57653D02*
X52961Y-57653D01*
X52768Y-58253D01*
X53326Y-57853D02*
X53326Y-58253D01*
X53219Y-57624D02*
X53112Y-58053D01*
X53390Y-58053D01*
X53776Y-58253D02*
X53562Y-58253D01*
X53562Y-57653D01*
X53862Y-57653D02*
X54012Y-58253D01*
X54162Y-57653D01*
X54398Y-57653D02*
X54441Y-57653D01*
X54484Y-57681D01*
X54505Y-57710D01*
X54526Y-57767D01*
X54548Y-57881D01*
X54548Y-58024D01*
X54526Y-58139D01*
X54505Y-58196D01*
X54484Y-58224D01*
X54441Y-58253D01*
X54398Y-58253D01*
X54355Y-58224D01*
X54334Y-58196D01*
X54312Y-58139D01*
X54291Y-58024D01*
X54291Y-57881D01*
X54312Y-57767D01*
X54334Y-57710D01*
X54355Y-57681D01*
X54398Y-57653D01*
X54827Y-57653D02*
X54870Y-57653D01*
X54913Y-57681D01*
X54934Y-57710D01*
X54955Y-57767D01*
X54977Y-57881D01*
X54977Y-58024D01*
X54955Y-58139D01*
X54934Y-58196D01*
X54913Y-58224D01*
X54870Y-58253D01*
X54827Y-58253D01*
X54784Y-58224D01*
X54763Y-58196D01*
X54741Y-58139D01*
X54720Y-58024D01*
X54720Y-57881D01*
X54741Y-57767D01*
X54763Y-57710D01*
X54784Y-57681D01*
X54827Y-57653D01*
X25268Y-45883D02*
X25268Y-45183D01*
X25440Y-45183D01*
X25482Y-45217D01*
X25504Y-45250D01*
X25525Y-45317D01*
X25525Y-45417D01*
X25504Y-45483D01*
X25482Y-45517D01*
X25440Y-45550D01*
X25268Y-45550D01*
X25932Y-45883D02*
X25718Y-45883D01*
X25718Y-45183D01*
X26082Y-45517D02*
X26232Y-45517D01*
X26296Y-45883D02*
X26082Y-45883D01*
X26082Y-45183D01*
X26296Y-45183D01*
X26489Y-45883D02*
X26489Y-45183D01*
X26596Y-45183D01*
X26661Y-45217D01*
X26703Y-45283D01*
X26725Y-45350D01*
X26746Y-45483D01*
X26746Y-45583D01*
X26725Y-45717D01*
X26703Y-45783D01*
X26661Y-45850D01*
X26596Y-45883D01*
X26489Y-45883D01*
X26832Y-45950D02*
X27175Y-45950D01*
X27282Y-45183D02*
X27282Y-45750D01*
X27304Y-45817D01*
X27325Y-45850D01*
X27368Y-45883D01*
X27454Y-45883D01*
X27496Y-45850D01*
X27518Y-45817D01*
X27539Y-45750D01*
X27539Y-45183D01*
X27967Y-45883D02*
X27753Y-45883D01*
X27753Y-45183D01*
X28353Y-45883D02*
X28096Y-45883D01*
X28224Y-45883D02*
X28224Y-45183D01*
X28181Y-45283D01*
X28139Y-45350D01*
X28096Y-45383D01*
X31964Y-46883D02*
X31964Y-46183D01*
X32071Y-46183D01*
X32136Y-46217D01*
X32178Y-46283D01*
X32200Y-46350D01*
X32221Y-46483D01*
X32221Y-46583D01*
X32200Y-46717D01*
X32178Y-46783D01*
X32136Y-46850D01*
X32071Y-46883D01*
X31964Y-46883D01*
X32414Y-46883D02*
X32414Y-46183D01*
X32842Y-46883D02*
X32628Y-46883D01*
X32628Y-46183D01*
X32971Y-46250D02*
X32992Y-46217D01*
X33035Y-46183D01*
X33142Y-46183D01*
X33185Y-46217D01*
X33206Y-46250D01*
X33228Y-46317D01*
X33228Y-46383D01*
X33206Y-46483D01*
X32949Y-46883D01*
X33228Y-46883D01*
X33507Y-46183D02*
X33550Y-46183D01*
X33593Y-46217D01*
X33614Y-46250D01*
X33635Y-46317D01*
X33657Y-46450D01*
X33657Y-46617D01*
X33635Y-46750D01*
X33614Y-46817D01*
X33593Y-46850D01*
X33550Y-46883D01*
X33507Y-46883D01*
X33464Y-46850D01*
X33443Y-46817D01*
X33421Y-46750D01*
X33400Y-46617D01*
X33400Y-46450D01*
X33421Y-46317D01*
X33443Y-46250D01*
X33464Y-46217D01*
X33507Y-46183D01*
X35236Y-59883D02*
X35236Y-59183D01*
X35408Y-59183D01*
X35450Y-59217D01*
X35472Y-59250D01*
X35493Y-59317D01*
X35493Y-59417D01*
X35472Y-59483D01*
X35450Y-59517D01*
X35408Y-59550D01*
X35236Y-59550D01*
X35900Y-59883D02*
X35686Y-59883D01*
X35686Y-59183D01*
X36050Y-59517D02*
X36200Y-59517D01*
X36264Y-59883D02*
X36050Y-59883D01*
X36050Y-59183D01*
X36264Y-59183D01*
X36457Y-59883D02*
X36457Y-59183D01*
X36564Y-59183D01*
X36629Y-59217D01*
X36671Y-59283D01*
X36693Y-59350D01*
X36714Y-59483D01*
X36714Y-59583D01*
X36693Y-59717D01*
X36671Y-59783D01*
X36629Y-59850D01*
X36564Y-59883D01*
X36457Y-59883D01*
X36800Y-59950D02*
X37143Y-59950D01*
X37400Y-59517D02*
X37464Y-59550D01*
X37486Y-59583D01*
X37507Y-59650D01*
X37507Y-59750D01*
X37486Y-59817D01*
X37464Y-59850D01*
X37422Y-59883D01*
X37250Y-59883D01*
X37250Y-59183D01*
X37400Y-59183D01*
X37443Y-59217D01*
X37464Y-59250D01*
X37486Y-59317D01*
X37486Y-59383D01*
X37464Y-59450D01*
X37443Y-59483D01*
X37400Y-59517D01*
X37250Y-59517D01*
X37957Y-59883D02*
X37807Y-59550D01*
X37700Y-59883D02*
X37700Y-59183D01*
X37872Y-59183D01*
X37914Y-59217D01*
X37936Y-59250D01*
X37957Y-59317D01*
X37957Y-59417D01*
X37936Y-59483D01*
X37914Y-59517D01*
X37872Y-59550D01*
X37700Y-59550D01*
X38386Y-59883D02*
X38129Y-59883D01*
X38257Y-59883D02*
X38257Y-59183D01*
X38214Y-59283D01*
X38172Y-59350D01*
X38129Y-59383D01*
X41964Y-60883D02*
X41964Y-60183D01*
X42071Y-60183D01*
X42136Y-60217D01*
X42178Y-60283D01*
X42200Y-60350D01*
X42221Y-60483D01*
X42221Y-60583D01*
X42200Y-60717D01*
X42178Y-60783D01*
X42136Y-60850D01*
X42071Y-60883D01*
X41964Y-60883D01*
X42414Y-60883D02*
X42414Y-60183D01*
X42842Y-60883D02*
X42628Y-60883D01*
X42628Y-60183D01*
X42971Y-60250D02*
X42992Y-60217D01*
X43035Y-60183D01*
X43142Y-60183D01*
X43185Y-60217D01*
X43206Y-60250D01*
X43228Y-60317D01*
X43228Y-60383D01*
X43206Y-60483D01*
X42949Y-60883D01*
X43228Y-60883D01*
X43507Y-60183D02*
X43550Y-60183D01*
X43593Y-60217D01*
X43614Y-60250D01*
X43635Y-60317D01*
X43657Y-60450D01*
X43657Y-60617D01*
X43635Y-60750D01*
X43614Y-60817D01*
X43593Y-60850D01*
X43550Y-60883D01*
X43507Y-60883D01*
X43464Y-60850D01*
X43443Y-60817D01*
X43421Y-60750D01*
X43400Y-60617D01*
X43400Y-60450D01*
X43421Y-60317D01*
X43443Y-60250D01*
X43464Y-60217D01*
X43507Y-60183D01*
X42225Y-46883D02*
X42225Y-46183D01*
X42397Y-46183D01*
X42439Y-46217D01*
X42461Y-46250D01*
X42482Y-46317D01*
X42482Y-46417D01*
X42461Y-46483D01*
X42439Y-46517D01*
X42397Y-46550D01*
X42225Y-46550D01*
X42889Y-46883D02*
X42675Y-46883D01*
X42675Y-46183D01*
X43039Y-46517D02*
X43189Y-46517D01*
X43253Y-46883D02*
X43039Y-46883D01*
X43039Y-46183D01*
X43253Y-46183D01*
X43446Y-46883D02*
X43446Y-46183D01*
X43553Y-46183D01*
X43618Y-46217D01*
X43660Y-46283D01*
X43682Y-46350D01*
X43703Y-46483D01*
X43703Y-46583D01*
X43682Y-46717D01*
X43660Y-46783D01*
X43618Y-46850D01*
X43553Y-46883D01*
X43446Y-46883D01*
X43789Y-46950D02*
X44132Y-46950D01*
X44239Y-46183D02*
X44239Y-46750D01*
X44261Y-46817D01*
X44282Y-46850D01*
X44325Y-46883D01*
X44411Y-46883D01*
X44453Y-46850D01*
X44475Y-46817D01*
X44496Y-46750D01*
X44496Y-46183D01*
X44967Y-46883D02*
X44817Y-46550D01*
X44710Y-46883D02*
X44710Y-46183D01*
X44882Y-46183D01*
X44924Y-46217D01*
X44946Y-46250D01*
X44967Y-46317D01*
X44967Y-46417D01*
X44946Y-46483D01*
X44924Y-46517D01*
X44882Y-46550D01*
X44710Y-46550D01*
X45396Y-46883D02*
X45139Y-46883D01*
X45267Y-46883D02*
X45267Y-46183D01*
X45224Y-46283D01*
X45182Y-46350D01*
X45139Y-46383D01*
X36964Y-45883D02*
X36964Y-45183D01*
X37071Y-45183D01*
X37136Y-45217D01*
X37178Y-45283D01*
X37200Y-45350D01*
X37221Y-45483D01*
X37221Y-45583D01*
X37200Y-45717D01*
X37178Y-45783D01*
X37136Y-45850D01*
X37071Y-45883D01*
X36964Y-45883D01*
X37414Y-45883D02*
X37414Y-45183D01*
X37842Y-45883D02*
X37628Y-45883D01*
X37628Y-45183D01*
X37971Y-45250D02*
X37992Y-45217D01*
X38035Y-45183D01*
X38142Y-45183D01*
X38185Y-45217D01*
X38206Y-45250D01*
X38228Y-45317D01*
X38228Y-45383D01*
X38206Y-45483D01*
X37949Y-45883D01*
X38228Y-45883D01*
X38507Y-45183D02*
X38550Y-45183D01*
X38593Y-45217D01*
X38614Y-45250D01*
X38635Y-45317D01*
X38657Y-45450D01*
X38657Y-45617D01*
X38635Y-45750D01*
X38614Y-45817D01*
X38593Y-45850D01*
X38550Y-45883D01*
X38507Y-45883D01*
X38464Y-45850D01*
X38443Y-45817D01*
X38421Y-45750D01*
X38400Y-45617D01*
X38400Y-45450D01*
X38421Y-45317D01*
X38443Y-45250D01*
X38464Y-45217D01*
X38507Y-45183D01*
X25279Y-59883D02*
X25279Y-59183D01*
X25451Y-59183D01*
X25493Y-59217D01*
X25515Y-59250D01*
X25536Y-59317D01*
X25536Y-59417D01*
X25515Y-59483D01*
X25493Y-59517D01*
X25451Y-59550D01*
X25279Y-59550D01*
X25943Y-59883D02*
X25729Y-59883D01*
X25729Y-59183D01*
X26093Y-59517D02*
X26243Y-59517D01*
X26307Y-59883D02*
X26093Y-59883D01*
X26093Y-59183D01*
X26307Y-59183D01*
X26500Y-59883D02*
X26500Y-59183D01*
X26607Y-59183D01*
X26672Y-59217D01*
X26714Y-59283D01*
X26736Y-59350D01*
X26757Y-59483D01*
X26757Y-59583D01*
X26736Y-59717D01*
X26714Y-59783D01*
X26672Y-59850D01*
X26607Y-59883D01*
X26500Y-59883D01*
X26843Y-59950D02*
X27186Y-59950D01*
X27443Y-59517D02*
X27507Y-59550D01*
X27529Y-59583D01*
X27550Y-59650D01*
X27550Y-59750D01*
X27529Y-59817D01*
X27507Y-59850D01*
X27465Y-59883D01*
X27293Y-59883D01*
X27293Y-59183D01*
X27443Y-59183D01*
X27486Y-59217D01*
X27507Y-59250D01*
X27529Y-59317D01*
X27529Y-59383D01*
X27507Y-59450D01*
X27486Y-59483D01*
X27443Y-59517D01*
X27293Y-59517D01*
X27957Y-59883D02*
X27743Y-59883D01*
X27743Y-59183D01*
X28343Y-59883D02*
X28086Y-59883D01*
X28214Y-59883D02*
X28214Y-59183D01*
X28171Y-59283D01*
X28129Y-59350D01*
X28086Y-59383D01*
X31964Y-60883D02*
X31964Y-60183D01*
X32071Y-60183D01*
X32136Y-60217D01*
X32178Y-60283D01*
X32200Y-60350D01*
X32221Y-60483D01*
X32221Y-60583D01*
X32200Y-60717D01*
X32178Y-60783D01*
X32136Y-60850D01*
X32071Y-60883D01*
X31964Y-60883D01*
X32414Y-60883D02*
X32414Y-60183D01*
X32842Y-60883D02*
X32628Y-60883D01*
X32628Y-60183D01*
X32971Y-60250D02*
X32992Y-60217D01*
X33035Y-60183D01*
X33142Y-60183D01*
X33185Y-60217D01*
X33206Y-60250D01*
X33228Y-60317D01*
X33228Y-60383D01*
X33206Y-60483D01*
X32949Y-60883D01*
X33228Y-60883D01*
X33507Y-60183D02*
X33550Y-60183D01*
X33593Y-60217D01*
X33614Y-60250D01*
X33635Y-60317D01*
X33657Y-60450D01*
X33657Y-60617D01*
X33635Y-60750D01*
X33614Y-60817D01*
X33593Y-60850D01*
X33550Y-60883D01*
X33507Y-60883D01*
X33464Y-60850D01*
X33443Y-60817D01*
X33421Y-60750D01*
X33400Y-60617D01*
X33400Y-60450D01*
X33421Y-60317D01*
X33443Y-60250D01*
X33464Y-60217D01*
X33507Y-60183D01*
G54D13*
X30243Y-65405D02*
X30729Y-65405D01*
X30786Y-65386D01*
X30814Y-65367D01*
X30843Y-65329D01*
X30843Y-65252D01*
X30814Y-65214D01*
X30786Y-65195D01*
X30729Y-65176D01*
X30243Y-65176D01*
X30300Y-65005D02*
X30271Y-64986D01*
X30243Y-64948D01*
X30243Y-64852D01*
X30271Y-64814D01*
X30300Y-64795D01*
X30357Y-64776D01*
X30414Y-64776D01*
X30500Y-64795D01*
X30843Y-65024D01*
X30843Y-64776D01*
X29643Y-65916D02*
X29643Y-66107D01*
X29043Y-66107D01*
X29643Y-65783D02*
X29043Y-65783D01*
X29471Y-65649D01*
X29043Y-65516D01*
X29643Y-65516D01*
X29043Y-65364D02*
X29043Y-65116D01*
X29271Y-65250D01*
X29271Y-65192D01*
X29300Y-65154D01*
X29329Y-65135D01*
X29386Y-65116D01*
X29529Y-65116D01*
X29586Y-65135D01*
X29614Y-65154D01*
X29643Y-65192D01*
X29643Y-65307D01*
X29614Y-65345D01*
X29586Y-65364D01*
X29643Y-64926D02*
X29643Y-64850D01*
X29614Y-64811D01*
X29586Y-64792D01*
X29500Y-64754D01*
X29386Y-64735D01*
X29157Y-64735D01*
X29100Y-64754D01*
X29071Y-64773D01*
X29043Y-64811D01*
X29043Y-64888D01*
X29071Y-64926D01*
X29100Y-64945D01*
X29157Y-64964D01*
X29300Y-64964D01*
X29357Y-64945D01*
X29386Y-64926D01*
X29414Y-64888D01*
X29414Y-64811D01*
X29386Y-64773D01*
X29357Y-64754D01*
X29300Y-64735D01*
X29243Y-64392D02*
X29643Y-64392D01*
X29014Y-64488D02*
X29443Y-64583D01*
X29443Y-64335D01*
X29043Y-64107D02*
X29043Y-64068D01*
X29071Y-64030D01*
X29100Y-64011D01*
X29157Y-63992D01*
X29271Y-63973D01*
X29414Y-63973D01*
X29529Y-63992D01*
X29586Y-64011D01*
X29614Y-64030D01*
X29643Y-64068D01*
X29643Y-64107D01*
X29614Y-64145D01*
X29586Y-64164D01*
X29529Y-64183D01*
X29414Y-64202D01*
X29271Y-64202D01*
X29157Y-64183D01*
X29100Y-64164D01*
X29071Y-64145D01*
X29043Y-64107D01*
X40143Y-65405D02*
X40629Y-65405D01*
X40686Y-65386D01*
X40714Y-65367D01*
X40743Y-65329D01*
X40743Y-65252D01*
X40714Y-65214D01*
X40686Y-65195D01*
X40629Y-65176D01*
X40143Y-65176D01*
X40143Y-65024D02*
X40143Y-64776D01*
X40371Y-64910D01*
X40371Y-64852D01*
X40400Y-64814D01*
X40429Y-64795D01*
X40486Y-64776D01*
X40629Y-64776D01*
X40686Y-64795D01*
X40714Y-64814D01*
X40743Y-64852D01*
X40743Y-64967D01*
X40714Y-65005D01*
X40686Y-65024D01*
X41943Y-66016D02*
X41943Y-66207D01*
X41343Y-66207D01*
X41943Y-65883D02*
X41343Y-65883D01*
X41771Y-65749D01*
X41343Y-65616D01*
X41943Y-65616D01*
X41343Y-65464D02*
X41343Y-65197D01*
X41943Y-65369D01*
X41600Y-64988D02*
X41571Y-65026D01*
X41543Y-65045D01*
X41486Y-65064D01*
X41457Y-65064D01*
X41400Y-65045D01*
X41371Y-65026D01*
X41343Y-64988D01*
X41343Y-64911D01*
X41371Y-64873D01*
X41400Y-64854D01*
X41457Y-64835D01*
X41486Y-64835D01*
X41543Y-64854D01*
X41571Y-64873D01*
X41600Y-64911D01*
X41600Y-64988D01*
X41629Y-65026D01*
X41657Y-65045D01*
X41714Y-65064D01*
X41829Y-65064D01*
X41886Y-65045D01*
X41914Y-65026D01*
X41943Y-64988D01*
X41943Y-64911D01*
X41914Y-64873D01*
X41886Y-64854D01*
X41829Y-64835D01*
X41714Y-64835D01*
X41657Y-64854D01*
X41629Y-64873D01*
X41600Y-64911D01*
X41343Y-64588D02*
X41343Y-64549D01*
X41371Y-64511D01*
X41400Y-64492D01*
X41457Y-64473D01*
X41571Y-64454D01*
X41714Y-64454D01*
X41829Y-64473D01*
X41886Y-64492D01*
X41914Y-64511D01*
X41943Y-64549D01*
X41943Y-64588D01*
X41914Y-64626D01*
X41886Y-64645D01*
X41829Y-64664D01*
X41714Y-64683D01*
X41571Y-64683D01*
X41457Y-64664D01*
X41400Y-64645D01*
X41371Y-64626D01*
X41343Y-64588D01*
X41343Y-64092D02*
X41343Y-64283D01*
X41629Y-64302D01*
X41600Y-64283D01*
X41571Y-64245D01*
X41571Y-64149D01*
X41600Y-64111D01*
X41629Y-64092D01*
X41686Y-64073D01*
X41829Y-64073D01*
X41886Y-64092D01*
X41914Y-64111D01*
X41943Y-64149D01*
X41943Y-64245D01*
X41914Y-64283D01*
X41886Y-64302D01*
G54D10*
X32271Y-69522D02*
X31971Y-69522D01*
X31971Y-69407D01*
X31986Y-69379D01*
X32000Y-69364D01*
X32029Y-69350D01*
X32071Y-69350D01*
X32100Y-69364D01*
X32114Y-69379D01*
X32129Y-69407D01*
X32129Y-69522D01*
X32000Y-69236D02*
X31986Y-69222D01*
X31971Y-69193D01*
X31971Y-69122D01*
X31986Y-69093D01*
X32000Y-69079D01*
X32029Y-69064D01*
X32057Y-69064D01*
X32100Y-69079D01*
X32271Y-69250D01*
X32271Y-69064D01*
G54D13*
X26712Y-69345D02*
X26312Y-69345D01*
X26312Y-69192D01*
X26331Y-69154D01*
X26350Y-69135D01*
X26388Y-69116D01*
X26445Y-69116D01*
X26483Y-69135D01*
X26502Y-69154D01*
X26521Y-69192D01*
X26521Y-69345D01*
X26712Y-68735D02*
X26712Y-68964D01*
X26712Y-68850D02*
X26312Y-68850D01*
X26369Y-68888D01*
X26407Y-68926D01*
X26426Y-68964D01*
X42405Y-67862D02*
X42405Y-67462D01*
X42558Y-67462D01*
X42596Y-67481D01*
X42615Y-67500D01*
X42634Y-67538D01*
X42634Y-67595D01*
X42615Y-67633D01*
X42596Y-67652D01*
X42558Y-67671D01*
X42405Y-67671D01*
X42977Y-67595D02*
X42977Y-67862D01*
X42881Y-67443D02*
X42786Y-67729D01*
X43034Y-67729D01*
G54D17*
X53056Y-69322D02*
X53323Y-69722D01*
X53323Y-69322D02*
X53056Y-69722D01*
X53685Y-69722D02*
X53456Y-69722D01*
X53570Y-69722D02*
X53570Y-69322D01*
X53532Y-69379D01*
X53494Y-69417D01*
X53456Y-69436D01*
X51856Y-69322D02*
X52104Y-69322D01*
X51970Y-69474D01*
X52028Y-69474D01*
X52066Y-69493D01*
X52085Y-69512D01*
X52104Y-69550D01*
X52104Y-69646D01*
X52085Y-69684D01*
X52066Y-69703D01*
X52028Y-69722D01*
X51913Y-69722D01*
X51875Y-69703D01*
X51856Y-69684D01*
X52256Y-69360D02*
X52275Y-69341D01*
X52313Y-69322D01*
X52409Y-69322D01*
X52447Y-69341D01*
X52466Y-69360D01*
X52485Y-69398D01*
X52485Y-69436D01*
X52466Y-69493D01*
X52237Y-69722D01*
X52485Y-69722D01*
X52656Y-69684D02*
X52675Y-69703D01*
X52656Y-69722D01*
X52637Y-69703D01*
X52656Y-69684D01*
X52656Y-69722D01*
X52808Y-69322D02*
X53075Y-69322D01*
X52903Y-69722D01*
X53399Y-69322D02*
X53322Y-69322D01*
X53284Y-69341D01*
X53265Y-69360D01*
X53227Y-69417D01*
X53208Y-69493D01*
X53208Y-69646D01*
X53227Y-69684D01*
X53246Y-69703D01*
X53284Y-69722D01*
X53361Y-69722D01*
X53399Y-69703D01*
X53418Y-69684D01*
X53437Y-69646D01*
X53437Y-69550D01*
X53418Y-69512D01*
X53399Y-69493D01*
X53361Y-69474D01*
X53284Y-69474D01*
X53246Y-69493D01*
X53227Y-69512D01*
X53208Y-69550D01*
X53665Y-69493D02*
X53627Y-69474D01*
X53608Y-69455D01*
X53589Y-69417D01*
X53589Y-69398D01*
X53608Y-69360D01*
X53627Y-69341D01*
X53665Y-69322D01*
X53742Y-69322D01*
X53780Y-69341D01*
X53799Y-69360D01*
X53818Y-69398D01*
X53818Y-69417D01*
X53799Y-69455D01*
X53780Y-69474D01*
X53742Y-69493D01*
X53665Y-69493D01*
X53627Y-69512D01*
X53608Y-69531D01*
X53589Y-69570D01*
X53589Y-69646D01*
X53608Y-69684D01*
X53627Y-69703D01*
X53665Y-69722D01*
X53742Y-69722D01*
X53780Y-69703D01*
X53799Y-69684D01*
X53818Y-69646D01*
X53818Y-69570D01*
X53799Y-69531D01*
X53780Y-69512D01*
X53742Y-69493D01*
X53989Y-69722D02*
X53989Y-69322D01*
X54027Y-69570D02*
X54142Y-69722D01*
X54142Y-69455D02*
X53989Y-69608D01*
X54313Y-69722D02*
X54313Y-69322D01*
X54313Y-69512D02*
X54542Y-69512D01*
X54542Y-69722D02*
X54542Y-69322D01*
X54694Y-69455D02*
X54904Y-69455D01*
X54694Y-69722D01*
X54904Y-69722D01*
X55766Y-48852D02*
X56033Y-49252D01*
X56033Y-48852D02*
X55766Y-49252D01*
X56166Y-48890D02*
X56185Y-48871D01*
X56223Y-48852D01*
X56319Y-48852D01*
X56357Y-48871D01*
X56376Y-48890D01*
X56395Y-48928D01*
X56395Y-48966D01*
X56376Y-49023D01*
X56147Y-49252D01*
X56395Y-49252D01*
X55414Y-49252D02*
X55185Y-49252D01*
X55299Y-49252D02*
X55299Y-48852D01*
X55261Y-48909D01*
X55223Y-48947D01*
X55185Y-48966D01*
X55661Y-48852D02*
X55700Y-48852D01*
X55738Y-48871D01*
X55757Y-48890D01*
X55776Y-48928D01*
X55795Y-49004D01*
X55795Y-49100D01*
X55776Y-49176D01*
X55757Y-49214D01*
X55738Y-49233D01*
X55700Y-49252D01*
X55661Y-49252D01*
X55623Y-49233D01*
X55604Y-49214D01*
X55585Y-49176D01*
X55566Y-49100D01*
X55566Y-49004D01*
X55585Y-48928D01*
X55604Y-48890D01*
X55623Y-48871D01*
X55661Y-48852D01*
X55966Y-49252D02*
X55966Y-48852D01*
X56100Y-49138D01*
X56233Y-48852D01*
X56233Y-49252D01*
X56423Y-49252D02*
X56423Y-48852D01*
X56423Y-49042D02*
X56652Y-49042D01*
X56652Y-49252D02*
X56652Y-48852D01*
X56804Y-48985D02*
X57014Y-48985D01*
X56804Y-49252D01*
X57014Y-49252D01*
G54D15*
X53020Y-67441D02*
X52920Y-67299D01*
X52848Y-67441D02*
X52848Y-67141D01*
X52963Y-67141D01*
X52991Y-67156D01*
X53006Y-67170D01*
X53020Y-67199D01*
X53020Y-67241D01*
X53006Y-67270D01*
X52991Y-67284D01*
X52963Y-67299D01*
X52848Y-67299D01*
X53120Y-67141D02*
X53306Y-67141D01*
X53206Y-67256D01*
X53248Y-67256D01*
X53277Y-67270D01*
X53291Y-67284D01*
X53306Y-67313D01*
X53306Y-67384D01*
X53291Y-67413D01*
X53277Y-67427D01*
X53248Y-67441D01*
X53163Y-67441D01*
X53134Y-67427D01*
X53120Y-67413D01*
X36157Y-57193D02*
X36143Y-57207D01*
X36100Y-57221D01*
X36071Y-57221D01*
X36028Y-57207D01*
X36000Y-57179D01*
X35985Y-57150D01*
X35971Y-57093D01*
X35971Y-57050D01*
X35985Y-56993D01*
X36000Y-56964D01*
X36028Y-56936D01*
X36071Y-56921D01*
X36100Y-56921D01*
X36143Y-56936D01*
X36157Y-56950D01*
X36443Y-57221D02*
X36271Y-57221D01*
X36357Y-57221D02*
X36357Y-56921D01*
X36328Y-56964D01*
X36300Y-56993D01*
X36271Y-57007D01*
X36671Y-57064D02*
X36714Y-57079D01*
X36729Y-57093D01*
X36743Y-57121D01*
X36743Y-57164D01*
X36729Y-57193D01*
X36714Y-57207D01*
X36686Y-57221D01*
X36571Y-57221D01*
X36571Y-56921D01*
X36671Y-56921D01*
X36700Y-56936D01*
X36714Y-56950D01*
X36729Y-56979D01*
X36729Y-57007D01*
X36714Y-57036D01*
X36700Y-57050D01*
X36671Y-57064D01*
X36571Y-57064D01*
X37029Y-57221D02*
X36857Y-57221D01*
X36943Y-57221D02*
X36943Y-56921D01*
X36914Y-56964D01*
X36886Y-56993D01*
X36857Y-57007D01*
X26550Y-57193D02*
X26536Y-57207D01*
X26493Y-57221D01*
X26464Y-57221D01*
X26421Y-57207D01*
X26393Y-57179D01*
X26378Y-57150D01*
X26364Y-57093D01*
X26364Y-57050D01*
X26378Y-56993D01*
X26393Y-56964D01*
X26421Y-56936D01*
X26464Y-56921D01*
X26493Y-56921D01*
X26536Y-56936D01*
X26550Y-56950D01*
X26836Y-57221D02*
X26664Y-57221D01*
X26750Y-57221D02*
X26750Y-56921D01*
X26721Y-56964D01*
X26693Y-56993D01*
X26664Y-57007D01*
X31314Y-54093D02*
X31300Y-54107D01*
X31257Y-54121D01*
X31228Y-54121D01*
X31185Y-54107D01*
X31157Y-54079D01*
X31142Y-54050D01*
X31128Y-53993D01*
X31128Y-53950D01*
X31142Y-53893D01*
X31157Y-53864D01*
X31185Y-53836D01*
X31228Y-53821D01*
X31257Y-53821D01*
X31300Y-53836D01*
X31314Y-53850D01*
X31600Y-54121D02*
X31428Y-54121D01*
X31514Y-54121D02*
X31514Y-53821D01*
X31485Y-53864D01*
X31457Y-53893D01*
X31428Y-53907D01*
X31700Y-53821D02*
X31886Y-53821D01*
X31786Y-53936D01*
X31828Y-53936D01*
X31857Y-53950D01*
X31871Y-53964D01*
X31886Y-53993D01*
X31886Y-54064D01*
X31871Y-54093D01*
X31857Y-54107D01*
X31828Y-54121D01*
X31743Y-54121D01*
X31714Y-54107D01*
X31700Y-54093D01*
X32114Y-53964D02*
X32157Y-53979D01*
X32172Y-53993D01*
X32186Y-54021D01*
X32186Y-54064D01*
X32172Y-54093D01*
X32157Y-54107D01*
X32129Y-54121D01*
X32014Y-54121D01*
X32014Y-53821D01*
X32114Y-53821D01*
X32143Y-53836D01*
X32157Y-53850D01*
X32172Y-53879D01*
X32172Y-53907D01*
X32157Y-53936D01*
X32143Y-53950D01*
X32114Y-53964D01*
X32014Y-53964D01*
X32472Y-54121D02*
X32300Y-54121D01*
X32386Y-54121D02*
X32386Y-53821D01*
X32357Y-53864D01*
X32329Y-53893D01*
X32300Y-53907D01*
X31314Y-51993D02*
X31300Y-52007D01*
X31257Y-52021D01*
X31228Y-52021D01*
X31185Y-52007D01*
X31157Y-51979D01*
X31142Y-51950D01*
X31128Y-51893D01*
X31128Y-51850D01*
X31142Y-51793D01*
X31157Y-51764D01*
X31185Y-51736D01*
X31228Y-51721D01*
X31257Y-51721D01*
X31300Y-51736D01*
X31314Y-51750D01*
X31600Y-52021D02*
X31428Y-52021D01*
X31514Y-52021D02*
X31514Y-51721D01*
X31485Y-51764D01*
X31457Y-51793D01*
X31428Y-51807D01*
X31714Y-51750D02*
X31728Y-51736D01*
X31757Y-51721D01*
X31828Y-51721D01*
X31857Y-51736D01*
X31871Y-51750D01*
X31886Y-51779D01*
X31886Y-51807D01*
X31871Y-51850D01*
X31700Y-52021D01*
X31886Y-52021D01*
X32114Y-51864D02*
X32157Y-51879D01*
X32172Y-51893D01*
X32186Y-51921D01*
X32186Y-51964D01*
X32172Y-51993D01*
X32157Y-52007D01*
X32129Y-52021D01*
X32014Y-52021D01*
X32014Y-51721D01*
X32114Y-51721D01*
X32143Y-51736D01*
X32157Y-51750D01*
X32172Y-51779D01*
X32172Y-51807D01*
X32157Y-51836D01*
X32143Y-51850D01*
X32114Y-51864D01*
X32014Y-51864D01*
X32472Y-52021D02*
X32300Y-52021D01*
X32386Y-52021D02*
X32386Y-51721D01*
X32357Y-51764D01*
X32329Y-51793D01*
X32300Y-51807D01*
X25914Y-51993D02*
X25900Y-52007D01*
X25857Y-52021D01*
X25828Y-52021D01*
X25785Y-52007D01*
X25757Y-51979D01*
X25742Y-51950D01*
X25728Y-51893D01*
X25728Y-51850D01*
X25742Y-51793D01*
X25757Y-51764D01*
X25785Y-51736D01*
X25828Y-51721D01*
X25857Y-51721D01*
X25900Y-51736D01*
X25914Y-51750D01*
X26200Y-52021D02*
X26028Y-52021D01*
X26114Y-52021D02*
X26114Y-51721D01*
X26085Y-51764D01*
X26057Y-51793D01*
X26028Y-51807D01*
X26486Y-52021D02*
X26314Y-52021D01*
X26400Y-52021D02*
X26400Y-51721D01*
X26371Y-51764D01*
X26343Y-51793D01*
X26314Y-51807D01*
X26714Y-51864D02*
X26757Y-51879D01*
X26772Y-51893D01*
X26786Y-51921D01*
X26786Y-51964D01*
X26772Y-51993D01*
X26757Y-52007D01*
X26729Y-52021D01*
X26614Y-52021D01*
X26614Y-51721D01*
X26714Y-51721D01*
X26743Y-51736D01*
X26757Y-51750D01*
X26772Y-51779D01*
X26772Y-51807D01*
X26757Y-51836D01*
X26743Y-51850D01*
X26714Y-51864D01*
X26614Y-51864D01*
X27072Y-52021D02*
X26900Y-52021D01*
X26986Y-52021D02*
X26986Y-51721D01*
X26957Y-51764D01*
X26929Y-51793D01*
X26900Y-51807D01*
X56451Y-68910D02*
X56309Y-69010D01*
X56451Y-69082D02*
X56151Y-69082D01*
X56151Y-68967D01*
X56166Y-68939D01*
X56180Y-68924D01*
X56209Y-68910D01*
X56251Y-68910D01*
X56280Y-68924D01*
X56294Y-68939D01*
X56309Y-68967D01*
X56309Y-69082D01*
X56180Y-68796D02*
X56166Y-68782D01*
X56151Y-68753D01*
X56151Y-68682D01*
X56166Y-68653D01*
X56180Y-68639D01*
X56209Y-68624D01*
X56237Y-68624D01*
X56280Y-68639D01*
X56451Y-68810D01*
X56451Y-68624D01*
X36157Y-51993D02*
X36143Y-52007D01*
X36100Y-52021D01*
X36071Y-52021D01*
X36028Y-52007D01*
X36000Y-51979D01*
X35985Y-51950D01*
X35971Y-51893D01*
X35971Y-51850D01*
X35985Y-51793D01*
X36000Y-51764D01*
X36028Y-51736D01*
X36071Y-51721D01*
X36100Y-51721D01*
X36143Y-51736D01*
X36157Y-51750D01*
X36300Y-52021D02*
X36357Y-52021D01*
X36385Y-52007D01*
X36400Y-51993D01*
X36428Y-51950D01*
X36443Y-51893D01*
X36443Y-51779D01*
X36428Y-51750D01*
X36414Y-51736D01*
X36385Y-51721D01*
X36328Y-51721D01*
X36300Y-51736D01*
X36285Y-51750D01*
X36271Y-51779D01*
X36271Y-51850D01*
X36285Y-51879D01*
X36300Y-51893D01*
X36328Y-51907D01*
X36385Y-51907D01*
X36414Y-51893D01*
X36428Y-51879D01*
X36443Y-51850D01*
X36671Y-51864D02*
X36714Y-51879D01*
X36729Y-51893D01*
X36743Y-51921D01*
X36743Y-51964D01*
X36729Y-51993D01*
X36714Y-52007D01*
X36686Y-52021D01*
X36571Y-52021D01*
X36571Y-51721D01*
X36671Y-51721D01*
X36700Y-51736D01*
X36714Y-51750D01*
X36729Y-51779D01*
X36729Y-51807D01*
X36714Y-51836D01*
X36700Y-51850D01*
X36671Y-51864D01*
X36571Y-51864D01*
X37029Y-52021D02*
X36857Y-52021D01*
X36943Y-52021D02*
X36943Y-51721D01*
X36914Y-51764D01*
X36886Y-51793D01*
X36857Y-51807D01*
X34857Y-49793D02*
X34843Y-49807D01*
X34800Y-49821D01*
X34771Y-49821D01*
X34728Y-49807D01*
X34700Y-49779D01*
X34685Y-49750D01*
X34671Y-49693D01*
X34671Y-49650D01*
X34685Y-49593D01*
X34700Y-49564D01*
X34728Y-49536D01*
X34771Y-49521D01*
X34800Y-49521D01*
X34843Y-49536D01*
X34857Y-49550D01*
X34957Y-49521D02*
X35157Y-49521D01*
X35028Y-49821D01*
X35371Y-49664D02*
X35414Y-49679D01*
X35429Y-49693D01*
X35443Y-49721D01*
X35443Y-49764D01*
X35429Y-49793D01*
X35414Y-49807D01*
X35386Y-49821D01*
X35271Y-49821D01*
X35271Y-49521D01*
X35371Y-49521D01*
X35400Y-49536D01*
X35414Y-49550D01*
X35429Y-49579D01*
X35429Y-49607D01*
X35414Y-49636D01*
X35400Y-49650D01*
X35371Y-49664D01*
X35271Y-49664D01*
X35729Y-49821D02*
X35557Y-49821D01*
X35643Y-49821D02*
X35643Y-49521D01*
X35614Y-49564D01*
X35586Y-49593D01*
X35557Y-49607D01*
X31457Y-49793D02*
X31443Y-49807D01*
X31400Y-49821D01*
X31371Y-49821D01*
X31328Y-49807D01*
X31300Y-49779D01*
X31285Y-49750D01*
X31271Y-49693D01*
X31271Y-49650D01*
X31285Y-49593D01*
X31300Y-49564D01*
X31328Y-49536D01*
X31371Y-49521D01*
X31400Y-49521D01*
X31443Y-49536D01*
X31457Y-49550D01*
X31714Y-49521D02*
X31657Y-49521D01*
X31628Y-49536D01*
X31614Y-49550D01*
X31585Y-49593D01*
X31571Y-49650D01*
X31571Y-49764D01*
X31585Y-49793D01*
X31600Y-49807D01*
X31628Y-49821D01*
X31685Y-49821D01*
X31714Y-49807D01*
X31728Y-49793D01*
X31743Y-49764D01*
X31743Y-49693D01*
X31728Y-49664D01*
X31714Y-49650D01*
X31685Y-49636D01*
X31628Y-49636D01*
X31600Y-49650D01*
X31585Y-49664D01*
X31571Y-49693D01*
X31971Y-49664D02*
X32014Y-49679D01*
X32029Y-49693D01*
X32043Y-49721D01*
X32043Y-49764D01*
X32029Y-49793D01*
X32014Y-49807D01*
X31986Y-49821D01*
X31871Y-49821D01*
X31871Y-49521D01*
X31971Y-49521D01*
X32000Y-49536D01*
X32014Y-49550D01*
X32029Y-49579D01*
X32029Y-49607D01*
X32014Y-49636D01*
X32000Y-49650D01*
X31971Y-49664D01*
X31871Y-49664D01*
X32329Y-49821D02*
X32157Y-49821D01*
X32243Y-49821D02*
X32243Y-49521D01*
X32214Y-49564D01*
X32186Y-49593D01*
X32157Y-49607D01*
X46730Y-69583D02*
X46716Y-69597D01*
X46673Y-69611D01*
X46644Y-69611D01*
X46601Y-69597D01*
X46573Y-69569D01*
X46558Y-69540D01*
X46544Y-69483D01*
X46544Y-69440D01*
X46558Y-69383D01*
X46573Y-69354D01*
X46601Y-69326D01*
X46644Y-69311D01*
X46673Y-69311D01*
X46716Y-69326D01*
X46730Y-69340D01*
X46987Y-69311D02*
X46930Y-69311D01*
X46901Y-69326D01*
X46887Y-69340D01*
X46858Y-69383D01*
X46844Y-69440D01*
X46844Y-69554D01*
X46858Y-69583D01*
X46873Y-69597D01*
X46901Y-69611D01*
X46958Y-69611D01*
X46987Y-69597D01*
X47001Y-69583D01*
X47016Y-69554D01*
X47016Y-69483D01*
X47001Y-69454D01*
X46987Y-69440D01*
X46958Y-69426D01*
X46901Y-69426D01*
X46873Y-69440D01*
X46858Y-69454D01*
X46844Y-69483D01*
X43957Y-49793D02*
X43943Y-49807D01*
X43900Y-49821D01*
X43871Y-49821D01*
X43828Y-49807D01*
X43800Y-49779D01*
X43785Y-49750D01*
X43771Y-49693D01*
X43771Y-49650D01*
X43785Y-49593D01*
X43800Y-49564D01*
X43828Y-49536D01*
X43871Y-49521D01*
X43900Y-49521D01*
X43943Y-49536D01*
X43957Y-49550D01*
X44228Y-49521D02*
X44085Y-49521D01*
X44071Y-49664D01*
X44085Y-49650D01*
X44114Y-49636D01*
X44185Y-49636D01*
X44214Y-49650D01*
X44228Y-49664D01*
X44243Y-49693D01*
X44243Y-49764D01*
X44228Y-49793D01*
X44214Y-49807D01*
X44185Y-49821D01*
X44114Y-49821D01*
X44085Y-49807D01*
X44071Y-49793D01*
X44471Y-49664D02*
X44514Y-49679D01*
X44529Y-49693D01*
X44543Y-49721D01*
X44543Y-49764D01*
X44529Y-49793D01*
X44514Y-49807D01*
X44486Y-49821D01*
X44371Y-49821D01*
X44371Y-49521D01*
X44471Y-49521D01*
X44500Y-49536D01*
X44514Y-49550D01*
X44529Y-49579D01*
X44529Y-49607D01*
X44514Y-49636D01*
X44500Y-49650D01*
X44471Y-49664D01*
X44371Y-49664D01*
X44829Y-49821D02*
X44657Y-49821D01*
X44743Y-49821D02*
X44743Y-49521D01*
X44714Y-49564D01*
X44686Y-49593D01*
X44657Y-49607D01*
X57893Y-68910D02*
X57907Y-68924D01*
X57921Y-68967D01*
X57921Y-68996D01*
X57907Y-69039D01*
X57879Y-69067D01*
X57850Y-69082D01*
X57793Y-69096D01*
X57750Y-69096D01*
X57693Y-69082D01*
X57664Y-69067D01*
X57636Y-69039D01*
X57621Y-68996D01*
X57621Y-68967D01*
X57636Y-68924D01*
X57650Y-68910D01*
X57621Y-68639D02*
X57621Y-68782D01*
X57764Y-68796D01*
X57750Y-68782D01*
X57736Y-68753D01*
X57736Y-68682D01*
X57750Y-68653D01*
X57764Y-68639D01*
X57793Y-68624D01*
X57864Y-68624D01*
X57893Y-68639D01*
X57907Y-68653D01*
X57921Y-68682D01*
X57921Y-68753D01*
X57907Y-68782D01*
X57893Y-68796D01*
X40457Y-49793D02*
X40443Y-49807D01*
X40400Y-49821D01*
X40371Y-49821D01*
X40328Y-49807D01*
X40300Y-49779D01*
X40285Y-49750D01*
X40271Y-49693D01*
X40271Y-49650D01*
X40285Y-49593D01*
X40300Y-49564D01*
X40328Y-49536D01*
X40371Y-49521D01*
X40400Y-49521D01*
X40443Y-49536D01*
X40457Y-49550D01*
X40714Y-49621D02*
X40714Y-49821D01*
X40643Y-49507D02*
X40571Y-49721D01*
X40757Y-49721D01*
X40971Y-49664D02*
X41014Y-49679D01*
X41029Y-49693D01*
X41043Y-49721D01*
X41043Y-49764D01*
X41029Y-49793D01*
X41014Y-49807D01*
X40986Y-49821D01*
X40871Y-49821D01*
X40871Y-49521D01*
X40971Y-49521D01*
X41000Y-49536D01*
X41014Y-49550D01*
X41029Y-49579D01*
X41029Y-49607D01*
X41014Y-49636D01*
X41000Y-49650D01*
X40971Y-49664D01*
X40871Y-49664D01*
X41329Y-49821D02*
X41157Y-49821D01*
X41243Y-49821D02*
X41243Y-49521D01*
X41214Y-49564D01*
X41186Y-49593D01*
X41157Y-49607D01*
X37514Y-49793D02*
X37500Y-49807D01*
X37457Y-49821D01*
X37428Y-49821D01*
X37385Y-49807D01*
X37357Y-49779D01*
X37342Y-49750D01*
X37328Y-49693D01*
X37328Y-49650D01*
X37342Y-49593D01*
X37357Y-49564D01*
X37385Y-49536D01*
X37428Y-49521D01*
X37457Y-49521D01*
X37500Y-49536D01*
X37514Y-49550D01*
X37800Y-49821D02*
X37628Y-49821D01*
X37714Y-49821D02*
X37714Y-49521D01*
X37685Y-49564D01*
X37657Y-49593D01*
X37628Y-49607D01*
X37986Y-49521D02*
X38014Y-49521D01*
X38043Y-49536D01*
X38057Y-49550D01*
X38071Y-49579D01*
X38086Y-49636D01*
X38086Y-49707D01*
X38071Y-49764D01*
X38057Y-49793D01*
X38043Y-49807D01*
X38014Y-49821D01*
X37986Y-49821D01*
X37957Y-49807D01*
X37943Y-49793D01*
X37928Y-49764D01*
X37914Y-49707D01*
X37914Y-49636D01*
X37928Y-49579D01*
X37943Y-49550D01*
X37957Y-49536D01*
X37986Y-49521D01*
X38314Y-49664D02*
X38357Y-49679D01*
X38372Y-49693D01*
X38386Y-49721D01*
X38386Y-49764D01*
X38372Y-49793D01*
X38357Y-49807D01*
X38329Y-49821D01*
X38214Y-49821D01*
X38214Y-49521D01*
X38314Y-49521D01*
X38343Y-49536D01*
X38357Y-49550D01*
X38372Y-49579D01*
X38372Y-49607D01*
X38357Y-49636D01*
X38343Y-49650D01*
X38314Y-49664D01*
X38214Y-49664D01*
X38672Y-49821D02*
X38500Y-49821D01*
X38586Y-49821D02*
X38586Y-49521D01*
X38557Y-49564D01*
X38529Y-49593D01*
X38500Y-49607D01*
X41957Y-54093D02*
X41943Y-54107D01*
X41900Y-54121D01*
X41871Y-54121D01*
X41828Y-54107D01*
X41800Y-54079D01*
X41785Y-54050D01*
X41771Y-53993D01*
X41771Y-53950D01*
X41785Y-53893D01*
X41800Y-53864D01*
X41828Y-53836D01*
X41871Y-53821D01*
X41900Y-53821D01*
X41943Y-53836D01*
X41957Y-53850D01*
X42057Y-53821D02*
X42243Y-53821D01*
X42143Y-53936D01*
X42185Y-53936D01*
X42214Y-53950D01*
X42228Y-53964D01*
X42243Y-53993D01*
X42243Y-54064D01*
X42228Y-54093D01*
X42214Y-54107D01*
X42185Y-54121D01*
X42100Y-54121D01*
X42071Y-54107D01*
X42057Y-54093D01*
X42471Y-53964D02*
X42514Y-53979D01*
X42529Y-53993D01*
X42543Y-54021D01*
X42543Y-54064D01*
X42529Y-54093D01*
X42514Y-54107D01*
X42486Y-54121D01*
X42371Y-54121D01*
X42371Y-53821D01*
X42471Y-53821D01*
X42500Y-53836D01*
X42514Y-53850D01*
X42529Y-53879D01*
X42529Y-53907D01*
X42514Y-53936D01*
X42500Y-53950D01*
X42471Y-53964D01*
X42371Y-53964D01*
X42829Y-54121D02*
X42657Y-54121D01*
X42743Y-54121D02*
X42743Y-53821D01*
X42714Y-53864D01*
X42686Y-53893D01*
X42657Y-53907D01*
X35793Y-65550D02*
X35807Y-65564D01*
X35821Y-65607D01*
X35821Y-65636D01*
X35807Y-65679D01*
X35779Y-65707D01*
X35750Y-65722D01*
X35693Y-65736D01*
X35650Y-65736D01*
X35593Y-65722D01*
X35564Y-65707D01*
X35536Y-65679D01*
X35521Y-65636D01*
X35521Y-65607D01*
X35536Y-65564D01*
X35550Y-65550D01*
X35521Y-65450D02*
X35521Y-65264D01*
X35636Y-65364D01*
X35636Y-65322D01*
X35650Y-65293D01*
X35664Y-65279D01*
X35693Y-65264D01*
X35764Y-65264D01*
X35793Y-65279D01*
X35807Y-65293D01*
X35821Y-65322D01*
X35821Y-65407D01*
X35807Y-65436D01*
X35793Y-65450D01*
X42057Y-51993D02*
X42043Y-52007D01*
X42000Y-52021D01*
X41971Y-52021D01*
X41928Y-52007D01*
X41900Y-51979D01*
X41885Y-51950D01*
X41871Y-51893D01*
X41871Y-51850D01*
X41885Y-51793D01*
X41900Y-51764D01*
X41928Y-51736D01*
X41971Y-51721D01*
X42000Y-51721D01*
X42043Y-51736D01*
X42057Y-51750D01*
X42171Y-51750D02*
X42185Y-51736D01*
X42214Y-51721D01*
X42285Y-51721D01*
X42314Y-51736D01*
X42328Y-51750D01*
X42343Y-51779D01*
X42343Y-51807D01*
X42328Y-51850D01*
X42157Y-52021D01*
X42343Y-52021D01*
X42571Y-51864D02*
X42614Y-51879D01*
X42629Y-51893D01*
X42643Y-51921D01*
X42643Y-51964D01*
X42629Y-51993D01*
X42614Y-52007D01*
X42586Y-52021D01*
X42471Y-52021D01*
X42471Y-51721D01*
X42571Y-51721D01*
X42600Y-51736D01*
X42614Y-51750D01*
X42629Y-51779D01*
X42629Y-51807D01*
X42614Y-51836D01*
X42600Y-51850D01*
X42571Y-51864D01*
X42471Y-51864D01*
X42929Y-52021D02*
X42757Y-52021D01*
X42843Y-52021D02*
X42843Y-51721D01*
X42814Y-51764D01*
X42786Y-51793D01*
X42757Y-51807D01*
X26350Y-54021D02*
X26250Y-53879D01*
X26178Y-54021D02*
X26178Y-53721D01*
X26293Y-53721D01*
X26321Y-53736D01*
X26336Y-53750D01*
X26350Y-53779D01*
X26350Y-53821D01*
X26336Y-53850D01*
X26321Y-53864D01*
X26293Y-53879D01*
X26178Y-53879D01*
X26636Y-54021D02*
X26464Y-54021D01*
X26550Y-54021D02*
X26550Y-53721D01*
X26521Y-53764D01*
X26493Y-53793D01*
X26464Y-53807D01*
G54D11*
X53083Y-45410D02*
X53511Y-45410D01*
X53597Y-45438D01*
X53654Y-45495D01*
X53683Y-45581D01*
X53683Y-45638D01*
X53683Y-44810D02*
X53683Y-45153D01*
X53683Y-44981D02*
X53083Y-44981D01*
X53169Y-45038D01*
X53226Y-45096D01*
X53254Y-45153D01*
X52654Y-46481D02*
X52683Y-46395D01*
X52683Y-46252D01*
X52654Y-46195D01*
X52626Y-46166D01*
X52569Y-46138D01*
X52511Y-46138D01*
X52454Y-46166D01*
X52426Y-46195D01*
X52397Y-46252D01*
X52369Y-46366D01*
X52340Y-46424D01*
X52311Y-46452D01*
X52254Y-46481D01*
X52197Y-46481D01*
X52140Y-46452D01*
X52111Y-46424D01*
X52083Y-46366D01*
X52083Y-46224D01*
X52111Y-46138D01*
X52683Y-45881D02*
X52083Y-45881D01*
X52511Y-45681D01*
X52083Y-45481D01*
X52683Y-45481D01*
X52511Y-45224D02*
X52511Y-44938D01*
X52683Y-45281D02*
X52083Y-45081D01*
X52683Y-44881D01*
G54D14*
X51758Y-49952D02*
X51758Y-50112D01*
X51767Y-50130D01*
X51777Y-50140D01*
X51795Y-50149D01*
X51833Y-50149D01*
X51852Y-50140D01*
X51861Y-50130D01*
X51870Y-50112D01*
X51870Y-49952D01*
X51955Y-49971D02*
X51964Y-49962D01*
X51983Y-49952D01*
X52030Y-49952D01*
X52048Y-49962D01*
X52058Y-49971D01*
X52067Y-49990D01*
X52067Y-50009D01*
X52058Y-50037D01*
X51945Y-50149D01*
X52067Y-50149D01*
X52218Y-50046D02*
X52246Y-50055D01*
X52255Y-50065D01*
X52264Y-50084D01*
X52264Y-50112D01*
X52255Y-50130D01*
X52246Y-50140D01*
X52227Y-50149D01*
X52152Y-50149D01*
X52152Y-49952D01*
X52218Y-49952D01*
X52236Y-49962D01*
X52246Y-49971D01*
X52255Y-49990D01*
X52255Y-50009D01*
X52246Y-50027D01*
X52236Y-50037D01*
X52218Y-50046D01*
X52152Y-50046D01*
X52452Y-50149D02*
X52340Y-50149D01*
X52396Y-50149D02*
X52396Y-49952D01*
X52377Y-49980D01*
X52358Y-49999D01*
X52340Y-50009D01*
X51621Y-49490D02*
X51649Y-49499D01*
X51696Y-49499D01*
X51714Y-49490D01*
X51724Y-49480D01*
X51733Y-49462D01*
X51733Y-49443D01*
X51724Y-49424D01*
X51714Y-49415D01*
X51696Y-49405D01*
X51658Y-49396D01*
X51639Y-49387D01*
X51630Y-49377D01*
X51621Y-49359D01*
X51621Y-49340D01*
X51630Y-49321D01*
X51639Y-49312D01*
X51658Y-49302D01*
X51705Y-49302D01*
X51733Y-49312D01*
X51818Y-49499D02*
X51818Y-49302D01*
X51996Y-49368D02*
X51996Y-49499D01*
X51949Y-49293D02*
X51903Y-49434D01*
X52024Y-49434D01*
X52081Y-49302D02*
X52203Y-49302D01*
X52137Y-49377D01*
X52166Y-49377D01*
X52184Y-49387D01*
X52194Y-49396D01*
X52203Y-49415D01*
X52203Y-49462D01*
X52194Y-49480D01*
X52184Y-49490D01*
X52166Y-49499D01*
X52109Y-49499D01*
X52091Y-49490D01*
X52081Y-49480D01*
X52279Y-49321D02*
X52288Y-49312D01*
X52307Y-49302D01*
X52354Y-49302D01*
X52372Y-49312D01*
X52382Y-49321D01*
X52391Y-49340D01*
X52391Y-49359D01*
X52382Y-49387D01*
X52269Y-49499D01*
X52391Y-49499D01*
X52513Y-49302D02*
X52532Y-49302D01*
X52551Y-49312D01*
X52560Y-49321D01*
X52570Y-49340D01*
X52579Y-49377D01*
X52579Y-49424D01*
X52570Y-49462D01*
X52560Y-49480D01*
X52551Y-49490D01*
X52532Y-49499D01*
X52513Y-49499D01*
X52495Y-49490D01*
X52485Y-49480D01*
X52476Y-49462D01*
X52467Y-49424D01*
X52467Y-49377D01*
X52476Y-49340D01*
X52485Y-49321D01*
X52495Y-49312D01*
X52513Y-49302D01*
M02*
