G04 (created by PCBNEW-RS274X (2010-05-05 BZR 2356)-stable) date 12/25/2011 2:42:49 PM*
G01*
G70*
G90*
%MOIN*%
G04 Gerber Fmt 3.4, Leading zero omitted, Abs format*
%FSLAX34Y34*%
G04 APERTURE LIST*
%ADD10C,0.006000*%
%ADD11C,0.015000*%
%ADD12C,0.060000*%
%ADD13R,0.055000X0.055000*%
%ADD14C,0.055000*%
%ADD15R,0.350000X0.350000*%
%ADD16C,0.070000*%
%ADD17R,0.070000X0.070000*%
%ADD18R,0.060000X0.060000*%
%ADD19C,0.078700*%
%ADD20C,0.035000*%
%ADD21C,0.008000*%
%ADD22C,0.010000*%
G04 APERTURE END LIST*
G54D10*
G54D11*
X23570Y-70490D02*
X23580Y-70490D01*
X23570Y-71130D02*
X23570Y-70490D01*
X58480Y-71130D02*
X23570Y-71130D01*
X58480Y-43050D02*
X58480Y-71130D01*
X23570Y-43050D02*
X58480Y-43050D01*
X23570Y-70590D02*
X23570Y-43050D01*
G54D12*
X37792Y-69000D03*
X36808Y-69000D03*
X34308Y-69000D03*
X35292Y-69000D03*
G54D13*
X56430Y-62210D03*
G54D14*
X55430Y-62210D03*
X54430Y-62210D03*
X53430Y-62210D03*
X52430Y-62210D03*
X51430Y-62210D03*
X50430Y-62210D03*
X50430Y-65210D03*
X51430Y-65210D03*
X52430Y-65210D03*
X53430Y-65210D03*
X54430Y-65210D03*
X55430Y-65210D03*
X56430Y-65210D03*
G54D13*
X50330Y-59010D03*
G54D14*
X51330Y-59010D03*
X52330Y-59010D03*
X53330Y-59010D03*
X54330Y-59010D03*
X55330Y-59010D03*
X56330Y-59010D03*
X56330Y-56010D03*
X55330Y-56010D03*
X54330Y-56010D03*
X53330Y-56010D03*
X52330Y-56010D03*
X51330Y-56010D03*
X50330Y-56010D03*
G54D13*
X25800Y-47600D03*
G54D14*
X26800Y-47600D03*
X27800Y-47600D03*
X28800Y-47600D03*
X29800Y-47600D03*
X30800Y-47600D03*
X31800Y-47600D03*
X32800Y-47600D03*
X33800Y-47600D03*
X34800Y-47600D03*
X34800Y-44600D03*
X33800Y-44600D03*
X32800Y-44600D03*
X31800Y-44600D03*
X30800Y-44600D03*
X29800Y-44600D03*
X28800Y-44600D03*
X27800Y-44600D03*
X26800Y-44600D03*
X25800Y-44600D03*
G54D13*
X35800Y-61600D03*
G54D14*
X36800Y-61600D03*
X37800Y-61600D03*
X38800Y-61600D03*
X39800Y-61600D03*
X40800Y-61600D03*
X41800Y-61600D03*
X42800Y-61600D03*
X43800Y-61600D03*
X44800Y-61600D03*
X44800Y-58600D03*
X43800Y-58600D03*
X42800Y-58600D03*
X41800Y-58600D03*
X40800Y-58600D03*
X39800Y-58600D03*
X38800Y-58600D03*
X37800Y-58600D03*
X36800Y-58600D03*
X35800Y-58600D03*
G54D13*
X44800Y-44600D03*
G54D14*
X43800Y-44600D03*
X42800Y-44600D03*
X41800Y-44600D03*
X40800Y-44600D03*
X39800Y-44600D03*
X38800Y-44600D03*
X37800Y-44600D03*
X36800Y-44600D03*
X35800Y-44600D03*
X35800Y-47600D03*
X36800Y-47600D03*
X37800Y-47600D03*
X38800Y-47600D03*
X39800Y-47600D03*
X40800Y-47600D03*
X41800Y-47600D03*
X42800Y-47600D03*
X43800Y-47600D03*
X44800Y-47600D03*
G54D13*
X25800Y-61600D03*
G54D14*
X26800Y-61600D03*
X27800Y-61600D03*
X28800Y-61600D03*
X29800Y-61600D03*
X30800Y-61600D03*
X31800Y-61600D03*
X32800Y-61600D03*
X33800Y-61600D03*
X34800Y-61600D03*
X34800Y-58600D03*
X33800Y-58600D03*
X32800Y-58600D03*
X31800Y-58600D03*
X30800Y-58600D03*
X29800Y-58600D03*
X28800Y-58600D03*
X27800Y-58600D03*
X26800Y-58600D03*
X25800Y-58600D03*
G54D15*
X27100Y-65100D03*
G54D16*
X33600Y-66100D03*
G54D17*
X33600Y-65100D03*
G54D16*
X33600Y-64100D03*
G54D15*
X44000Y-65100D03*
G54D16*
X37500Y-64100D03*
G54D17*
X37500Y-65100D03*
G54D16*
X37500Y-66100D03*
G54D18*
X31400Y-68800D03*
G54D12*
X31400Y-69800D03*
G54D18*
X24700Y-68700D03*
G54D12*
X25700Y-68700D03*
X24700Y-69700D03*
X25700Y-69700D03*
G54D18*
X41700Y-69700D03*
G54D12*
X41700Y-68700D03*
X42700Y-69700D03*
X42700Y-68700D03*
X43700Y-69700D03*
X43700Y-68700D03*
G54D19*
X55440Y-45210D03*
X56503Y-46273D03*
X56503Y-44147D03*
X54377Y-44147D03*
X54377Y-46273D03*
G54D20*
X34850Y-66100D03*
X36550Y-66100D03*
X57830Y-46930D03*
X47630Y-48660D03*
X57010Y-67550D03*
X31800Y-51550D03*
X26400Y-51550D03*
X35700Y-65500D03*
X35300Y-66900D03*
X45450Y-68800D03*
X42900Y-49700D03*
X40800Y-49700D03*
X36550Y-65100D03*
X48900Y-56400D03*
X48100Y-55600D03*
X50940Y-59850D03*
X49400Y-59850D03*
X48120Y-64260D03*
X47700Y-66240D03*
X44900Y-67560D03*
X44630Y-69950D03*
X42860Y-70740D03*
X47110Y-64820D03*
X48780Y-60390D03*
X51120Y-60390D03*
X36700Y-70100D03*
X38400Y-67550D03*
X38950Y-67000D03*
X51600Y-66050D03*
X52020Y-52540D03*
X50930Y-53860D03*
X47120Y-56380D03*
X47900Y-58210D03*
X49000Y-63970D03*
X48740Y-65090D03*
X48730Y-51360D03*
X47360Y-52590D03*
X30490Y-43740D03*
X49090Y-44640D03*
X29750Y-48200D03*
X39200Y-55600D03*
X40000Y-56400D03*
X49500Y-59250D03*
X45850Y-55600D03*
X28750Y-45550D03*
X46990Y-59310D03*
X48390Y-59900D03*
X33200Y-46550D03*
X31200Y-48850D03*
X41850Y-46550D03*
X36900Y-48200D03*
X36800Y-46650D03*
X39400Y-46000D03*
X51570Y-48080D03*
X52490Y-51940D03*
X52150Y-57800D03*
X53300Y-59650D03*
X31800Y-54650D03*
X27450Y-54750D03*
X25200Y-57000D03*
X24750Y-67750D03*
X27800Y-51900D03*
X30400Y-51900D03*
G54D21*
X37500Y-66100D02*
X39650Y-68250D01*
X39650Y-68250D02*
X41900Y-68250D01*
X41900Y-68250D02*
X41950Y-68300D01*
X41950Y-68300D02*
X42000Y-68300D01*
X42000Y-68300D02*
X42400Y-68700D01*
X42400Y-68700D02*
X42700Y-68700D01*
X34850Y-66100D02*
X33600Y-66100D01*
X36550Y-66100D02*
X37500Y-66100D01*
X57830Y-43840D02*
X57830Y-46930D01*
X57410Y-43420D02*
X57830Y-43840D01*
X52870Y-43420D02*
X57410Y-43420D01*
X47630Y-48660D02*
X52870Y-43420D01*
X56930Y-67470D02*
X56930Y-67350D01*
X57010Y-67550D02*
X56930Y-67470D01*
X31400Y-68800D02*
X30500Y-69700D01*
X30500Y-69700D02*
X25700Y-69700D01*
X43700Y-68700D02*
X43150Y-69250D01*
X43150Y-69250D02*
X41250Y-69250D01*
X41250Y-69250D02*
X41050Y-69450D01*
X41050Y-69450D02*
X37600Y-69450D01*
X37600Y-69450D02*
X37550Y-69400D01*
X37550Y-69400D02*
X37500Y-69400D01*
X37500Y-69400D02*
X37100Y-69000D01*
X37100Y-69000D02*
X36808Y-69000D01*
X39800Y-44600D02*
X39350Y-45050D01*
X39350Y-45050D02*
X33650Y-45050D01*
X33650Y-45050D02*
X33600Y-45000D01*
X33600Y-45000D02*
X33550Y-45000D01*
X33550Y-45000D02*
X33150Y-44600D01*
X33150Y-44600D02*
X32800Y-44600D01*
X31800Y-51550D02*
X26400Y-51550D01*
X35700Y-65500D02*
X35700Y-66500D01*
X35700Y-66500D02*
X35300Y-66900D01*
X43700Y-68700D02*
X43800Y-68800D01*
X43800Y-68800D02*
X45450Y-68800D01*
X35292Y-69000D02*
X35300Y-69000D01*
X35300Y-69000D02*
X34850Y-68550D01*
X34850Y-68550D02*
X34100Y-68550D01*
X34100Y-68550D02*
X34050Y-68600D01*
X34050Y-68600D02*
X34000Y-68600D01*
X34000Y-68600D02*
X33800Y-68800D01*
X33800Y-68800D02*
X31400Y-68800D01*
X42900Y-49700D02*
X40800Y-49700D01*
X36550Y-65100D02*
X37500Y-65100D01*
X35292Y-69000D02*
X36808Y-69000D01*
X52330Y-59010D02*
X52350Y-59000D01*
X52350Y-59000D02*
X49750Y-56400D01*
X49750Y-56400D02*
X48900Y-56400D01*
X48100Y-55600D02*
X42550Y-50050D01*
X42550Y-50050D02*
X40700Y-50050D01*
X40700Y-50050D02*
X40650Y-50000D01*
X40650Y-50000D02*
X40600Y-50000D01*
X40600Y-50000D02*
X38600Y-48000D01*
X38600Y-48000D02*
X38550Y-48000D01*
X38550Y-48000D02*
X38400Y-47850D01*
X38400Y-47850D02*
X38400Y-47800D01*
X38400Y-47800D02*
X38350Y-47750D01*
X38350Y-47750D02*
X38350Y-47500D01*
X38350Y-47500D02*
X36100Y-45250D01*
X36100Y-45250D02*
X33550Y-45250D01*
X33550Y-45250D02*
X33500Y-45200D01*
X33500Y-45200D02*
X33450Y-45200D01*
X33450Y-45200D02*
X33400Y-45150D01*
X33400Y-45150D02*
X33350Y-45150D01*
X33350Y-45150D02*
X33250Y-45050D01*
X33250Y-45050D02*
X26650Y-45050D01*
X26650Y-45050D02*
X26600Y-45000D01*
X26600Y-45000D02*
X26550Y-45000D01*
X26550Y-45000D02*
X26150Y-44600D01*
X26150Y-44600D02*
X25800Y-44600D01*
X52100Y-59880D02*
X54430Y-62210D01*
X50970Y-59880D02*
X52100Y-59880D01*
X50940Y-59850D02*
X50970Y-59880D01*
X49220Y-60030D02*
X49400Y-59850D01*
X49220Y-63160D02*
X49220Y-60030D01*
X48120Y-64260D02*
X49220Y-63160D01*
X46560Y-67380D02*
X47700Y-66240D01*
X45080Y-67380D02*
X46560Y-67380D01*
X44900Y-67560D02*
X45080Y-67380D01*
X43850Y-70730D02*
X44630Y-69950D01*
X42870Y-70730D02*
X43850Y-70730D01*
X42860Y-70740D02*
X42870Y-70730D01*
X53430Y-62210D02*
X53430Y-61760D01*
X47110Y-62060D02*
X47110Y-64820D01*
X48780Y-60390D02*
X47110Y-62060D01*
X52060Y-60390D02*
X51120Y-60390D01*
X53430Y-61760D02*
X52060Y-60390D01*
X36700Y-70100D02*
X36400Y-69800D01*
X36400Y-69800D02*
X31400Y-69800D01*
X41700Y-68700D02*
X41400Y-69000D01*
X41400Y-69000D02*
X37792Y-69000D01*
X24700Y-68700D02*
X25150Y-69150D01*
X25150Y-69150D02*
X25900Y-69150D01*
X25900Y-69150D02*
X25950Y-69100D01*
X25950Y-69100D02*
X26000Y-69100D01*
X26000Y-69100D02*
X27550Y-67550D01*
X27550Y-67550D02*
X38400Y-67550D01*
X38950Y-67000D02*
X45900Y-67000D01*
X45900Y-67000D02*
X47250Y-65650D01*
X47250Y-65650D02*
X52600Y-65650D01*
X52600Y-65650D02*
X52650Y-65600D01*
X52650Y-65600D02*
X52700Y-65600D01*
X52700Y-65600D02*
X53100Y-65200D01*
X53100Y-65200D02*
X53450Y-65200D01*
X53450Y-65200D02*
X53430Y-65210D01*
X24700Y-69700D02*
X25450Y-70450D01*
X25450Y-70450D02*
X36800Y-70450D01*
X36800Y-70450D02*
X36850Y-70400D01*
X36850Y-70400D02*
X36900Y-70400D01*
X36900Y-70400D02*
X37150Y-70150D01*
X37150Y-70150D02*
X43900Y-70150D01*
X43900Y-70150D02*
X43950Y-70100D01*
X43950Y-70100D02*
X44000Y-70100D01*
X44000Y-70100D02*
X44950Y-69150D01*
X44950Y-69150D02*
X45550Y-69150D01*
X45550Y-69150D02*
X45600Y-69100D01*
X45600Y-69100D02*
X45650Y-69100D01*
X45650Y-69100D02*
X48700Y-66050D01*
X48700Y-66050D02*
X51600Y-66050D01*
X52020Y-52770D02*
X52020Y-52540D01*
X50930Y-53860D02*
X52020Y-52770D01*
X47120Y-57430D02*
X47120Y-56380D01*
X47900Y-58210D02*
X47120Y-57430D01*
X49000Y-64830D02*
X49000Y-63970D01*
X48740Y-65090D02*
X49000Y-64830D01*
X48590Y-51360D02*
X48730Y-51360D01*
X47360Y-52590D02*
X48590Y-51360D01*
X45740Y-43740D02*
X30490Y-43740D01*
X46040Y-44040D02*
X45740Y-43740D01*
X48490Y-44040D02*
X46040Y-44040D01*
X49090Y-44640D02*
X48490Y-44040D01*
X29750Y-48200D02*
X37150Y-55600D01*
X37150Y-55600D02*
X39200Y-55600D01*
X40000Y-56400D02*
X41750Y-58150D01*
X41750Y-58150D02*
X44950Y-58150D01*
X44950Y-58150D02*
X45000Y-58200D01*
X45000Y-58200D02*
X45050Y-58200D01*
X45050Y-58200D02*
X45400Y-58550D01*
X45400Y-58550D02*
X51400Y-58550D01*
X51400Y-58550D02*
X51450Y-58600D01*
X51450Y-58600D02*
X51550Y-58600D01*
X51550Y-58600D02*
X51600Y-58650D01*
X51600Y-58650D02*
X51650Y-58650D01*
X51650Y-58650D02*
X51700Y-58700D01*
X51700Y-58700D02*
X51700Y-58750D01*
X51700Y-58750D02*
X51750Y-58800D01*
X51750Y-58800D02*
X51750Y-59100D01*
X51750Y-59100D02*
X54400Y-61750D01*
X54400Y-61750D02*
X54500Y-61750D01*
X54500Y-61750D02*
X54550Y-61800D01*
X54550Y-61800D02*
X54650Y-61800D01*
X54650Y-61800D02*
X54700Y-61850D01*
X54700Y-61850D02*
X54750Y-61850D01*
X54750Y-61850D02*
X55100Y-62200D01*
X55100Y-62200D02*
X55450Y-62200D01*
X55450Y-62200D02*
X55430Y-62210D01*
X52430Y-62210D02*
X52450Y-62200D01*
X52450Y-62200D02*
X49500Y-59250D01*
X45850Y-55600D02*
X38800Y-48550D01*
X38800Y-48550D02*
X36800Y-48550D01*
X36800Y-48550D02*
X36750Y-48500D01*
X36750Y-48500D02*
X36700Y-48500D01*
X36700Y-48500D02*
X36250Y-48050D01*
X36250Y-48050D02*
X35650Y-48050D01*
X35650Y-48050D02*
X35600Y-48000D01*
X35600Y-48000D02*
X35550Y-48000D01*
X35550Y-48000D02*
X35400Y-47850D01*
X35400Y-47850D02*
X35400Y-47800D01*
X35400Y-47800D02*
X35350Y-47750D01*
X35350Y-47750D02*
X35350Y-47500D01*
X35350Y-47500D02*
X33400Y-45550D01*
X33400Y-45550D02*
X28750Y-45550D01*
X51330Y-59010D02*
X51350Y-59000D01*
X51350Y-59000D02*
X50350Y-59000D01*
X50350Y-59000D02*
X50330Y-59010D01*
X47800Y-59310D02*
X46990Y-59310D01*
X48390Y-59900D02*
X47800Y-59310D01*
X33200Y-46550D02*
X32400Y-47350D01*
X32400Y-47350D02*
X32400Y-47400D01*
X32400Y-47400D02*
X32350Y-47450D01*
X32350Y-47450D02*
X32350Y-47700D01*
X32350Y-47700D02*
X31200Y-48850D01*
X43800Y-44600D02*
X41850Y-46550D01*
X36900Y-48200D02*
X36900Y-48150D01*
X36900Y-48150D02*
X37200Y-47850D01*
X37200Y-47850D02*
X37200Y-47800D01*
X37200Y-47800D02*
X37250Y-47750D01*
X37250Y-47750D02*
X37250Y-47100D01*
X37250Y-47100D02*
X36800Y-46650D01*
X39400Y-46000D02*
X40800Y-44600D01*
X50330Y-56010D02*
X50330Y-48160D01*
X51420Y-47930D02*
X51570Y-48080D01*
X50560Y-47930D02*
X51420Y-47930D01*
X50330Y-48160D02*
X50560Y-47930D01*
X50330Y-56010D02*
X50330Y-55400D01*
X52750Y-52200D02*
X52490Y-51940D01*
X52750Y-52980D02*
X52750Y-52200D01*
X50330Y-55400D02*
X52750Y-52980D01*
X50330Y-56010D02*
X50350Y-56000D01*
X50350Y-56000D02*
X52150Y-57800D01*
X53300Y-59650D02*
X55400Y-61750D01*
X55400Y-61750D02*
X55500Y-61750D01*
X55500Y-61750D02*
X55550Y-61800D01*
X55550Y-61800D02*
X55650Y-61800D01*
X55650Y-61800D02*
X55700Y-61850D01*
X55700Y-61850D02*
X55750Y-61850D01*
X55750Y-61850D02*
X56100Y-62200D01*
X56100Y-62200D02*
X56450Y-62200D01*
X56450Y-62200D02*
X56430Y-62210D01*
X31800Y-54650D02*
X33150Y-56000D01*
X33150Y-56000D02*
X50350Y-56000D01*
X50350Y-56000D02*
X50330Y-56010D01*
X27450Y-54750D02*
X25200Y-57000D01*
X24750Y-67750D02*
X25700Y-68700D01*
X50350Y-56000D02*
X50330Y-56010D01*
X27800Y-51900D02*
X30400Y-51900D01*
X30800Y-44600D02*
X31800Y-44600D01*
G54D22*
X55070Y-67410D02*
X55070Y-67410D01*
X54992Y-67490D02*
X57635Y-67490D01*
X54915Y-67570D02*
X57779Y-67570D01*
X54837Y-67650D02*
X57923Y-67650D01*
X54760Y-67730D02*
X58066Y-67730D01*
X54682Y-67810D02*
X58205Y-67810D01*
X54605Y-67890D02*
X58205Y-67890D01*
X54527Y-67970D02*
X58205Y-67970D01*
X51307Y-68050D02*
X51307Y-68050D01*
X54450Y-68050D02*
X58205Y-68050D01*
X51208Y-68130D02*
X58205Y-68130D01*
X51110Y-68210D02*
X58205Y-68210D01*
X51011Y-68290D02*
X58205Y-68290D01*
X50913Y-68370D02*
X58205Y-68370D01*
X50815Y-68450D02*
X58205Y-68450D01*
X50716Y-68530D02*
X58205Y-68530D01*
X50618Y-68610D02*
X58205Y-68610D01*
X50591Y-68690D02*
X58205Y-68690D01*
X50592Y-68770D02*
X58205Y-68770D01*
X50593Y-68850D02*
X58205Y-68850D01*
X50593Y-68930D02*
X58205Y-68930D01*
X50594Y-69010D02*
X58205Y-69010D01*
X50595Y-69090D02*
X58205Y-69090D01*
X50596Y-69170D02*
X58205Y-69170D01*
X50596Y-69250D02*
X58205Y-69250D01*
X50597Y-69330D02*
X58205Y-69330D01*
X50598Y-69410D02*
X58205Y-69410D01*
X50599Y-69490D02*
X58205Y-69490D01*
X50599Y-69570D02*
X58205Y-69570D01*
X50600Y-69650D02*
X58205Y-69650D01*
X50601Y-69730D02*
X58205Y-69730D01*
X50602Y-69810D02*
X58205Y-69810D01*
X50602Y-69890D02*
X58205Y-69890D01*
X50603Y-69970D02*
X58205Y-69970D01*
X50604Y-70050D02*
X58205Y-70050D01*
X50605Y-70130D02*
X58205Y-70130D01*
X50605Y-70210D02*
X58205Y-70210D01*
X50606Y-70290D02*
X58205Y-70290D01*
X50607Y-70370D02*
X58205Y-70370D01*
X50608Y-70450D02*
X58205Y-70450D01*
X50608Y-70530D02*
X58142Y-70530D01*
X50609Y-70610D02*
X58071Y-70610D01*
X50654Y-70690D02*
X58000Y-70690D01*
X50724Y-70770D02*
X57928Y-70770D01*
X50795Y-70850D02*
X57857Y-70850D01*
X57852Y-70855D02*
X58205Y-70459D01*
X58205Y-67807D01*
X57616Y-67479D01*
X55070Y-67410D01*
X54431Y-68070D01*
X52299Y-68070D01*
X51307Y-68050D01*
X50590Y-68633D01*
X50609Y-70640D01*
X50799Y-70855D01*
X57852Y-70855D01*
M02*
